<svg width="290" height="351" viewBox="0 0 290 351" fill="none" xmlns="http://www.w3.org/2000/svg" style="mix-blend-mode: color-dodge;">
<path style="mix-blend-mode:color-dodge" fill-rule="evenodd" clip-rule="evenodd" d="M270.061 89.9658C270.881 90.5357 271.082 91.6601 270.512 92.4794C269.942 93.2959 268.815 93.5002 267.999 92.9303C267.179 92.3603 266.978 91.2359 267.548 90.4167C268.118 89.5974 269.242 89.3958 270.061 89.9658Z" fill="url(#paint0_radial_1_2267)"/>
<path style="mix-blend-mode:color-dodge" fill-rule="evenodd" clip-rule="evenodd" d="M287.036 20.3315C287.855 20.9015 288.057 22.0258 287.487 22.8451C286.917 23.6644 285.793 23.866 284.973 23.296C284.154 22.726 283.953 21.6017 284.522 20.7824C285.092 19.9631 286.22 19.7616 287.036 20.3315Z" fill="url(#paint1_radial_1_2267)"/>
<path style="mix-blend-mode:color-dodge" fill-rule="evenodd" clip-rule="evenodd" d="M244.164 149.189C245.781 150.315 246.182 152.542 245.056 154.159C243.929 155.776 241.702 156.177 240.085 155.05C238.468 153.924 238.068 151.7 239.194 150.08C240.32 148.46 242.547 148.062 244.164 149.189Z" fill="url(#paint2_radial_1_2267)"/>
<path style="mix-blend-mode:color-dodge" fill-rule="evenodd" clip-rule="evenodd" d="M140.954 278.13C142.574 279.257 142.972 281.484 141.846 283.101C140.719 284.721 138.492 285.118 136.875 283.992C135.255 282.866 134.858 280.641 135.984 279.022C137.11 277.405 139.335 277.004 140.954 278.13Z" fill="url(#paint3_radial_1_2267)"/>
<path style="mix-blend-mode:color-dodge" fill-rule="evenodd" clip-rule="evenodd" d="M126.704 221.97C128.321 223.096 128.722 225.321 127.596 226.94C126.469 228.557 124.245 228.958 122.625 227.831C121.008 226.705 120.608 224.481 121.734 222.861C122.86 221.241 125.085 220.843 126.704 221.97Z" fill="url(#paint4_radial_1_2267)"/>
<path style="mix-blend-mode:color-dodge" fill-rule="evenodd" clip-rule="evenodd" d="M22.5393 223.334C24.159 224.46 24.5568 226.687 23.4304 228.304C22.3041 229.924 20.0797 230.322 18.46 229.196C16.843 228.069 16.4425 225.845 17.5689 224.225C18.6952 222.605 20.9196 222.208 22.5393 223.334Z" fill="url(#paint5_radial_1_2267)"/>
<path style="mix-blend-mode:color-dodge" fill-rule="evenodd" clip-rule="evenodd" d="M123.486 155.309C125.103 156.435 125.503 158.663 124.377 160.28C123.251 161.897 121.024 162.297 119.407 161.171C117.79 160.044 117.389 157.82 118.515 156.2C119.642 154.581 121.866 154.183 123.486 155.309Z" fill="url(#paint6_radial_1_2267)"/>
<path style="mix-blend-mode:color-dodge" fill-rule="evenodd" clip-rule="evenodd" d="M263.762 31.3484C265.382 32.4748 265.779 34.6992 264.653 36.3189C263.527 37.9385 261.3 38.3364 259.683 37.21C258.063 36.0837 257.665 33.8593 258.791 32.2396C259.918 30.6226 262.145 30.2221 263.762 31.3484Z" fill="url(#paint7_radial_1_2267)"/>
<path style="mix-blend-mode:color-dodge" fill-rule="evenodd" clip-rule="evenodd" d="M287.921 320.983C289.538 322.109 289.939 324.333 288.812 325.953C287.686 327.57 285.459 327.968 283.842 326.844C282.225 325.718 281.827 323.494 282.951 321.874C284.077 320.254 286.304 319.856 287.921 320.983Z" fill="url(#paint8_radial_1_2267)"/>
<path style="mix-blend-mode:color-dodge" fill-rule="evenodd" clip-rule="evenodd" d="M277.227 304.457C278.844 305.583 279.242 307.807 278.119 309.427C276.992 311.044 274.765 311.445 273.148 310.316C271.531 309.189 271.131 306.965 272.257 305.345C273.383 303.726 275.608 303.328 277.227 304.454L277.227 304.457Z" fill="url(#paint9_radial_1_2267)"/>
<path style="mix-blend-mode:color-dodge" fill-rule="evenodd" clip-rule="evenodd" d="M277.341 159.46C278.96 160.586 279.358 162.814 278.232 164.431C277.105 166.048 274.881 166.448 273.261 165.319C271.644 164.193 271.244 161.968 272.37 160.349C273.496 158.729 275.721 158.331 277.341 159.457L277.341 159.46Z" fill="url(#paint10_radial_1_2267)"/>
<path style="mix-blend-mode:color-dodge" fill-rule="evenodd" clip-rule="evenodd" d="M246.053 336.837C247.672 337.964 248.07 340.188 246.944 341.808C245.818 343.427 243.591 343.825 241.974 342.699C240.354 341.572 239.956 339.348 241.082 337.728C242.209 336.109 244.433 335.711 246.053 336.837Z" fill="url(#paint11_radial_1_2267)"/>
<path style="mix-blend-mode:color-dodge" fill-rule="evenodd" clip-rule="evenodd" d="M263.635 158.474C265.238 159.622 265.603 161.854 264.456 163.458C263.308 165.061 261.078 165.426 259.475 164.278C257.871 163.131 257.503 160.898 258.654 159.297C259.802 157.694 262.034 157.326 263.635 158.474Z" fill="url(#paint12_radial_1_2267)"/>
<path style="mix-blend-mode:color-dodge" fill-rule="evenodd" clip-rule="evenodd" d="M277.256 248.377C278.859 249.525 279.228 251.758 278.077 253.361C276.929 254.965 274.699 255.33 273.096 254.182C271.493 253.034 271.124 250.804 272.275 249.201C273.426 247.598 275.655 247.23 277.256 248.377Z" fill="url(#paint13_radial_1_2267)"/>
<path style="mix-blend-mode:color-dodge" fill-rule="evenodd" clip-rule="evenodd" d="M279.647 103.277C281.25 104.425 281.619 106.657 280.468 108.258C279.32 109.861 277.088 110.226 275.487 109.079C273.883 107.931 273.515 105.701 274.666 104.098C275.814 102.494 278.046 102.126 279.647 103.274L279.647 103.277Z" fill="url(#paint14_radial_1_2267)"/>
<path style="mix-blend-mode:color-dodge" fill-rule="evenodd" clip-rule="evenodd" d="M207.217 208.94C208.834 210.066 209.235 212.291 208.108 213.91C206.982 215.53 204.755 215.928 203.138 214.802C201.518 213.675 201.12 211.451 202.247 209.831C203.373 208.211 205.6 207.814 207.217 208.94Z" fill="url(#paint15_radial_1_2267)"/>
<path style="mix-blend-mode:color-dodge" fill-rule="evenodd" clip-rule="evenodd" d="M183.605 134.009C185.222 135.135 185.622 137.359 184.496 138.979C183.37 140.599 181.145 140.997 179.526 139.87C177.909 138.744 177.508 136.519 178.634 134.9C179.761 133.28 181.988 132.882 183.605 134.009Z" fill="url(#paint16_radial_1_2267)"/>
<path style="mix-blend-mode:color-dodge" fill-rule="evenodd" clip-rule="evenodd" d="M244.012 187.957C244.831 188.526 245.033 189.651 244.463 190.47C243.893 191.289 242.769 191.491 241.949 190.921C241.13 190.351 240.929 189.227 241.498 188.407C242.068 187.588 243.193 187.387 244.012 187.957Z" fill="url(#paint17_radial_1_2267)"/>
<path style="mix-blend-mode:color-dodge" fill-rule="evenodd" clip-rule="evenodd" d="M258.071 225.468C258.89 226.038 259.091 227.163 258.522 227.982C257.952 228.801 256.827 229.003 256.008 228.433C255.189 227.863 254.987 226.739 255.557 225.919C256.127 225.1 257.254 224.899 258.071 225.468Z" fill="url(#paint18_radial_1_2267)"/>
<path style="mix-blend-mode:color-dodge" fill-rule="evenodd" clip-rule="evenodd" d="M187.898 248.824C188.717 249.394 188.919 250.519 188.349 251.338C187.779 252.157 186.655 252.359 185.835 251.789C185.016 251.219 184.814 250.095 185.384 249.275C185.954 248.456 187.079 248.254 187.898 248.824Z" fill="url(#paint19_radial_1_2267)"/>
<path style="mix-blend-mode:color-dodge" fill-rule="evenodd" clip-rule="evenodd" d="M237.931 276.261C238.75 276.831 238.952 277.958 238.382 278.774C237.812 279.594 236.688 279.795 235.868 279.225C235.049 278.655 234.847 277.531 235.417 276.712C235.987 275.892 237.112 275.691 237.931 276.261Z" fill="url(#paint20_radial_1_2267)"/>
<path style="mix-blend-mode:color-dodge" fill-rule="evenodd" clip-rule="evenodd" d="M288.627 161.655C289.446 162.225 289.648 163.35 289.078 164.169C288.508 164.988 287.384 165.19 286.564 164.62C285.745 164.05 285.543 162.925 286.113 162.106C286.683 161.287 287.808 161.085 288.627 161.655Z" fill="url(#paint21_radial_1_2267)"/>
<path style="mix-blend-mode:color-dodge" fill-rule="evenodd" clip-rule="evenodd" d="M267.762 151.53C268.581 152.1 268.782 153.224 268.212 154.044C267.643 154.863 266.518 155.064 265.699 154.494C264.88 153.925 264.678 152.8 265.248 151.981C265.818 151.162 266.942 150.96 267.762 151.53Z" fill="url(#paint22_radial_1_2267)"/>
<path style="mix-blend-mode:color-dodge" fill-rule="evenodd" clip-rule="evenodd" d="M261.475 164.215C262.294 164.785 262.496 165.912 261.926 166.729C261.356 167.548 260.229 167.75 259.412 167.18C258.593 166.61 258.391 165.483 258.961 164.666C259.531 163.847 260.656 163.645 261.475 164.215Z" fill="url(#paint23_radial_1_2267)"/>
<path style="mix-blend-mode:color-dodge" fill-rule="evenodd" clip-rule="evenodd" d="M283.213 153.483C284.033 154.053 284.234 155.177 283.664 155.996C283.094 156.815 281.967 157.017 281.151 156.447C280.331 155.877 280.13 154.753 280.7 153.934C281.27 153.114 282.394 152.913 283.213 153.483Z" fill="url(#paint24_radial_1_2267)"/>
<path style="mix-blend-mode:color-dodge" fill-rule="evenodd" clip-rule="evenodd" d="M289.266 42.7155C290.082 43.2855 290.287 44.4099 289.717 45.2291C289.147 46.0484 288.022 46.25 287.203 45.68C286.384 45.1101 286.182 43.9857 286.752 43.1664C287.322 42.3471 288.449 42.1456 289.266 42.7155Z" fill="url(#paint25_radial_1_2267)"/>
<path style="mix-blend-mode:color-dodge" fill-rule="evenodd" clip-rule="evenodd" d="M159.259 184.739C160.078 185.309 160.279 186.433 159.709 187.253C159.139 188.072 158.015 188.273 157.196 187.703C156.377 187.134 156.175 186.009 156.745 185.19C157.315 184.371 158.442 184.169 159.259 184.739Z" fill="url(#paint26_radial_1_2267)"/>
<path style="mix-blend-mode:color-dodge" fill-rule="evenodd" clip-rule="evenodd" d="M289.809 176.024C290.566 176.673 290.654 177.813 290.003 178.57C289.355 179.326 288.212 179.415 287.455 178.764C286.698 178.113 286.613 176.975 287.261 176.219C287.912 175.462 289.052 175.374 289.809 176.024Z" fill="url(#paint27_radial_1_2267)"/>
<path style="mix-blend-mode:color-dodge" fill-rule="evenodd" clip-rule="evenodd" d="M132.372 334.639C133.129 335.29 133.217 336.43 132.566 337.184C131.918 337.941 130.778 338.029 130.021 337.378C129.264 336.73 129.176 335.59 129.827 334.833C130.478 334.076 131.618 333.988 132.375 334.639L132.372 334.639Z" fill="url(#paint28_radial_1_2267)"/>
<path style="mix-blend-mode:color-dodge" fill-rule="evenodd" clip-rule="evenodd" d="M195.113 343.455C195.87 344.106 195.958 345.246 195.307 346.003C194.659 346.76 193.516 346.848 192.762 346.197C192.005 345.546 191.917 344.409 192.568 343.652C193.219 342.895 194.359 342.807 195.113 343.455Z" fill="url(#paint29_radial_1_2267)"/>
<path style="mix-blend-mode:color-dodge" fill-rule="evenodd" clip-rule="evenodd" d="M71.6209 289.322C72.3778 289.973 72.4658 291.113 71.8151 291.867C71.167 292.624 70.0268 292.712 69.2699 292.062C68.513 291.411 68.4249 290.273 69.0757 289.516C69.7265 288.76 70.8667 288.671 71.6236 289.322L71.6209 289.322Z" fill="url(#paint30_radial_1_2267)"/>
<path style="mix-blend-mode:color-dodge" fill-rule="evenodd" clip-rule="evenodd" d="M3.17749 287.951C3.93437 288.602 4.02244 289.742 3.37165 290.499C2.72357 291.256 1.58336 291.344 0.823779 290.693C0.0668885 290.045 -0.0184807 288.905 0.629605 288.148C1.28039 287.391 2.4206 287.303 3.17478 287.954L3.17749 287.951Z" fill="url(#paint31_radial_1_2267)"/>
<path style="mix-blend-mode:color-dodge" fill-rule="evenodd" clip-rule="evenodd" d="M94.6294 126.746C95.3863 127.397 95.4744 128.537 94.8236 129.294C94.1755 130.051 93.0353 130.139 92.2784 129.488C91.5215 128.84 91.4335 127.697 92.0843 126.943C92.7351 126.186 93.8753 126.098 94.6321 126.749L94.6294 126.746Z" fill="url(#paint32_radial_1_2267)"/>
<path style="mix-blend-mode:color-dodge" fill-rule="evenodd" clip-rule="evenodd" d="M192.594 32.3222C193.351 32.973 193.439 34.1132 192.788 34.8701C192.14 35.627 191 35.7151 190.243 35.0643C189.486 34.4162 189.398 33.276 190.049 32.5191C190.7 31.7622 191.837 31.6741 192.594 32.3222Z" fill="url(#paint33_radial_1_2267)"/>
<path style="mix-blend-mode:color-dodge" fill-rule="evenodd" clip-rule="evenodd" d="M104.24 27.5888C104.997 28.2396 105.085 29.3798 104.434 30.1367C103.786 30.8936 102.643 30.9817 101.889 30.3309C101.132 29.6801 101.044 28.5426 101.695 27.7857C102.343 27.0288 103.483 26.9407 104.24 27.5888Z" fill="url(#paint34_radial_1_2267)"/>
<path style="mix-blend-mode:color-dodge" fill-rule="evenodd" clip-rule="evenodd" d="M111.4 73.6833C112.157 74.3314 112.245 75.4743 111.594 76.2285C110.946 76.9854 109.806 77.0735 109.049 76.4227C108.292 75.7746 108.204 74.6344 108.855 73.8775C109.506 73.1206 110.643 73.0325 111.4 73.6833Z" fill="url(#paint35_radial_1_2267)"/>
<path style="mix-blend-mode:color-dodge" fill-rule="evenodd" clip-rule="evenodd" d="M294.771 116.674C298.964 119.592 299.999 125.362 297.078 129.556C294.158 133.749 288.393 134.783 284.197 131.863C280.003 128.943 278.969 123.178 281.889 118.984C284.81 114.788 290.578 113.754 294.771 116.674Z" fill="url(#paint36_radial_1_2267)"/>
<path style="mix-blend-mode:color-dodge" fill-rule="evenodd" clip-rule="evenodd" d="M158.911 159.952C163.105 162.872 164.139 168.64 161.219 172.833C158.301 177.026 152.533 178.061 148.34 175.141C144.147 172.22 143.112 166.455 146.033 162.259C148.953 158.063 154.721 157.031 158.914 159.949L158.911 159.952Z" fill="url(#paint37_radial_1_2267)"/>
<path style="mix-blend-mode:color-dodge" fill-rule="evenodd" clip-rule="evenodd" d="M287.084 322.179C291.278 325.099 292.312 330.867 289.392 335.063C286.471 339.256 280.704 340.288 276.51 337.37C272.317 334.453 271.282 328.685 274.203 324.492C277.123 320.296 282.891 319.261 287.084 322.182L287.084 322.179Z" fill="url(#paint38_radial_1_2267)"/>
<path style="mix-blend-mode:color-dodge" fill-rule="evenodd" clip-rule="evenodd" d="M289.205 203.106C293.398 206.026 294.432 211.794 291.512 215.99C288.592 220.183 282.824 221.215 278.63 218.297C274.437 215.377 273.403 209.612 276.323 205.418C279.243 201.222 285.011 200.188 289.205 203.108L289.205 203.106Z" fill="url(#paint39_radial_1_2267)"/>
<path style="mix-blend-mode:color-dodge" fill-rule="evenodd" clip-rule="evenodd" d="M232.88 171.135C237.074 174.056 238.108 179.823 235.188 184.017C232.268 188.21 226.503 189.244 222.306 186.324C218.113 183.404 217.079 177.639 219.999 173.445C222.919 169.249 228.684 168.215 232.88 171.135Z" fill="url(#paint40_radial_1_2267)"/>
<path style="mix-blend-mode:color-dodge" fill-rule="evenodd" clip-rule="evenodd" d="M189.956 302.865C194.149 305.785 195.184 311.553 192.263 315.749C189.343 319.942 183.578 320.974 179.382 318.056C175.188 315.136 174.154 309.371 177.074 305.178C179.995 300.981 185.76 299.947 189.956 302.867L189.956 302.865Z" fill="url(#paint41_radial_1_2267)"/>
<path style="mix-blend-mode:color-dodge" fill-rule="evenodd" clip-rule="evenodd" d="M210.692 44.2089C214.888 47.1293 215.92 52.897 213 57.0931C210.082 61.2865 204.314 62.3209 200.118 59.4006C195.925 56.4802 194.893 50.7152 197.811 46.5191C200.731 42.323 206.499 41.2886 210.692 44.2089Z" fill="url(#paint42_radial_1_2267)"/>
<path style="mix-blend-mode:color-dodge" fill-rule="evenodd" clip-rule="evenodd" d="M302.017 36.3014C306.211 39.2191 307.245 44.9895 304.325 49.1829C301.404 53.3763 295.637 54.408 291.443 51.4904C287.25 48.57 286.216 42.805 289.136 38.6116C292.056 34.4155 297.821 33.3811 302.017 36.3014Z" fill="url(#paint43_radial_1_2267)"/>
<path style="mix-blend-mode:color-dodge" fill-rule="evenodd" clip-rule="evenodd" d="M246.445 48.7009C250.638 51.6212 251.673 57.389 248.752 61.5851C245.835 65.7784 240.067 66.8129 235.871 63.8925C231.677 60.9722 230.643 55.2071 233.563 51.0137C236.484 46.8176 242.251 45.7833 246.445 48.7036L246.445 48.7009Z" fill="url(#paint44_radial_1_2267)"/>
<path style="mix-blend-mode:color-dodge" fill-rule="evenodd" clip-rule="evenodd" d="M263.754 160.336C267.947 163.257 268.981 169.025 266.061 173.218C263.141 177.411 257.376 178.446 253.18 175.525C248.986 172.605 247.952 166.84 250.872 162.647C253.793 158.453 259.558 157.416 263.754 160.336Z" fill="url(#paint45_radial_1_2267)"/>
<path style="mix-blend-mode:color-dodge" fill-rule="evenodd" clip-rule="evenodd" d="M296.778 151.995C300.972 154.916 302.006 160.683 299.086 164.877C296.166 169.07 290.4 170.105 286.204 167.184C282.011 164.264 280.977 158.499 283.897 154.305C286.817 150.109 292.585 149.078 296.778 151.995Z" fill="url(#paint46_radial_1_2267)"/>
<path style="mix-blend-mode:color-dodge" fill-rule="evenodd" clip-rule="evenodd" d="M275.684 267.612C279.877 270.532 280.912 276.3 277.991 280.496C275.071 284.69 269.303 285.721 265.11 282.804C260.916 279.883 259.882 274.118 262.802 269.925C265.723 265.729 271.49 264.694 275.684 267.615L275.684 267.612Z" fill="url(#paint47_radial_1_2267)"/>
<path style="mix-blend-mode:color-dodge" fill-rule="evenodd" clip-rule="evenodd" d="M275.001 82.8674C279.194 85.7877 280.229 91.5555 277.308 95.7516C274.391 99.9449 268.623 100.979 264.427 98.059C260.233 95.1387 259.202 89.3736 262.119 85.1802C265.04 80.9841 270.807 79.9497 275.001 82.8701L275.001 82.8674Z" fill="url(#paint48_radial_1_2267)"/>
<path style="mix-blend-mode:color-dodge" fill-rule="evenodd" clip-rule="evenodd" d="M205.457 98.2587C209.65 101.179 210.685 106.947 207.764 111.143C204.844 115.336 199.076 116.368 194.883 113.45C190.689 110.53 189.655 104.765 192.575 100.572C195.496 96.3755 201.263 95.3411 205.457 98.2614L205.457 98.2587Z" fill="url(#paint49_radial_1_2267)"/>
<path style="mix-blend-mode:color-dodge" fill-rule="evenodd" clip-rule="evenodd" d="M171.748 62.0136C175.941 64.934 176.975 70.7017 174.055 74.8978C171.135 79.0912 165.37 80.1256 161.174 77.2052C156.98 74.2876 155.946 68.5198 158.866 64.3265C161.786 60.1304 167.554 59.096 171.748 62.0163L171.748 62.0136Z" fill="url(#paint50_radial_1_2267)"/>
<path style="mix-blend-mode:color-dodge" fill-rule="evenodd" clip-rule="evenodd" d="M273.655 22.7751C277.851 25.6954 278.883 31.4605 275.962 35.6566C273.045 39.85 267.274 40.8816 263.081 37.964C258.887 35.0437 257.853 29.2786 260.773 25.0852C263.694 20.8891 269.461 19.8547 273.655 22.7751Z" fill="url(#paint51_radial_1_2267)"/>
<defs>
<radialGradient id="paint0_radial_1_2267" cx="0" cy="0" r="1" gradientUnits="userSpaceOnUse" gradientTransform="translate(269.031 91.4287) rotate(-55.1605) scale(1.80708 1.80709)">
<stop stop-color="white"/>
<stop offset="0.17" stop-color="#CCCCCC"/>
<stop offset="0.47" stop-color="#757575"/>
<stop offset="0.72" stop-color="#363636"/>
<stop offset="0.91" stop-color="#0E0E0E"/>
<stop offset="1"/>
</radialGradient>
<radialGradient id="paint1_radial_1_2267" cx="0" cy="0" r="1" gradientUnits="userSpaceOnUse" gradientTransform="translate(286.004 21.7933) rotate(-55.1605) scale(1.80708 1.80709)">
<stop stop-color="white"/>
<stop offset="0.17" stop-color="#CCCCCC"/>
<stop offset="0.47" stop-color="#757575"/>
<stop offset="0.72" stop-color="#363636"/>
<stop offset="0.91" stop-color="#0E0E0E"/>
<stop offset="1"/>
</radialGradient>
<radialGradient id="paint2_radial_1_2267" cx="0" cy="0" r="1" gradientUnits="userSpaceOnUse" gradientTransform="translate(242.128 152.103) rotate(-55.1605) scale(3.57095)">
<stop stop-color="white"/>
<stop offset="0.17" stop-color="#CCCCCC"/>
<stop offset="0.47" stop-color="#757575"/>
<stop offset="0.72" stop-color="#363636"/>
<stop offset="0.91" stop-color="#0E0E0E"/>
<stop offset="1"/>
</radialGradient>
<radialGradient id="paint3_radial_1_2267" cx="0" cy="0" r="1" gradientUnits="userSpaceOnUse" gradientTransform="translate(138.923 281.054) rotate(-55.1606) scale(3.57095 3.57094)">
<stop stop-color="white"/>
<stop offset="0.17" stop-color="#CCCCCC"/>
<stop offset="0.47" stop-color="#757575"/>
<stop offset="0.72" stop-color="#363636"/>
<stop offset="0.91" stop-color="#0E0E0E"/>
<stop offset="1"/>
</radialGradient>
<radialGradient id="paint4_radial_1_2267" cx="0" cy="0" r="1" gradientUnits="userSpaceOnUse" gradientTransform="translate(124.67 224.892) rotate(-55.1605) scale(3.57095)">
<stop stop-color="white"/>
<stop offset="0.17" stop-color="#CCCCCC"/>
<stop offset="0.47" stop-color="#757575"/>
<stop offset="0.72" stop-color="#363636"/>
<stop offset="0.91" stop-color="#0E0E0E"/>
<stop offset="1"/>
</radialGradient>
<radialGradient id="paint5_radial_1_2267" cx="0" cy="0" r="1" gradientUnits="userSpaceOnUse" gradientTransform="translate(20.5058 226.263) rotate(-55.1605) scale(3.57095)">
<stop stop-color="white"/>
<stop offset="0.17" stop-color="#CCCCCC"/>
<stop offset="0.47" stop-color="#757575"/>
<stop offset="0.72" stop-color="#363636"/>
<stop offset="0.91" stop-color="#0E0E0E"/>
<stop offset="1"/>
</radialGradient>
<radialGradient id="paint6_radial_1_2267" cx="0" cy="0" r="1" gradientUnits="userSpaceOnUse" gradientTransform="translate(121.448 158.23) rotate(-55.1605) scale(3.57095)">
<stop stop-color="white"/>
<stop offset="0.17" stop-color="#CCCCCC"/>
<stop offset="0.47" stop-color="#757575"/>
<stop offset="0.72" stop-color="#363636"/>
<stop offset="0.91" stop-color="#0E0E0E"/>
<stop offset="1"/>
</radialGradient>
<radialGradient id="paint7_radial_1_2267" cx="0" cy="0" r="1" gradientUnits="userSpaceOnUse" gradientTransform="translate(261.722 34.2598) rotate(-55.1606) scale(3.57095)">
<stop stop-color="white"/>
<stop offset="0.17" stop-color="#CCCCCC"/>
<stop offset="0.47" stop-color="#757575"/>
<stop offset="0.72" stop-color="#363636"/>
<stop offset="0.91" stop-color="#0E0E0E"/>
<stop offset="1"/>
</radialGradient>
<radialGradient id="paint8_radial_1_2267" cx="0" cy="0" r="1" gradientUnits="userSpaceOnUse" gradientTransform="translate(285.895 323.898) rotate(-55.1606) scale(3.57095)">
<stop stop-color="white"/>
<stop offset="0.17" stop-color="#CCCCCC"/>
<stop offset="0.47" stop-color="#757575"/>
<stop offset="0.72" stop-color="#363636"/>
<stop offset="0.91" stop-color="#0E0E0E"/>
<stop offset="1"/>
</radialGradient>
<radialGradient id="paint9_radial_1_2267" cx="0" cy="0" r="1" gradientUnits="userSpaceOnUse" gradientTransform="translate(275.202 307.37) rotate(-55.1605) scale(3.57095)">
<stop stop-color="white"/>
<stop offset="0.17" stop-color="#CCCCCC"/>
<stop offset="0.47" stop-color="#757575"/>
<stop offset="0.72" stop-color="#363636"/>
<stop offset="0.91" stop-color="#0E0E0E"/>
<stop offset="1"/>
</radialGradient>
<radialGradient id="paint10_radial_1_2267" cx="0" cy="0" r="1" gradientUnits="userSpaceOnUse" gradientTransform="translate(275.307 162.373) rotate(-55.1605) scale(3.57095)">
<stop stop-color="white"/>
<stop offset="0.17" stop-color="#CCCCCC"/>
<stop offset="0.47" stop-color="#757575"/>
<stop offset="0.72" stop-color="#363636"/>
<stop offset="0.91" stop-color="#0E0E0E"/>
<stop offset="1"/>
</radialGradient>
<radialGradient id="paint11_radial_1_2267" cx="0" cy="0" r="1" gradientUnits="userSpaceOnUse" gradientTransform="translate(244.03 339.754) rotate(-55.1605) scale(3.57095)">
<stop stop-color="white"/>
<stop offset="0.17" stop-color="#CCCCCC"/>
<stop offset="0.47" stop-color="#757575"/>
<stop offset="0.72" stop-color="#363636"/>
<stop offset="0.91" stop-color="#0E0E0E"/>
<stop offset="1"/>
</radialGradient>
<radialGradient id="paint12_radial_1_2267" cx="0" cy="0" r="1" gradientUnits="userSpaceOnUse" gradientTransform="translate(261.608 161.382) rotate(-54.3606) scale(3.57095 3.57094)">
<stop stop-color="white"/>
<stop offset="0.17" stop-color="#CCCCCC"/>
<stop offset="0.47" stop-color="#757575"/>
<stop offset="0.72" stop-color="#363636"/>
<stop offset="0.91" stop-color="#0E0E0E"/>
<stop offset="1"/>
</radialGradient>
<radialGradient id="paint13_radial_1_2267" cx="0" cy="0" r="1" gradientUnits="userSpaceOnUse" gradientTransform="translate(275.231 251.3) rotate(-54.3606) scale(3.57094 3.57094)">
<stop stop-color="white"/>
<stop offset="0.17" stop-color="#CCCCCC"/>
<stop offset="0.47" stop-color="#757575"/>
<stop offset="0.72" stop-color="#363636"/>
<stop offset="0.91" stop-color="#0E0E0E"/>
<stop offset="1"/>
</radialGradient>
<radialGradient id="paint14_radial_1_2267" cx="0" cy="0" r="1" gradientUnits="userSpaceOnUse" gradientTransform="translate(277.623 106.176) rotate(-54.3604) scale(3.57094 3.57095)">
<stop stop-color="white"/>
<stop offset="0.17" stop-color="#CCCCCC"/>
<stop offset="0.47" stop-color="#757575"/>
<stop offset="0.72" stop-color="#363636"/>
<stop offset="0.91" stop-color="#0E0E0E"/>
<stop offset="1"/>
</radialGradient>
<radialGradient id="paint15_radial_1_2267" cx="0" cy="0" r="1" gradientUnits="userSpaceOnUse" gradientTransform="translate(205.186 211.858) rotate(-55.1605) scale(3.57095)">
<stop stop-color="white"/>
<stop offset="0.17" stop-color="#CCCCCC"/>
<stop offset="0.47" stop-color="#757575"/>
<stop offset="0.72" stop-color="#363636"/>
<stop offset="0.91" stop-color="#0E0E0E"/>
<stop offset="1"/>
</radialGradient>
<radialGradient id="paint16_radial_1_2267" cx="0" cy="0" r="1" gradientUnits="userSpaceOnUse" gradientTransform="translate(181.569 136.926) rotate(-55.1606) scale(3.57095)">
<stop stop-color="white"/>
<stop offset="0.17" stop-color="#CCCCCC"/>
<stop offset="0.47" stop-color="#757575"/>
<stop offset="0.72" stop-color="#363636"/>
<stop offset="0.91" stop-color="#0E0E0E"/>
<stop offset="1"/>
</radialGradient>
<radialGradient id="paint17_radial_1_2267" cx="0" cy="0" r="1" gradientUnits="userSpaceOnUse" gradientTransform="translate(242.988 189.425) rotate(-55.1606) scale(1.80708 1.80708)">
<stop stop-color="white"/>
<stop offset="0.17" stop-color="#CCCCCC"/>
<stop offset="0.47" stop-color="#757575"/>
<stop offset="0.72" stop-color="#363636"/>
<stop offset="0.91" stop-color="#0E0E0E"/>
<stop offset="1"/>
</radialGradient>
<radialGradient id="paint18_radial_1_2267" cx="0" cy="0" r="1" gradientUnits="userSpaceOnUse" gradientTransform="translate(257.048 226.935) rotate(-55.1605) scale(1.80708 1.80709)">
<stop stop-color="white"/>
<stop offset="0.17" stop-color="#CCCCCC"/>
<stop offset="0.47" stop-color="#757575"/>
<stop offset="0.72" stop-color="#363636"/>
<stop offset="0.91" stop-color="#0E0E0E"/>
<stop offset="1"/>
</radialGradient>
<radialGradient id="paint19_radial_1_2267" cx="0" cy="0" r="1" gradientUnits="userSpaceOnUse" gradientTransform="translate(186.877 250.295) rotate(-55.1606) scale(1.80438 1.80438)">
<stop stop-color="white"/>
<stop offset="0.17" stop-color="#CCCCCC"/>
<stop offset="0.47" stop-color="#757575"/>
<stop offset="0.72" stop-color="#363636"/>
<stop offset="0.91" stop-color="#0E0E0E"/>
<stop offset="1"/>
</radialGradient>
<radialGradient id="paint20_radial_1_2267" cx="0" cy="0" r="1" gradientUnits="userSpaceOnUse" gradientTransform="translate(236.911 277.728) rotate(-55.1607) scale(1.80708 1.80708)">
<stop stop-color="white"/>
<stop offset="0.17" stop-color="#CCCCCC"/>
<stop offset="0.47" stop-color="#757575"/>
<stop offset="0.72" stop-color="#363636"/>
<stop offset="0.91" stop-color="#0E0E0E"/>
<stop offset="1"/>
</radialGradient>
<radialGradient id="paint21_radial_1_2267" cx="0" cy="0" r="1" gradientUnits="userSpaceOnUse" gradientTransform="translate(287.6 163.119) rotate(-55.1605) scale(1.80708 1.80709)">
<stop stop-color="white"/>
<stop offset="0.17" stop-color="#CCCCCC"/>
<stop offset="0.47" stop-color="#757575"/>
<stop offset="0.72" stop-color="#363636"/>
<stop offset="0.91" stop-color="#0E0E0E"/>
<stop offset="1"/>
</radialGradient>
<radialGradient id="paint22_radial_1_2267" cx="0" cy="0" r="1" gradientUnits="userSpaceOnUse" gradientTransform="translate(266.736 152.994) rotate(-55.1605) scale(1.80438)">
<stop stop-color="white"/>
<stop offset="0.17" stop-color="#CCCCCC"/>
<stop offset="0.47" stop-color="#757575"/>
<stop offset="0.72" stop-color="#363636"/>
<stop offset="0.91" stop-color="#0E0E0E"/>
<stop offset="1"/>
</radialGradient>
<radialGradient id="paint23_radial_1_2267" cx="0" cy="0" r="1" gradientUnits="userSpaceOnUse" gradientTransform="translate(260.449 165.682) rotate(-55.1605) scale(1.80708 1.80709)">
<stop stop-color="white"/>
<stop offset="0.17" stop-color="#CCCCCC"/>
<stop offset="0.47" stop-color="#757575"/>
<stop offset="0.72" stop-color="#363636"/>
<stop offset="0.91" stop-color="#0E0E0E"/>
<stop offset="1"/>
</radialGradient>
<radialGradient id="paint24_radial_1_2267" cx="0" cy="0" r="1" gradientUnits="userSpaceOnUse" gradientTransform="translate(282.186 154.948) rotate(-55.1605) scale(1.80708 1.80709)">
<stop stop-color="white"/>
<stop offset="0.17" stop-color="#CCCCCC"/>
<stop offset="0.47" stop-color="#757575"/>
<stop offset="0.72" stop-color="#363636"/>
<stop offset="0.91" stop-color="#0E0E0E"/>
<stop offset="1"/>
</radialGradient>
<radialGradient id="paint25_radial_1_2267" cx="0" cy="0" r="1" gradientUnits="userSpaceOnUse" gradientTransform="translate(288.231 44.1783) rotate(-55.1607) scale(1.80708 1.80708)">
<stop stop-color="white"/>
<stop offset="0.17" stop-color="#CCCCCC"/>
<stop offset="0.47" stop-color="#757575"/>
<stop offset="0.72" stop-color="#363636"/>
<stop offset="0.91" stop-color="#0E0E0E"/>
<stop offset="1"/>
</radialGradient>
<radialGradient id="paint26_radial_1_2267" cx="0" cy="0" r="1" gradientUnits="userSpaceOnUse" gradientTransform="translate(158.232 186.211) rotate(-55.1605) scale(1.80708 1.80709)">
<stop stop-color="white"/>
<stop offset="0.17" stop-color="#CCCCCC"/>
<stop offset="0.47" stop-color="#757575"/>
<stop offset="0.72" stop-color="#363636"/>
<stop offset="0.91" stop-color="#0E0E0E"/>
<stop offset="1"/>
</radialGradient>
<radialGradient id="paint27_radial_1_2267" cx="0" cy="0" r="1" gradientUnits="userSpaceOnUse" gradientTransform="translate(288.673 177.384) rotate(-49.3807) scale(1.80708 1.80708)">
<stop stop-color="white"/>
<stop offset="0.17" stop-color="#CCCCCC"/>
<stop offset="0.47" stop-color="#757575"/>
<stop offset="0.72" stop-color="#363636"/>
<stop offset="0.91" stop-color="#0E0E0E"/>
<stop offset="1"/>
</radialGradient>
<radialGradient id="paint28_radial_1_2267" cx="0" cy="0" r="1" gradientUnits="userSpaceOnUse" gradientTransform="translate(131.23 336.022) rotate(-49.3805) scale(1.80709)">
<stop stop-color="white"/>
<stop offset="0.17" stop-color="#CCCCCC"/>
<stop offset="0.47" stop-color="#757575"/>
<stop offset="0.72" stop-color="#363636"/>
<stop offset="0.91" stop-color="#0E0E0E"/>
<stop offset="1"/>
</radialGradient>
<radialGradient id="paint29_radial_1_2267" cx="0" cy="0" r="1" gradientUnits="userSpaceOnUse" gradientTransform="translate(193.979 344.835) rotate(-49.3807) scale(1.80708 1.80708)">
<stop stop-color="white"/>
<stop offset="0.17" stop-color="#CCCCCC"/>
<stop offset="0.47" stop-color="#757575"/>
<stop offset="0.72" stop-color="#363636"/>
<stop offset="0.91" stop-color="#0E0E0E"/>
<stop offset="1"/>
</radialGradient>
<radialGradient id="paint30_radial_1_2267" cx="0" cy="0" r="1" gradientUnits="userSpaceOnUse" gradientTransform="translate(70.4709 290.704) rotate(-49.3805) scale(1.80709)">
<stop stop-color="white"/>
<stop offset="0.17" stop-color="#CCCCCC"/>
<stop offset="0.47" stop-color="#757575"/>
<stop offset="0.72" stop-color="#363636"/>
<stop offset="0.91" stop-color="#0E0E0E"/>
<stop offset="1"/>
</radialGradient>
<radialGradient id="paint31_radial_1_2267" cx="0" cy="0" r="1" gradientUnits="userSpaceOnUse" gradientTransform="translate(2.02296 289.337) rotate(-49.3804) scale(1.80708 1.80709)">
<stop stop-color="white"/>
<stop offset="0.17" stop-color="#CCCCCC"/>
<stop offset="0.47" stop-color="#757575"/>
<stop offset="0.72" stop-color="#363636"/>
<stop offset="0.91" stop-color="#0E0E0E"/>
<stop offset="1"/>
</radialGradient>
<radialGradient id="paint32_radial_1_2267" cx="0" cy="0" r="1" gradientUnits="userSpaceOnUse" gradientTransform="translate(93.4765 128.112) rotate(-49.3806) scale(1.80709)">
<stop stop-color="white"/>
<stop offset="0.17" stop-color="#CCCCCC"/>
<stop offset="0.47" stop-color="#757575"/>
<stop offset="0.72" stop-color="#363636"/>
<stop offset="0.91" stop-color="#0E0E0E"/>
<stop offset="1"/>
</radialGradient>
<radialGradient id="paint33_radial_1_2267" cx="0" cy="0" r="1" gradientUnits="userSpaceOnUse" gradientTransform="translate(191.442 33.6747) rotate(-49.3803) scale(1.8071 1.8071)">
<stop stop-color="white"/>
<stop offset="0.17" stop-color="#CCCCCC"/>
<stop offset="0.47" stop-color="#757575"/>
<stop offset="0.72" stop-color="#363636"/>
<stop offset="0.91" stop-color="#0E0E0E"/>
<stop offset="1"/>
</radialGradient>
<radialGradient id="paint34_radial_1_2267" cx="0" cy="0" r="1" gradientUnits="userSpaceOnUse" gradientTransform="translate(103.082 28.9473) rotate(-49.3808) scale(1.80708 1.80708)">
<stop stop-color="white"/>
<stop offset="0.17" stop-color="#CCCCCC"/>
<stop offset="0.47" stop-color="#757575"/>
<stop offset="0.72" stop-color="#363636"/>
<stop offset="0.91" stop-color="#0E0E0E"/>
<stop offset="1"/>
</radialGradient>
<radialGradient id="paint35_radial_1_2267" cx="0" cy="0" r="1" gradientUnits="userSpaceOnUse" gradientTransform="translate(110.243 75.0452) rotate(-49.3806) scale(1.80709)">
<stop stop-color="white"/>
<stop offset="0.17" stop-color="#CCCCCC"/>
<stop offset="0.47" stop-color="#757575"/>
<stop offset="0.72" stop-color="#363636"/>
<stop offset="0.91" stop-color="#0E0E0E"/>
<stop offset="1"/>
</radialGradient>
<radialGradient id="paint36_radial_1_2267" cx="0" cy="0" r="1" gradientUnits="userSpaceOnUse" gradientTransform="translate(289.486 124.25) rotate(-55.1605) scale(9.25422)">
<stop stop-color="white"/>
<stop offset="0.17" stop-color="#CCCCCC"/>
<stop offset="0.47" stop-color="#757575"/>
<stop offset="0.72" stop-color="#363636"/>
<stop offset="0.91" stop-color="#0E0E0E"/>
<stop offset="1"/>
</radialGradient>
<radialGradient id="paint37_radial_1_2267" cx="0" cy="0" r="1" gradientUnits="userSpaceOnUse" gradientTransform="translate(153.631 167.535) rotate(-55.1606) scale(9.25421 9.25421)">
<stop stop-color="white"/>
<stop offset="0.17" stop-color="#CCCCCC"/>
<stop offset="0.47" stop-color="#757575"/>
<stop offset="0.72" stop-color="#363636"/>
<stop offset="0.91" stop-color="#0E0E0E"/>
<stop offset="1"/>
</radialGradient>
<radialGradient id="paint38_radial_1_2267" cx="0" cy="0" r="1" gradientUnits="userSpaceOnUse" gradientTransform="translate(281.812 329.758) rotate(-55.1606) scale(9.25421 9.2542)">
<stop stop-color="white"/>
<stop offset="0.17" stop-color="#CCCCCC"/>
<stop offset="0.47" stop-color="#757575"/>
<stop offset="0.72" stop-color="#363636"/>
<stop offset="0.91" stop-color="#0E0E0E"/>
<stop offset="1"/>
</radialGradient>
<radialGradient id="paint39_radial_1_2267" cx="0" cy="0" r="1" gradientUnits="userSpaceOnUse" gradientTransform="translate(283.926 210.684) rotate(-55.1605) scale(9.25422 9.25422)">
<stop stop-color="white"/>
<stop offset="0.17" stop-color="#CCCCCC"/>
<stop offset="0.47" stop-color="#757575"/>
<stop offset="0.72" stop-color="#363636"/>
<stop offset="0.91" stop-color="#0E0E0E"/>
<stop offset="1"/>
</radialGradient>
<radialGradient id="paint40_radial_1_2267" cx="0" cy="0" r="1" gradientUnits="userSpaceOnUse" gradientTransform="translate(227.598 178.715) rotate(-55.1606) scale(9.25421 9.2542)">
<stop stop-color="white"/>
<stop offset="0.17" stop-color="#CCCCCC"/>
<stop offset="0.47" stop-color="#757575"/>
<stop offset="0.72" stop-color="#363636"/>
<stop offset="0.91" stop-color="#0E0E0E"/>
<stop offset="1"/>
</radialGradient>
<radialGradient id="paint41_radial_1_2267" cx="0" cy="0" r="1" gradientUnits="userSpaceOnUse" gradientTransform="translate(184.683 310.449) rotate(-55.1605) scale(9.25421 9.25421)">
<stop stop-color="white"/>
<stop offset="0.17" stop-color="#CCCCCC"/>
<stop offset="0.47" stop-color="#757575"/>
<stop offset="0.72" stop-color="#363636"/>
<stop offset="0.91" stop-color="#0E0E0E"/>
<stop offset="1"/>
</radialGradient>
<radialGradient id="paint42_radial_1_2267" cx="0" cy="0" r="1" gradientUnits="userSpaceOnUse" gradientTransform="translate(205.403 51.7918) rotate(-55.1606) scale(9.25421 9.2542)">
<stop stop-color="white"/>
<stop offset="0.17" stop-color="#CCCCCC"/>
<stop offset="0.47" stop-color="#757575"/>
<stop offset="0.72" stop-color="#363636"/>
<stop offset="0.91" stop-color="#0E0E0E"/>
<stop offset="1"/>
</radialGradient>
<radialGradient id="paint43_radial_1_2267" cx="0" cy="0" r="1" gradientUnits="userSpaceOnUse" gradientTransform="translate(296.732 43.8765) rotate(-55.1606) scale(9.2542 9.2542)">
<stop stop-color="white"/>
<stop offset="0.17" stop-color="#CCCCCC"/>
<stop offset="0.47" stop-color="#757575"/>
<stop offset="0.72" stop-color="#363636"/>
<stop offset="0.91" stop-color="#0E0E0E"/>
<stop offset="1"/>
</radialGradient>
<radialGradient id="paint44_radial_1_2267" cx="0" cy="0" r="1" gradientUnits="userSpaceOnUse" gradientTransform="translate(241.156 56.2772) rotate(-55.1606) scale(9.2542 9.2542)">
<stop stop-color="white"/>
<stop offset="0.17" stop-color="#CCCCCC"/>
<stop offset="0.47" stop-color="#757575"/>
<stop offset="0.72" stop-color="#363636"/>
<stop offset="0.91" stop-color="#0E0E0E"/>
<stop offset="1"/>
</radialGradient>
<radialGradient id="paint45_radial_1_2267" cx="0" cy="0" r="1" gradientUnits="userSpaceOnUse" gradientTransform="translate(258.474 167.914) rotate(-55.1605) scale(9.25421 9.25421)">
<stop stop-color="white"/>
<stop offset="0.17" stop-color="#CCCCCC"/>
<stop offset="0.47" stop-color="#757575"/>
<stop offset="0.72" stop-color="#363636"/>
<stop offset="0.91" stop-color="#0E0E0E"/>
<stop offset="1"/>
</radialGradient>
<radialGradient id="paint46_radial_1_2267" cx="0" cy="0" r="1" gradientUnits="userSpaceOnUse" gradientTransform="translate(291.496 159.572) rotate(-55.1606) scale(9.2542 9.2542)">
<stop stop-color="white"/>
<stop offset="0.17" stop-color="#CCCCCC"/>
<stop offset="0.47" stop-color="#757575"/>
<stop offset="0.72" stop-color="#363636"/>
<stop offset="0.91" stop-color="#0E0E0E"/>
<stop offset="1"/>
</radialGradient>
<radialGradient id="paint47_radial_1_2267" cx="0" cy="0" r="1" gradientUnits="userSpaceOnUse" gradientTransform="translate(270.409 275.191) rotate(-55.1605) scale(9.25422 9.25422)">
<stop stop-color="white"/>
<stop offset="0.17" stop-color="#CCCCCC"/>
<stop offset="0.47" stop-color="#757575"/>
<stop offset="0.72" stop-color="#363636"/>
<stop offset="0.91" stop-color="#0E0E0E"/>
<stop offset="1"/>
</radialGradient>
<radialGradient id="paint48_radial_1_2267" cx="0" cy="0" r="1" gradientUnits="userSpaceOnUse" gradientTransform="translate(269.714 90.443) rotate(-55.1606) scale(9.25422)">
<stop stop-color="white"/>
<stop offset="0.17" stop-color="#CCCCCC"/>
<stop offset="0.47" stop-color="#757575"/>
<stop offset="0.72" stop-color="#363636"/>
<stop offset="0.91" stop-color="#0E0E0E"/>
<stop offset="1"/>
</radialGradient>
<radialGradient id="paint49_radial_1_2267" cx="0" cy="0" r="1" gradientUnits="userSpaceOnUse" gradientTransform="translate(200.17 105.84) rotate(-55.1605) scale(9.25421 9.25421)">
<stop stop-color="white"/>
<stop offset="0.17" stop-color="#CCCCCC"/>
<stop offset="0.47" stop-color="#757575"/>
<stop offset="0.72" stop-color="#363636"/>
<stop offset="0.91" stop-color="#0E0E0E"/>
<stop offset="1"/>
</radialGradient>
<radialGradient id="paint50_radial_1_2267" cx="0" cy="0" r="1" gradientUnits="userSpaceOnUse" gradientTransform="translate(166.461 69.597) rotate(-55.1606) scale(9.25421 9.25421)">
<stop stop-color="white"/>
<stop offset="0.17" stop-color="#CCCCCC"/>
<stop offset="0.47" stop-color="#757575"/>
<stop offset="0.72" stop-color="#363636"/>
<stop offset="0.91" stop-color="#0E0E0E"/>
<stop offset="1"/>
</radialGradient>
<radialGradient id="paint51_radial_1_2267" cx="0" cy="0" r="1" gradientUnits="userSpaceOnUse" gradientTransform="translate(268.368 30.352) rotate(-55.1605) scale(9.25422 9.25422)">
<stop stop-color="white"/>
<stop offset="0.17" stop-color="#CCCCCC"/>
<stop offset="0.47" stop-color="#757575"/>
<stop offset="0.72" stop-color="#363636"/>
<stop offset="0.91" stop-color="#0E0E0E"/>
<stop offset="1"/>
</radialGradient>
</defs>
</svg>
