<svg width="260" height="408" viewBox="0 0 260 408" fill="none" xmlns="http://www.w3.org/2000/svg">
<path style="mix-blend-mode:color-dodge" fill-rule="evenodd" clip-rule="evenodd" d="M3.72179 363.789C5.60819 365.1 6.07155 367.691 4.75973 369.577C3.44793 371.461 0.8572 371.927 -1.0292 370.615C-2.91244 369.304 -3.37573 366.713 -2.06706 364.827C-0.755242 362.94 1.8354 362.477 3.72179 363.789Z" fill="url(#paint0_radial_1_43794)"/>
<path style="mix-blend-mode:color-dodge" fill-rule="evenodd" clip-rule="evenodd" d="M34.5369 334.073C36.4201 335.385 36.8866 337.976 35.5748 339.862C34.263 341.745 31.6724 342.212 29.786 340.9C27.9027 339.588 27.4362 336.997 28.748 335.111C30.0598 333.228 32.6536 332.761 34.5369 334.073Z" fill="url(#paint1_radial_1_43794)"/>
<path style="mix-blend-mode:color-dodge" fill-rule="evenodd" clip-rule="evenodd" d="M85.3338 381.402C87.217 382.714 87.6835 385.304 86.3685 387.191C85.0567 389.077 82.4661 389.54 80.5797 388.229C78.6964 386.917 78.2299 384.326 79.5417 382.44C80.8535 380.553 83.4443 380.09 85.3306 381.402L85.3338 381.402Z" fill="url(#paint2_radial_1_43794)"/>
<path style="mix-blend-mode:color-dodge" fill-rule="evenodd" clip-rule="evenodd" d="M106.446 71.8819C108.71 72.2669 110.235 74.4144 109.85 76.6782C109.465 78.942 107.318 80.467 105.054 80.082C102.79 79.697 101.268 77.5495 101.65 75.2857C102.035 73.0219 104.182 71.4969 106.446 71.8819Z" fill="url(#paint3_radial_1_43794)"/>
<path style="mix-blend-mode:color-dodge" fill-rule="evenodd" clip-rule="evenodd" d="M59.4522 106.178C61.716 106.563 63.241 108.71 62.856 110.974C62.471 113.238 60.3236 114.76 58.0598 114.375C55.7959 113.99 54.274 111.842 54.6559 109.579C55.0409 107.315 57.1883 105.79 59.4522 106.175L59.4522 106.178Z" fill="url(#paint4_radial_1_43794)"/>
<path style="mix-blend-mode:color-dodge" fill-rule="evenodd" clip-rule="evenodd" d="M199.606 331.849C201.49 333.161 201.956 335.755 200.644 337.638C199.332 339.521 196.739 339.988 194.855 338.673C192.972 337.361 192.506 334.77 193.82 332.887C195.132 331.001 197.723 330.537 199.609 331.849L199.606 331.849Z" fill="url(#paint5_radial_1_43794)"/>
<path style="mix-blend-mode:color-dodge" fill-rule="evenodd" clip-rule="evenodd" d="M50.5384 36.8128C52.4058 38.1497 52.8345 40.7497 51.4944 42.6172C50.1575 44.4815 47.5575 44.9101 45.6932 43.5732C43.8258 42.2363 43.4002 39.6395 44.7371 37.7721C46.074 35.9046 48.674 35.4759 50.5414 36.8128L50.5384 36.8128Z" fill="url(#paint6_radial_1_43794)"/>
<path style="mix-blend-mode:color-dodge" fill-rule="evenodd" clip-rule="evenodd" d="M45.4938 66.7228C47.3581 68.0597 47.7868 70.6597 46.4499 72.5272C45.1129 74.3946 42.513 74.8202 40.6487 73.4832C38.7812 72.1463 38.3525 69.5495 39.6926 67.6821C41.0295 65.8146 43.6263 65.3859 45.4969 66.7228L45.4938 66.7228Z" fill="url(#paint7_radial_1_43794)"/>
<path style="mix-blend-mode:color-dodge" fill-rule="evenodd" clip-rule="evenodd" d="M45.7971 85.7912C47.6645 87.1313 48.0932 89.7281 46.7531 91.5955C45.4162 93.463 42.8162 93.8885 40.952 92.5516C39.0877 91.2147 38.6559 88.6179 39.9959 86.7504C41.3328 84.883 43.9328 84.4543 45.7971 85.7912Z" fill="url(#paint8_radial_1_43794)"/>
<path style="mix-blend-mode:color-dodge" fill-rule="evenodd" clip-rule="evenodd" d="M8.55343 35.2512C10.4177 36.5881 10.8496 39.1881 9.50953 41.0555C8.1726 42.9229 5.57264 43.3485 3.70835 42.0116C1.84091 40.6746 1.41532 38.0778 2.75224 36.2104C4.08917 34.343 6.68914 33.9143 8.55342 35.2543L8.55343 35.2512Z" fill="url(#paint9_radial_1_43794)"/>
<path style="mix-blend-mode:color-dodge" fill-rule="evenodd" clip-rule="evenodd" d="M114.001 382.603C115.868 383.94 116.297 386.54 114.957 388.408C113.62 390.275 111.02 390.701 109.155 389.364C107.288 388.027 106.859 385.43 108.199 383.563C109.536 381.695 112.136 381.267 114.001 382.603Z" fill="url(#paint10_radial_1_43794)"/>
<path style="mix-blend-mode:color-dodge" fill-rule="evenodd" clip-rule="evenodd" d="M122.43 399.68C124.298 401.017 124.727 403.617 123.386 405.485C122.05 407.352 119.45 407.778 117.585 406.441C115.721 405.104 115.289 402.504 116.629 400.64C117.969 398.772 120.566 398.343 122.434 399.68L122.43 399.68Z" fill="url(#paint11_radial_1_43794)"/>
<path style="mix-blend-mode:color-dodge" fill-rule="evenodd" clip-rule="evenodd" d="M3.27393 345.666C5.15718 346.978 5.62368 349.572 4.31187 351.455C3.00006 353.338 0.406265 353.805 -1.47699 352.493C-3.36023 351.181 -3.82675 348.591 -2.51493 346.704C-1.20311 344.818 1.38753 344.354 3.27393 345.666Z" fill="url(#paint12_radial_1_43794)"/>
<path style="mix-blend-mode:color-dodge" fill-rule="evenodd" clip-rule="evenodd" d="M22.3687 320.92C23.3229 321.583 23.5576 322.896 22.8938 323.847C22.23 324.801 20.9173 325.036 19.9663 324.372C19.0121 323.708 18.7774 322.399 19.4443 321.445C20.1081 320.491 21.4177 320.256 22.3718 320.92L22.3687 320.92Z" fill="url(#paint13_radial_1_43794)"/>
<path style="mix-blend-mode:color-dodge" fill-rule="evenodd" clip-rule="evenodd" d="M41.9971 309.465C42.9513 310.129 43.186 311.442 42.5222 312.393C41.8584 313.347 40.5489 313.579 39.5947 312.918C38.6405 312.254 38.4058 310.945 39.0696 309.99C39.7334 309.036 41.0461 308.801 41.9971 309.465Z" fill="url(#paint14_radial_1_43794)"/>
<path style="mix-blend-mode:color-dodge" fill-rule="evenodd" clip-rule="evenodd" d="M126.73 388.84C127.684 389.504 127.919 390.813 127.255 391.767C126.592 392.721 125.279 392.956 124.328 392.292C123.374 391.629 123.139 390.319 123.803 389.365C124.467 388.411 125.779 388.176 126.73 388.84Z" fill="url(#paint15_radial_1_43794)"/>
<path style="mix-blend-mode:color-dodge" fill-rule="evenodd" clip-rule="evenodd" d="M36.001 76.0627C36.9552 76.7265 37.19 78.0392 36.5261 78.9934C35.8623 79.9476 34.5528 80.1823 33.5986 79.5185C32.6445 78.8547 32.4097 77.5452 33.0735 76.591C33.7373 75.6368 35.0468 75.4021 36.001 76.0659L36.001 76.0627Z" fill="url(#paint16_radial_1_43794)"/>
<path style="mix-blend-mode:color-dodge" fill-rule="evenodd" clip-rule="evenodd" d="M2.94927 197.213C3.90345 197.876 4.13819 199.189 3.47439 200.14C2.81058 201.094 1.49792 201.329 0.546879 200.665C-0.407304 200.001 -0.642053 198.692 0.0217577 197.738C0.685568 196.784 1.99823 196.549 2.94927 197.213Z" fill="url(#paint17_radial_1_43794)"/>
<path style="mix-blend-mode:color-dodge" fill-rule="evenodd" clip-rule="evenodd" d="M59.652 88.1806C60.7965 88.3763 61.5669 89.461 61.3743 90.6055C61.1818 91.75 60.0939 92.5204 58.9494 92.3278C57.8049 92.1321 57.0346 91.0474 57.2271 89.9029C57.4228 88.7584 58.5075 87.9881 59.652 88.1806Z" fill="url(#paint18_radial_1_43794)"/>
<path style="mix-blend-mode:color-dodge" fill-rule="evenodd" clip-rule="evenodd" d="M51.3365 54.0376C52.2907 54.7014 52.5254 56.014 51.8616 56.9651C51.1978 57.9193 49.8851 58.154 48.9341 57.4902C47.9799 56.8264 47.7452 55.5169 48.409 54.5627C49.0728 53.6085 50.3823 53.3738 51.3365 54.0376Z" fill="url(#paint19_radial_1_43794)"/>
<path style="mix-blend-mode:color-dodge" fill-rule="evenodd" clip-rule="evenodd" d="M3.31377 45.032C4.26795 45.6958 4.50269 47.0084 3.83889 47.9595C3.17508 48.9136 1.86242 49.1484 0.911381 48.4846C-0.0428016 47.8208 -0.277551 46.5113 0.38626 45.5571C1.05007 44.6029 2.35959 44.3681 3.31377 45.032Z" fill="url(#paint20_radial_1_43794)"/>
<path style="mix-blend-mode:color-dodge" fill-rule="evenodd" clip-rule="evenodd" d="M33.1336 65.1028C34.0878 65.7666 34.3225 67.0761 33.6555 68.0302C32.9917 68.9844 31.6822 69.2192 30.728 68.5554C29.7738 67.8916 29.5391 66.5821 30.2029 65.6279C30.8667 64.6737 32.1794 64.439 33.1304 65.1028L33.1336 65.1028Z" fill="url(#paint21_radial_1_43794)"/>
<path style="mix-blend-mode:color-dodge" fill-rule="evenodd" clip-rule="evenodd" d="M97.8636 336.673C98.8177 337.336 99.0525 338.646 98.3887 339.6C97.7249 340.554 96.4154 340.789 95.4612 340.125C94.5071 339.461 94.2722 338.152 94.936 337.198C95.5998 336.244 96.9094 336.009 97.8636 336.673Z" fill="url(#paint22_radial_1_43794)"/>
<path style="mix-blend-mode:color-dodge" fill-rule="evenodd" clip-rule="evenodd" d="M96.0774 400.899C97.0316 401.562 97.2663 402.872 96.5994 403.826C95.9356 404.78 94.6261 405.015 93.6719 404.351C92.7177 403.687 92.4829 402.378 93.1467 401.424C93.8105 400.47 95.1201 400.235 96.0742 400.899L96.0774 400.899Z" fill="url(#paint23_radial_1_43794)"/>
<path style="mix-blend-mode:color-dodge" fill-rule="evenodd" clip-rule="evenodd" d="M31.5618 348.903C32.516 349.567 32.7507 350.876 32.0869 351.83C31.4231 352.784 30.1136 353.019 29.1594 352.355C28.2084 351.692 27.9736 350.382 28.6343 349.428C29.2981 348.474 30.6076 348.239 31.5618 348.903Z" fill="url(#paint24_radial_1_43794)"/>
<path style="mix-blend-mode:color-dodge" fill-rule="evenodd" clip-rule="evenodd" d="M198.314 345.544C199.268 346.207 199.502 347.517 198.839 348.471C198.175 349.425 196.865 349.66 195.911 348.996C194.957 348.332 194.722 347.023 195.386 346.069C196.05 345.115 197.359 344.88 198.314 345.544Z" fill="url(#paint25_radial_1_43794)"/>
<path style="mix-blend-mode:color-dodge" fill-rule="evenodd" clip-rule="evenodd" d="M236.492 325.152C237.446 325.816 237.681 327.128 237.017 328.079C236.353 329.034 235.044 329.268 234.089 328.604C233.135 327.941 232.9 326.631 233.564 325.677C234.228 324.723 235.538 324.488 236.492 325.152Z" fill="url(#paint26_radial_1_43794)"/>
<path style="mix-blend-mode:color-dodge" fill-rule="evenodd" clip-rule="evenodd" d="M215.737 325.448C216.691 326.112 216.926 327.421 216.262 328.375C215.598 329.33 214.285 329.564 213.334 328.901C212.38 328.237 212.145 326.927 212.809 325.973C213.473 325.019 214.782 324.784 215.737 325.448Z" fill="url(#paint27_radial_1_43794)"/>
<path style="mix-blend-mode:color-dodge" fill-rule="evenodd" clip-rule="evenodd" d="M72.9978 351.145C73.952 351.809 74.1868 353.119 73.523 354.073C72.8592 355.024 71.5496 355.259 70.5955 354.598C69.6413 353.934 69.4065 352.625 70.0703 351.67C70.7341 350.716 72.0468 350.481 72.9978 351.145Z" fill="url(#paint28_radial_1_43794)"/>
<path style="mix-blend-mode:color-dodge" fill-rule="evenodd" clip-rule="evenodd" d="M42.8891 1.48257C44.0336 1.67512 44.8039 2.76305 44.6114 3.90755C44.4157 5.05204 43.3309 5.82236 42.1864 5.62982C41.042 5.43413 40.2716 4.34934 40.4642 3.20484C40.6599 2.06035 41.7446 1.28689 42.8891 1.48257Z" fill="url(#paint29_radial_1_43794)"/>
<path style="mix-blend-mode:color-dodge" fill-rule="evenodd" clip-rule="evenodd" d="M44.2891 21.4447C45.4336 21.6373 46.2039 22.7252 46.0114 23.8697C45.8157 25.0142 44.7308 25.7876 43.5863 25.5919C42.4419 25.3962 41.6715 24.3115 41.8641 23.167C42.0598 22.0225 43.1446 21.2522 44.2891 21.4447Z" fill="url(#paint30_radial_1_43794)"/>
<path style="mix-blend-mode:color-dodge" fill-rule="evenodd" clip-rule="evenodd" d="M83.1987 86.5754C84.3432 86.7711 85.1135 87.8558 84.9209 89.0035C84.7253 90.148 83.6405 90.9183 82.496 90.7258C81.3515 90.5301 80.5812 89.4453 80.7737 88.3008C80.9663 87.1563 82.0542 86.386 83.1987 86.5786L83.1987 86.5754Z" fill="url(#paint31_radial_1_43794)"/>
<path style="mix-blend-mode:color-dodge" fill-rule="evenodd" clip-rule="evenodd" d="M29.2623 49.4547C30.2164 50.1185 30.4512 51.428 29.7874 52.3822C29.1236 53.3332 27.814 53.5711 26.8599 52.9073C25.9057 52.2435 25.6709 50.934 26.3347 49.9798C26.9986 49.0257 28.3081 48.7909 29.2623 49.4547Z" fill="url(#paint32_radial_1_43794)"/>
<path style="mix-blend-mode:color-dodge" fill-rule="evenodd" clip-rule="evenodd" d="M6.5621 336.635C7.44361 337.393 7.54618 338.721 6.78823 339.603C6.03343 340.484 4.70237 340.587 3.824 339.829C2.94248 339.071 2.8399 337.746 3.59786 336.861C4.35581 335.98 5.68058 335.877 6.5621 336.635Z" fill="url(#paint33_radial_1_43794)"/>
<path style="mix-blend-mode:color-dodge" fill-rule="evenodd" clip-rule="evenodd" d="M78.8721 398.9C79.7537 399.655 79.8531 400.983 79.0983 401.864C78.3403 402.746 77.0124 402.849 76.1341 402.091C75.2525 401.336 75.15 400.008 75.9079 399.126C76.6659 398.245 77.9906 398.142 78.8753 398.9L78.8721 398.9Z" fill="url(#paint34_radial_1_43794)"/>
<path style="mix-blend-mode:color-dodge" fill-rule="evenodd" clip-rule="evenodd" d="M12.6896 348.191C13.5711 348.949 13.6737 350.274 12.9158 351.159C12.1578 352.04 10.833 352.143 9.95144 351.385C9.06991 350.63 8.96734 349.302 9.72529 348.421C10.4801 347.539 11.8081 347.437 12.6896 348.191Z" fill="url(#paint35_radial_1_43794)"/>
<path style="mix-blend-mode:color-dodge" fill-rule="evenodd" clip-rule="evenodd" d="M140.618 396.118C141.499 396.873 141.602 398.201 140.844 399.085C140.086 399.967 138.761 400.07 137.879 399.312C136.998 398.557 136.895 397.229 137.653 396.347C138.408 395.466 139.736 395.363 140.618 396.121L140.618 396.118Z" fill="url(#paint36_radial_1_43794)"/>
<path style="mix-blend-mode:color-dodge" fill-rule="evenodd" clip-rule="evenodd" d="M176.886 360.839C177.768 361.594 177.871 362.922 177.113 363.806C176.358 364.688 175.03 364.79 174.148 364.033C173.267 363.275 173.167 361.95 173.922 361.065C174.677 360.184 176.005 360.081 176.886 360.839Z" fill="url(#paint37_radial_1_43794)"/>
<path style="mix-blend-mode:color-dodge" fill-rule="evenodd" clip-rule="evenodd" d="M186.118 345.752C187 346.507 187.102 347.835 186.344 348.717C185.589 349.598 184.261 349.701 183.38 348.943C182.498 348.188 182.396 346.86 183.154 345.978C183.909 345.097 185.24 344.994 186.121 345.752L186.118 345.752Z" fill="url(#paint38_radial_1_43794)"/>
<path style="mix-blend-mode:color-dodge" fill-rule="evenodd" clip-rule="evenodd" d="M108.288 375.431C109.17 376.186 109.272 377.514 108.514 378.399C107.76 379.28 106.432 379.383 105.55 378.625C104.669 377.87 104.566 376.542 105.324 375.661C106.079 374.779 107.407 374.677 108.288 375.435L108.288 375.431Z" fill="url(#paint39_radial_1_43794)"/>
<path style="mix-blend-mode:color-dodge" fill-rule="evenodd" clip-rule="evenodd" d="M166.555 349.799C167.436 350.557 167.539 351.882 166.781 352.767C166.023 353.648 164.698 353.751 163.817 352.993C162.935 352.235 162.836 350.91 163.59 350.028C164.348 349.147 165.676 349.044 166.555 349.799Z" fill="url(#paint40_radial_1_43794)"/>
<path style="mix-blend-mode:color-dodge" fill-rule="evenodd" clip-rule="evenodd" d="M36.9795 113.08C41.8634 116.481 43.0681 123.198 39.6669 128.085C36.2656 132.969 29.5482 134.171 24.6643 130.773C19.7804 127.372 18.5756 120.654 21.9737 115.773C25.3749 110.886 32.0924 109.682 36.9763 113.083L36.9795 113.08Z" fill="url(#paint41_radial_1_43794)"/>
<path style="mix-blend-mode:color-dodge" fill-rule="evenodd" clip-rule="evenodd" d="M68.0471 358.263C72.931 361.664 74.1357 368.382 70.7345 373.269C67.3333 378.153 60.6157 379.354 55.7318 375.956C50.8479 372.555 49.6432 365.841 53.0445 360.957C56.4457 356.07 63.16 354.865 68.0471 358.266L68.0471 358.263Z" fill="url(#paint42_radial_1_43794)"/>
<path style="mix-blend-mode:color-dodge" fill-rule="evenodd" clip-rule="evenodd" d="M78.8811 309.879C83.765 313.28 84.9697 319.998 81.5685 324.885C78.1672 329.769 71.4498 330.97 66.5659 327.572C61.682 324.171 60.4772 317.457 63.8784 312.573C67.2796 307.686 73.9972 306.484 78.8811 309.882L78.8811 309.879Z" fill="url(#paint43_radial_1_43794)"/>
<path style="mix-blend-mode:color-dodge" fill-rule="evenodd" clip-rule="evenodd" d="M53.0825 42.4486C57.9695 45.8498 59.1711 52.5673 55.7698 57.4543C52.3718 62.3382 45.6543 63.5398 40.7672 60.1417C35.8833 56.7405 34.6786 50.0262 38.0799 45.1391C41.4811 40.2521 48.1954 39.0505 53.0793 42.4485L53.0825 42.4486Z" fill="url(#paint44_radial_1_43794)"/>
<path style="mix-blend-mode:color-dodge" fill-rule="evenodd" clip-rule="evenodd" d="M22.0054 49.6222C26.8924 53.0234 28.094 59.7409 24.6927 64.6248C21.2947 69.5087 14.5772 70.7134 9.69015 67.3122C4.80625 63.911 3.60146 57.1967 7.00269 52.3096C10.4039 47.4226 17.1215 46.221 22.0054 49.619L22.0054 49.6222Z" fill="url(#paint45_radial_1_43794)"/>
<path style="mix-blend-mode:color-dodge" fill-rule="evenodd" clip-rule="evenodd" d="M-5.16388 194.886C-0.279988 198.287 0.924717 205.005 -2.4765 209.889C-5.87458 214.773 -12.592 215.974 -17.4791 212.576C-22.363 209.175 -23.5677 202.46 -20.1665 197.577C-16.7653 192.69 -10.0478 191.485 -5.16388 194.886Z" fill="url(#paint46_radial_1_43794)"/>
<path style="mix-blend-mode:color-dodge" fill-rule="evenodd" clip-rule="evenodd" d="M155.516 358.408C160.403 361.809 161.605 368.526 158.204 373.413C154.806 378.297 148.088 379.502 143.201 376.101C138.317 372.7 137.112 365.985 140.514 361.101C143.915 356.214 150.632 355.013 155.516 358.411L155.516 358.408Z" fill="url(#paint47_radial_1_43794)"/>
<path style="mix-blend-mode:color-dodge" fill-rule="evenodd" clip-rule="evenodd" d="M15.5912 316.724C20.4751 320.125 21.6798 326.842 18.2786 331.726C14.8774 336.61 8.16308 337.815 3.27604 334.414C-1.60786 331.013 -2.81258 324.298 0.588655 319.411C3.98989 314.524 10.7074 313.323 15.5913 316.721L15.5912 316.724Z" fill="url(#paint48_radial_1_43794)"/>
<path style="mix-blend-mode:color-dodge" fill-rule="evenodd" clip-rule="evenodd" d="M253.738 331.268C258.621 334.669 259.826 341.387 256.425 346.271C253.024 351.155 246.309 352.359 241.422 348.958C236.538 345.557 235.334 338.843 238.735 333.959C242.136 329.072 248.854 327.867 253.738 331.268Z" fill="url(#paint49_radial_1_43794)"/>
<defs>
<radialGradient id="paint0_radial_1_43794" cx="0" cy="0" r="1" gradientUnits="userSpaceOnUse" gradientTransform="translate(1.36442 367.181) rotate(-55.1605) scale(4.15896)">
<stop stop-color="white"/>
<stop offset="0.17" stop-color="#CCCCCC"/>
<stop offset="0.47" stop-color="#757575"/>
<stop offset="0.72" stop-color="#363636"/>
<stop offset="0.91" stop-color="#0E0E0E"/>
<stop offset="1"/>
</radialGradient>
<radialGradient id="paint1_radial_1_43794" cx="0" cy="0" r="1" gradientUnits="userSpaceOnUse" gradientTransform="translate(32.1781 337.46) rotate(-55.1606) scale(4.15896 4.15895)">
<stop stop-color="white"/>
<stop offset="0.17" stop-color="#CCCCCC"/>
<stop offset="0.47" stop-color="#757575"/>
<stop offset="0.72" stop-color="#363636"/>
<stop offset="0.91" stop-color="#0E0E0E"/>
<stop offset="1"/>
</radialGradient>
<radialGradient id="paint2_radial_1_43794" cx="0" cy="0" r="1" gradientUnits="userSpaceOnUse" gradientTransform="translate(82.9756 384.788) rotate(-55.1605) scale(4.15896)">
<stop stop-color="white"/>
<stop offset="0.17" stop-color="#CCCCCC"/>
<stop offset="0.47" stop-color="#757575"/>
<stop offset="0.72" stop-color="#363636"/>
<stop offset="0.91" stop-color="#0E0E0E"/>
<stop offset="1"/>
</radialGradient>
<radialGradient id="paint3_radial_1_43794" cx="0" cy="0" r="1" gradientUnits="userSpaceOnUse" gradientTransform="translate(105.719 76.0426) rotate(-80.3606) scale(4.15897)">
<stop stop-color="white"/>
<stop offset="0.17" stop-color="#CCCCCC"/>
<stop offset="0.47" stop-color="#757575"/>
<stop offset="0.72" stop-color="#363636"/>
<stop offset="0.91" stop-color="#0E0E0E"/>
<stop offset="1"/>
</radialGradient>
<radialGradient id="paint4_radial_1_43794" cx="0" cy="0" r="1" gradientUnits="userSpaceOnUse" gradientTransform="translate(58.7307 110.338) rotate(-80.3606) scale(4.15897)">
<stop stop-color="white"/>
<stop offset="0.17" stop-color="#CCCCCC"/>
<stop offset="0.47" stop-color="#757575"/>
<stop offset="0.72" stop-color="#363636"/>
<stop offset="0.91" stop-color="#0E0E0E"/>
<stop offset="1"/>
</radialGradient>
<radialGradient id="paint5_radial_1_43794" cx="0" cy="0" r="1" gradientUnits="userSpaceOnUse" gradientTransform="translate(197.246 335.23) rotate(-55.1606) scale(4.15896)">
<stop stop-color="white"/>
<stop offset="0.17" stop-color="#CCCCCC"/>
<stop offset="0.47" stop-color="#757575"/>
<stop offset="0.72" stop-color="#363636"/>
<stop offset="0.91" stop-color="#0E0E0E"/>
<stop offset="1"/>
</radialGradient>
<radialGradient id="paint6_radial_1_43794" cx="0" cy="0" r="1" gradientUnits="userSpaceOnUse" gradientTransform="translate(48.2016 40.1778) rotate(-54.3605) scale(4.15896 4.15897)">
<stop stop-color="white"/>
<stop offset="0.17" stop-color="#CCCCCC"/>
<stop offset="0.47" stop-color="#757575"/>
<stop offset="0.72" stop-color="#363636"/>
<stop offset="0.91" stop-color="#0E0E0E"/>
<stop offset="1"/>
</radialGradient>
<radialGradient id="paint7_radial_1_43794" cx="0" cy="0" r="1" gradientUnits="userSpaceOnUse" gradientTransform="translate(43.1541 70.0925) rotate(-54.3606) scale(4.15896 4.15896)">
<stop stop-color="white"/>
<stop offset="0.17" stop-color="#CCCCCC"/>
<stop offset="0.47" stop-color="#757575"/>
<stop offset="0.72" stop-color="#363636"/>
<stop offset="0.91" stop-color="#0E0E0E"/>
<stop offset="1"/>
</radialGradient>
<radialGradient id="paint8_radial_1_43794" cx="0" cy="0" r="1" gradientUnits="userSpaceOnUse" gradientTransform="translate(43.4569 89.1616) rotate(-54.3606) scale(4.15895 4.15894)">
<stop stop-color="white"/>
<stop offset="0.17" stop-color="#CCCCCC"/>
<stop offset="0.47" stop-color="#757575"/>
<stop offset="0.72" stop-color="#363636"/>
<stop offset="0.91" stop-color="#0E0E0E"/>
<stop offset="1"/>
</radialGradient>
<radialGradient id="paint9_radial_1_43794" cx="0" cy="0" r="1" gradientUnits="userSpaceOnUse" gradientTransform="translate(6.20953 38.6183) rotate(-54.3605) scale(4.15895 4.15895)">
<stop stop-color="white"/>
<stop offset="0.17" stop-color="#CCCCCC"/>
<stop offset="0.47" stop-color="#757575"/>
<stop offset="0.72" stop-color="#363636"/>
<stop offset="0.91" stop-color="#0E0E0E"/>
<stop offset="1"/>
</radialGradient>
<radialGradient id="paint10_radial_1_43794" cx="0" cy="0" r="1" gradientUnits="userSpaceOnUse" gradientTransform="translate(111.67 386.021) rotate(-54.3605) scale(4.15896 4.15897)">
<stop stop-color="white"/>
<stop offset="0.17" stop-color="#CCCCCC"/>
<stop offset="0.47" stop-color="#757575"/>
<stop offset="0.72" stop-color="#363636"/>
<stop offset="0.91" stop-color="#0E0E0E"/>
<stop offset="1"/>
</radialGradient>
<radialGradient id="paint11_radial_1_43794" cx="0" cy="0" r="1" gradientUnits="userSpaceOnUse" gradientTransform="translate(120.102 403.1) rotate(-54.3606) scale(4.15896 4.15896)">
<stop stop-color="white"/>
<stop offset="0.17" stop-color="#CCCCCC"/>
<stop offset="0.47" stop-color="#757575"/>
<stop offset="0.72" stop-color="#363636"/>
<stop offset="0.91" stop-color="#0E0E0E"/>
<stop offset="1"/>
</radialGradient>
<radialGradient id="paint12_radial_1_43794" cx="0" cy="0" r="1" gradientUnits="userSpaceOnUse" gradientTransform="translate(0.915154 349.057) rotate(-55.1606) scale(4.15896 4.15895)">
<stop stop-color="white"/>
<stop offset="0.17" stop-color="#CCCCCC"/>
<stop offset="0.47" stop-color="#757575"/>
<stop offset="0.72" stop-color="#363636"/>
<stop offset="0.91" stop-color="#0E0E0E"/>
<stop offset="1"/>
</radialGradient>
<radialGradient id="paint13_radial_1_43794" cx="0" cy="0" r="1" gradientUnits="userSpaceOnUse" gradientTransform="translate(21.1836 322.621) rotate(-55.1605) scale(2.10465 2.10465)">
<stop stop-color="white"/>
<stop offset="0.17" stop-color="#CCCCCC"/>
<stop offset="0.47" stop-color="#757575"/>
<stop offset="0.72" stop-color="#363636"/>
<stop offset="0.91" stop-color="#0E0E0E"/>
<stop offset="1"/>
</radialGradient>
<radialGradient id="paint14_radial_1_43794" cx="0" cy="0" r="1" gradientUnits="userSpaceOnUse" gradientTransform="translate(40.8082 311.164) rotate(-55.1605) scale(2.10465 2.10465)">
<stop stop-color="white"/>
<stop offset="0.17" stop-color="#CCCCCC"/>
<stop offset="0.47" stop-color="#757575"/>
<stop offset="0.72" stop-color="#363636"/>
<stop offset="0.91" stop-color="#0E0E0E"/>
<stop offset="1"/>
</radialGradient>
<radialGradient id="paint15_radial_1_43794" cx="0" cy="0" r="1" gradientUnits="userSpaceOnUse" gradientTransform="translate(125.55 390.536) rotate(-55.1605) scale(2.10465 2.10465)">
<stop stop-color="white"/>
<stop offset="0.17" stop-color="#CCCCCC"/>
<stop offset="0.47" stop-color="#757575"/>
<stop offset="0.72" stop-color="#363636"/>
<stop offset="0.91" stop-color="#0E0E0E"/>
<stop offset="1"/>
</radialGradient>
<radialGradient id="paint16_radial_1_43794" cx="0" cy="0" r="1" gradientUnits="userSpaceOnUse" gradientTransform="translate(34.8029 77.7615) rotate(-55.1606) scale(2.10465)">
<stop stop-color="white"/>
<stop offset="0.17" stop-color="#CCCCCC"/>
<stop offset="0.47" stop-color="#757575"/>
<stop offset="0.72" stop-color="#363636"/>
<stop offset="0.91" stop-color="#0E0E0E"/>
<stop offset="1"/>
</radialGradient>
<radialGradient id="paint17_radial_1_43794" cx="0" cy="0" r="1" gradientUnits="userSpaceOnUse" gradientTransform="translate(1.75508 198.914) rotate(-55.1605) scale(2.10465 2.10465)">
<stop stop-color="white"/>
<stop offset="0.17" stop-color="#CCCCCC"/>
<stop offset="0.47" stop-color="#757575"/>
<stop offset="0.72" stop-color="#363636"/>
<stop offset="0.91" stop-color="#0E0E0E"/>
<stop offset="1"/>
</radialGradient>
<radialGradient id="paint18_radial_1_43794" cx="0" cy="0" r="1" gradientUnits="userSpaceOnUse" gradientTransform="translate(59.2744 90.3153) rotate(-80.3606) scale(2.10464)">
<stop stop-color="white"/>
<stop offset="0.17" stop-color="#CCCCCC"/>
<stop offset="0.47" stop-color="#757575"/>
<stop offset="0.72" stop-color="#363636"/>
<stop offset="0.91" stop-color="#0E0E0E"/>
<stop offset="1"/>
</radialGradient>
<radialGradient id="paint19_radial_1_43794" cx="0" cy="0" r="1" gradientUnits="userSpaceOnUse" gradientTransform="translate(50.1347 55.736) rotate(-55.1605) scale(2.10465 2.10465)">
<stop stop-color="white"/>
<stop offset="0.17" stop-color="#CCCCCC"/>
<stop offset="0.47" stop-color="#757575"/>
<stop offset="0.72" stop-color="#363636"/>
<stop offset="0.91" stop-color="#0E0E0E"/>
<stop offset="1"/>
</radialGradient>
<radialGradient id="paint20_radial_1_43794" cx="0" cy="0" r="1" gradientUnits="userSpaceOnUse" gradientTransform="translate(2.10962 46.7327) rotate(-55.1605) scale(2.10465 2.10465)">
<stop stop-color="white"/>
<stop offset="0.17" stop-color="#CCCCCC"/>
<stop offset="0.47" stop-color="#757575"/>
<stop offset="0.72" stop-color="#363636"/>
<stop offset="0.91" stop-color="#0E0E0E"/>
<stop offset="1"/>
</radialGradient>
<radialGradient id="paint21_radial_1_43794" cx="0" cy="0" r="1" gradientUnits="userSpaceOnUse" gradientTransform="translate(31.9344 66.8002) rotate(-55.1605) scale(2.10465 2.10465)">
<stop stop-color="white"/>
<stop offset="0.17" stop-color="#CCCCCC"/>
<stop offset="0.47" stop-color="#757575"/>
<stop offset="0.72" stop-color="#363636"/>
<stop offset="0.91" stop-color="#0E0E0E"/>
<stop offset="1"/>
</radialGradient>
<radialGradient id="paint22_radial_1_43794" cx="0" cy="0" r="1" gradientUnits="userSpaceOnUse" gradientTransform="translate(96.6774 338.371) rotate(-55.1607) scale(2.1015 2.1015)">
<stop stop-color="white"/>
<stop offset="0.17" stop-color="#CCCCCC"/>
<stop offset="0.47" stop-color="#757575"/>
<stop offset="0.72" stop-color="#363636"/>
<stop offset="0.91" stop-color="#0E0E0E"/>
<stop offset="1"/>
</radialGradient>
<radialGradient id="paint23_radial_1_43794" cx="0" cy="0" r="1" gradientUnits="userSpaceOnUse" gradientTransform="translate(94.8946 402.597) rotate(-55.1606) scale(2.1015 2.1015)">
<stop stop-color="white"/>
<stop offset="0.17" stop-color="#CCCCCC"/>
<stop offset="0.47" stop-color="#757575"/>
<stop offset="0.72" stop-color="#363636"/>
<stop offset="0.91" stop-color="#0E0E0E"/>
<stop offset="1"/>
</radialGradient>
<radialGradient id="paint24_radial_1_43794" cx="0" cy="0" r="1" gradientUnits="userSpaceOnUse" gradientTransform="translate(30.376 350.604) rotate(-55.1605) scale(2.10465 2.10465)">
<stop stop-color="white"/>
<stop offset="0.17" stop-color="#CCCCCC"/>
<stop offset="0.47" stop-color="#757575"/>
<stop offset="0.72" stop-color="#363636"/>
<stop offset="0.91" stop-color="#0E0E0E"/>
<stop offset="1"/>
</radialGradient>
<radialGradient id="paint25_radial_1_43794" cx="0" cy="0" r="1" gradientUnits="userSpaceOnUse" gradientTransform="translate(197.129 347.238) rotate(-55.1605) scale(2.10465 2.10465)">
<stop stop-color="white"/>
<stop offset="0.17" stop-color="#CCCCCC"/>
<stop offset="0.47" stop-color="#757575"/>
<stop offset="0.72" stop-color="#363636"/>
<stop offset="0.91" stop-color="#0E0E0E"/>
<stop offset="1"/>
</radialGradient>
<radialGradient id="paint26_radial_1_43794" cx="0" cy="0" r="1" gradientUnits="userSpaceOnUse" gradientTransform="translate(235.308 326.842) rotate(-55.1605) scale(2.10465 2.10465)">
<stop stop-color="white"/>
<stop offset="0.17" stop-color="#CCCCCC"/>
<stop offset="0.47" stop-color="#757575"/>
<stop offset="0.72" stop-color="#363636"/>
<stop offset="0.91" stop-color="#0E0E0E"/>
<stop offset="1"/>
</radialGradient>
<radialGradient id="paint27_radial_1_43794" cx="0" cy="0" r="1" gradientUnits="userSpaceOnUse" gradientTransform="translate(214.552 327.139) rotate(-55.1605) scale(2.10465 2.10465)">
<stop stop-color="white"/>
<stop offset="0.17" stop-color="#CCCCCC"/>
<stop offset="0.47" stop-color="#757575"/>
<stop offset="0.72" stop-color="#363636"/>
<stop offset="0.91" stop-color="#0E0E0E"/>
<stop offset="1"/>
</radialGradient>
<radialGradient id="paint28_radial_1_43794" cx="0" cy="0" r="1" gradientUnits="userSpaceOnUse" gradientTransform="translate(71.8132 352.845) rotate(-55.1605) scale(2.10465 2.10465)">
<stop stop-color="white"/>
<stop offset="0.17" stop-color="#CCCCCC"/>
<stop offset="0.47" stop-color="#757575"/>
<stop offset="0.72" stop-color="#363636"/>
<stop offset="0.91" stop-color="#0E0E0E"/>
<stop offset="1"/>
</radialGradient>
<radialGradient id="paint29_radial_1_43794" cx="0" cy="0" r="1" gradientUnits="userSpaceOnUse" gradientTransform="translate(42.5118 3.62161) rotate(-80.3606) scale(2.10466 2.10464)">
<stop stop-color="white"/>
<stop offset="0.17" stop-color="#CCCCCC"/>
<stop offset="0.47" stop-color="#757575"/>
<stop offset="0.72" stop-color="#363636"/>
<stop offset="0.91" stop-color="#0E0E0E"/>
<stop offset="1"/>
</radialGradient>
<radialGradient id="paint30_radial_1_43794" cx="0" cy="0" r="1" gradientUnits="userSpaceOnUse" gradientTransform="translate(43.9137 23.5855) rotate(-80.3604) scale(2.10464 2.10468)">
<stop stop-color="white"/>
<stop offset="0.17" stop-color="#CCCCCC"/>
<stop offset="0.47" stop-color="#757575"/>
<stop offset="0.72" stop-color="#363636"/>
<stop offset="0.91" stop-color="#0E0E0E"/>
<stop offset="1"/>
</radialGradient>
<radialGradient id="paint31_radial_1_43794" cx="0" cy="0" r="1" gradientUnits="userSpaceOnUse" gradientTransform="translate(82.819 88.7103) rotate(-80.3606) scale(2.10464)">
<stop stop-color="white"/>
<stop offset="0.17" stop-color="#CCCCCC"/>
<stop offset="0.47" stop-color="#757575"/>
<stop offset="0.72" stop-color="#363636"/>
<stop offset="0.91" stop-color="#0E0E0E"/>
<stop offset="1"/>
</radialGradient>
<radialGradient id="paint32_radial_1_43794" cx="0" cy="0" r="1" gradientUnits="userSpaceOnUse" gradientTransform="translate(28.0624 51.1553) rotate(-55.1605) scale(2.1015 2.10151)">
<stop stop-color="white"/>
<stop offset="0.17" stop-color="#CCCCCC"/>
<stop offset="0.47" stop-color="#757575"/>
<stop offset="0.72" stop-color="#363636"/>
<stop offset="0.91" stop-color="#0E0E0E"/>
<stop offset="1"/>
</radialGradient>
<radialGradient id="paint33_radial_1_43794" cx="0" cy="0" r="1" gradientUnits="userSpaceOnUse" gradientTransform="translate(5.25159 338.229) rotate(-49.3807) scale(2.10464 2.10464)">
<stop stop-color="white"/>
<stop offset="0.17" stop-color="#CCCCCC"/>
<stop offset="0.47" stop-color="#757575"/>
<stop offset="0.72" stop-color="#363636"/>
<stop offset="0.91" stop-color="#0E0E0E"/>
<stop offset="1"/>
</radialGradient>
<radialGradient id="paint34_radial_1_43794" cx="0" cy="0" r="1" gradientUnits="userSpaceOnUse" gradientTransform="translate(77.5718 400.493) rotate(-49.3807) scale(2.10464 2.10464)">
<stop stop-color="white"/>
<stop offset="0.17" stop-color="#CCCCCC"/>
<stop offset="0.47" stop-color="#757575"/>
<stop offset="0.72" stop-color="#363636"/>
<stop offset="0.91" stop-color="#0E0E0E"/>
<stop offset="1"/>
</radialGradient>
<radialGradient id="paint35_radial_1_43794" cx="0" cy="0" r="1" gradientUnits="userSpaceOnUse" gradientTransform="translate(11.3825 349.785) rotate(-49.3802) scale(2.10466 2.10466)">
<stop stop-color="white"/>
<stop offset="0.17" stop-color="#CCCCCC"/>
<stop offset="0.47" stop-color="#757575"/>
<stop offset="0.72" stop-color="#363636"/>
<stop offset="0.91" stop-color="#0E0E0E"/>
<stop offset="1"/>
</radialGradient>
<radialGradient id="paint36_radial_1_43794" cx="0" cy="0" r="1" gradientUnits="userSpaceOnUse" gradientTransform="translate(139.322 397.709) rotate(-49.3807) scale(2.10464 2.10464)">
<stop stop-color="white"/>
<stop offset="0.17" stop-color="#CCCCCC"/>
<stop offset="0.47" stop-color="#757575"/>
<stop offset="0.72" stop-color="#363636"/>
<stop offset="0.91" stop-color="#0E0E0E"/>
<stop offset="1"/>
</radialGradient>
<radialGradient id="paint37_radial_1_43794" cx="0" cy="0" r="1" gradientUnits="userSpaceOnUse" gradientTransform="translate(175.593 362.424) rotate(-49.3807) scale(2.10464 2.10464)">
<stop stop-color="white"/>
<stop offset="0.17" stop-color="#CCCCCC"/>
<stop offset="0.47" stop-color="#757575"/>
<stop offset="0.72" stop-color="#363636"/>
<stop offset="0.91" stop-color="#0E0E0E"/>
<stop offset="1"/>
</radialGradient>
<radialGradient id="paint38_radial_1_43794" cx="0" cy="0" r="1" gradientUnits="userSpaceOnUse" gradientTransform="translate(184.824 347.338) rotate(-49.3802) scale(2.10466 2.10466)">
<stop stop-color="white"/>
<stop offset="0.17" stop-color="#CCCCCC"/>
<stop offset="0.47" stop-color="#757575"/>
<stop offset="0.72" stop-color="#363636"/>
<stop offset="0.91" stop-color="#0E0E0E"/>
<stop offset="1"/>
</radialGradient>
<radialGradient id="paint39_radial_1_43794" cx="0" cy="0" r="1" gradientUnits="userSpaceOnUse" gradientTransform="translate(106.989 377.021) rotate(-49.3807) scale(2.10464 2.10464)">
<stop stop-color="white"/>
<stop offset="0.17" stop-color="#CCCCCC"/>
<stop offset="0.47" stop-color="#757575"/>
<stop offset="0.72" stop-color="#363636"/>
<stop offset="0.91" stop-color="#0E0E0E"/>
<stop offset="1"/>
</radialGradient>
<radialGradient id="paint40_radial_1_43794" cx="0" cy="0" r="1" gradientUnits="userSpaceOnUse" gradientTransform="translate(165.262 351.384) rotate(-49.3807) scale(2.10464 2.10464)">
<stop stop-color="white"/>
<stop offset="0.17" stop-color="#CCCCCC"/>
<stop offset="0.47" stop-color="#757575"/>
<stop offset="0.72" stop-color="#363636"/>
<stop offset="0.91" stop-color="#0E0E0E"/>
<stop offset="1"/>
</radialGradient>
<radialGradient id="paint41_radial_1_43794" cx="0" cy="0" r="1" gradientUnits="userSpaceOnUse" gradientTransform="translate(30.8283 121.899) rotate(-55.1605) scale(10.7781 10.7781)">
<stop stop-color="white"/>
<stop offset="0.17" stop-color="#CCCCCC"/>
<stop offset="0.47" stop-color="#757575"/>
<stop offset="0.72" stop-color="#363636"/>
<stop offset="0.91" stop-color="#0E0E0E"/>
<stop offset="1"/>
</radialGradient>
<radialGradient id="paint42_radial_1_43794" cx="0" cy="0" r="1" gradientUnits="userSpaceOnUse" gradientTransform="translate(61.9067 367.086) rotate(-55.1605) scale(10.7781 10.7781)">
<stop stop-color="white"/>
<stop offset="0.17" stop-color="#CCCCCC"/>
<stop offset="0.47" stop-color="#757575"/>
<stop offset="0.72" stop-color="#363636"/>
<stop offset="0.91" stop-color="#0E0E0E"/>
<stop offset="1"/>
</radialGradient>
<radialGradient id="paint43_radial_1_43794" cx="0" cy="0" r="1" gradientUnits="userSpaceOnUse" gradientTransform="translate(72.7379 318.698) rotate(-55.1605) scale(10.7781 10.7781)">
<stop stop-color="white"/>
<stop offset="0.17" stop-color="#CCCCCC"/>
<stop offset="0.47" stop-color="#757575"/>
<stop offset="0.72" stop-color="#363636"/>
<stop offset="0.91" stop-color="#0E0E0E"/>
<stop offset="1"/>
</radialGradient>
<radialGradient id="paint44_radial_1_43794" cx="0" cy="0" r="1" gradientUnits="userSpaceOnUse" gradientTransform="translate(46.9259 51.2657) rotate(-55.1606) scale(10.7781 10.7781)">
<stop stop-color="white"/>
<stop offset="0.17" stop-color="#CCCCCC"/>
<stop offset="0.47" stop-color="#757575"/>
<stop offset="0.72" stop-color="#363636"/>
<stop offset="0.91" stop-color="#0E0E0E"/>
<stop offset="1"/>
</radialGradient>
<radialGradient id="paint45_radial_1_43794" cx="0" cy="0" r="1" gradientUnits="userSpaceOnUse" gradientTransform="translate(15.8493 58.4396) rotate(-55.1605) scale(10.7781 10.7781)">
<stop stop-color="white"/>
<stop offset="0.17" stop-color="#CCCCCC"/>
<stop offset="0.47" stop-color="#757575"/>
<stop offset="0.72" stop-color="#363636"/>
<stop offset="0.91" stop-color="#0E0E0E"/>
<stop offset="1"/>
</radialGradient>
<radialGradient id="paint46_radial_1_43794" cx="0" cy="0" r="1" gradientUnits="userSpaceOnUse" gradientTransform="translate(-11.3124 203.71) rotate(-55.1606) scale(10.7781 10.7781)">
<stop stop-color="white"/>
<stop offset="0.17" stop-color="#CCCCCC"/>
<stop offset="0.47" stop-color="#757575"/>
<stop offset="0.72" stop-color="#363636"/>
<stop offset="0.91" stop-color="#0E0E0E"/>
<stop offset="1"/>
</radialGradient>
<radialGradient id="paint47_radial_1_43794" cx="0" cy="0" r="1" gradientUnits="userSpaceOnUse" gradientTransform="translate(149.378 367.225) rotate(-55.1606) scale(10.7781 10.7781)">
<stop stop-color="white"/>
<stop offset="0.17" stop-color="#CCCCCC"/>
<stop offset="0.47" stop-color="#757575"/>
<stop offset="0.72" stop-color="#363636"/>
<stop offset="0.91" stop-color="#0E0E0E"/>
<stop offset="1"/>
</radialGradient>
<radialGradient id="paint48_radial_1_43794" cx="0" cy="0" r="1" gradientUnits="userSpaceOnUse" gradientTransform="translate(9.44684 325.547) rotate(-55.1606) scale(10.7781 10.7781)">
<stop stop-color="white"/>
<stop offset="0.17" stop-color="#CCCCCC"/>
<stop offset="0.47" stop-color="#757575"/>
<stop offset="0.72" stop-color="#363636"/>
<stop offset="0.91" stop-color="#0E0E0E"/>
<stop offset="1"/>
</radialGradient>
<radialGradient id="paint49_radial_1_43794" cx="0" cy="0" r="1" gradientUnits="userSpaceOnUse" gradientTransform="translate(247.597 340.078) rotate(-55.1605) scale(10.7781 10.7781)">
<stop stop-color="white"/>
<stop offset="0.17" stop-color="#CCCCCC"/>
<stop offset="0.47" stop-color="#757575"/>
<stop offset="0.72" stop-color="#363636"/>
<stop offset="0.91" stop-color="#0E0E0E"/>
<stop offset="1"/>
</radialGradient>
</defs>
</svg>
