<svg width="201" height="408" viewBox="0 0 201 408" fill="none" xmlns="http://www.w3.org/2000/svg">
<path style="mix-blend-mode:color-dodge" fill-rule="evenodd" clip-rule="evenodd" d="M26.3338 26.2748C28.217 24.963 28.6835 22.3724 27.3685 20.486C26.0567 18.5996 23.4661 18.1362 21.5797 19.4481C19.6964 20.7599 19.2299 23.3506 20.5417 25.2369C21.8535 27.1233 24.4443 27.5867 26.3306 26.2749L26.3338 26.2748Z" fill="url(#paint0_radial_1_44075)"/>
<path style="mix-blend-mode:color-dodge" fill-rule="evenodd" clip-rule="evenodd" d="M47.4463 335.795C49.7101 335.41 51.2352 333.262 50.8502 330.998C50.4652 328.734 48.3177 327.209 46.0539 327.595C43.7901 327.98 42.2682 330.127 42.65 332.391C43.035 334.655 45.1825 336.18 47.4463 335.795Z" fill="url(#paint1_radial_1_44075)"/>
<path style="mix-blend-mode:color-dodge" fill-rule="evenodd" clip-rule="evenodd" d="M0.452162 301.499C2.71599 301.114 4.24102 298.966 3.85602 296.702C3.47102 294.438 1.32359 292.917 -0.940247 293.302C-3.20408 293.687 -4.72596 295.834 -4.3441 298.098C-3.9591 300.362 -1.81166 301.887 0.452173 301.502L0.452162 301.499Z" fill="url(#paint2_radial_1_44075)"/>
<path style="mix-blend-mode:color-dodge" fill-rule="evenodd" clip-rule="evenodd" d="M140.606 75.8273C142.49 74.5155 142.956 71.9217 141.644 70.0385C140.332 68.1552 137.739 67.6887 135.855 69.0037C133.972 70.3155 133.506 72.9062 134.82 74.7894C136.132 76.6758 138.723 77.1392 140.609 75.8273L140.606 75.8273Z" fill="url(#paint3_radial_1_44075)"/>
<path style="mix-blend-mode:color-dodge" fill-rule="evenodd" clip-rule="evenodd" d="M55.0006 25.073C56.8681 23.7361 57.2968 21.1361 55.9567 19.2687C54.6198 17.4012 52.0198 16.9757 50.1555 18.3126C48.288 19.6495 47.8594 22.2464 49.1994 24.1138C50.5364 25.9812 53.1363 26.4099 55.0006 25.073Z" fill="url(#paint4_radial_1_44075)"/>
<path style="mix-blend-mode:color-dodge" fill-rule="evenodd" clip-rule="evenodd" d="M63.4304 7.9961C65.2978 6.65918 65.7265 4.05918 64.3865 2.19175C63.0496 0.324317 60.4496 -0.101228 58.5853 1.23568C56.721 2.5726 56.2891 5.1726 57.6292 7.03688C58.9693 8.90431 61.5661 9.33301 63.4335 7.99609L63.4304 7.9961Z" fill="url(#paint5_radial_1_44075)"/>
<path style="mix-blend-mode:color-dodge" fill-rule="evenodd" clip-rule="evenodd" d="M67.7303 18.8368C68.6845 18.1729 68.9192 16.8634 68.2554 15.9093C67.5916 14.9551 66.2789 14.7203 65.3279 15.3841C64.3737 16.0479 64.139 17.3574 64.8028 18.3116C65.4666 19.2658 66.7792 19.5006 67.7303 18.8368Z" fill="url(#paint6_radial_1_44075)"/>
<path style="mix-blend-mode:color-dodge" fill-rule="evenodd" clip-rule="evenodd" d="M0.652043 319.496C1.79653 319.3 2.56686 318.215 2.37431 317.071C2.18177 315.926 1.09388 315.156 -0.0506206 315.349C-1.19511 315.544 -1.96543 316.629 -1.77289 317.774C-1.5772 318.918 -0.492457 319.688 0.652043 319.496Z" fill="url(#paint7_radial_1_44075)"/>
<path style="mix-blend-mode:color-dodge" fill-rule="evenodd" clip-rule="evenodd" d="M38.8636 71.0039C39.8177 70.3401 40.0525 69.0306 39.3887 68.0764C38.7249 67.1222 37.4154 66.8874 36.4612 67.5512C35.5071 68.215 35.2722 69.5246 35.936 70.4787C36.5998 71.4329 37.9094 71.6677 38.8636 71.0039Z" fill="url(#paint8_radial_1_44075)"/>
<path style="mix-blend-mode:color-dodge" fill-rule="evenodd" clip-rule="evenodd" d="M37.0774 6.77803C38.0316 6.11422 38.2663 4.80472 37.5994 3.85054C36.9356 2.89636 35.6261 2.6616 34.6719 3.32541C33.7177 3.98922 33.4829 5.29872 34.1467 6.2529C34.8105 7.20708 36.1201 7.44185 37.0742 6.77804L37.0774 6.77803Z" fill="url(#paint9_radial_1_44075)"/>
<path style="mix-blend-mode:color-dodge" fill-rule="evenodd" clip-rule="evenodd" d="M139.314 62.1329C140.268 61.4691 140.502 60.1596 139.839 59.2054C139.175 58.2512 137.865 58.0165 136.911 58.6803C135.957 59.3441 135.722 60.6536 136.386 61.6078C137.05 62.5619 138.359 62.7967 139.314 62.1329Z" fill="url(#paint10_radial_1_44075)"/>
<path style="mix-blend-mode:color-dodge" fill-rule="evenodd" clip-rule="evenodd" d="M177.492 82.5247C178.446 81.8609 178.681 80.5483 178.017 79.5972C177.353 78.6431 176.044 78.4083 175.089 79.0721C174.135 79.7359 173.9 81.0454 174.564 81.9996C175.228 82.9538 176.538 83.1886 177.492 82.5247Z" fill="url(#paint11_radial_1_44075)"/>
<path style="mix-blend-mode:color-dodge" fill-rule="evenodd" clip-rule="evenodd" d="M156.737 82.2285C157.691 81.5647 157.926 80.2552 157.262 79.301C156.598 78.3469 155.285 78.1121 154.334 78.7759C153.38 79.4397 153.145 80.7492 153.809 81.7034C154.473 82.6576 155.782 82.8924 156.737 82.2285Z" fill="url(#paint12_radial_1_44075)"/>
<path style="mix-blend-mode:color-dodge" fill-rule="evenodd" clip-rule="evenodd" d="M13.9978 56.5312C14.952 55.8674 15.1868 54.5579 14.523 53.6037C13.8592 52.6526 12.5496 52.4179 11.5955 53.0786C10.6413 53.7424 10.4065 55.0519 11.0703 56.006C11.7341 56.9602 13.0468 57.195 13.9978 56.5312Z" fill="url(#paint13_radial_1_44075)"/>
<path style="mix-blend-mode:color-dodge" fill-rule="evenodd" clip-rule="evenodd" d="M24.1987 321.101C25.3432 320.905 26.1135 319.821 25.9209 318.673C25.7253 317.529 24.6405 316.758 23.496 316.951C22.3515 317.146 21.5812 318.231 21.7737 319.376C21.9663 320.52 23.0542 321.29 24.1987 321.098L24.1987 321.101Z" fill="url(#paint14_radial_1_44075)"/>
<path style="mix-blend-mode:color-dodge" fill-rule="evenodd" clip-rule="evenodd" d="M19.8721 8.77642C20.7537 8.02162 20.8531 6.69369 20.0983 5.81217C19.3403 4.93065 18.0124 4.82808 17.1341 5.58602C16.2525 6.34082 16.15 7.66876 16.9079 8.55028C17.6659 9.43179 18.9906 9.53437 19.8753 8.77641L19.8721 8.77642Z" fill="url(#paint15_radial_1_44075)"/>
<path style="mix-blend-mode:color-dodge" fill-rule="evenodd" clip-rule="evenodd" d="M81.6175 11.5586C82.499 10.8038 82.6016 9.47582 81.8437 8.59116C81.0857 7.70964 79.7609 7.60706 78.8794 8.36501C77.9979 9.11981 77.8953 10.4478 78.6533 11.3293C79.4081 12.2108 80.736 12.3134 81.6175 11.5554L81.6175 11.5586Z" fill="url(#paint16_radial_1_44075)"/>
<path style="mix-blend-mode:color-dodge" fill-rule="evenodd" clip-rule="evenodd" d="M117.886 46.8375C118.768 46.0827 118.871 44.7548 118.113 43.8701C117.358 42.9886 116.03 42.886 115.148 43.6439C114.267 44.4019 114.167 45.7267 114.922 46.6113C115.677 47.4929 117.005 47.5954 117.886 46.8375Z" fill="url(#paint17_radial_1_44075)"/>
<path style="mix-blend-mode:color-dodge" fill-rule="evenodd" clip-rule="evenodd" d="M127.118 61.9242C128 61.1694 128.102 59.8415 127.344 58.96C126.589 58.0785 125.261 57.9759 124.38 58.7338C123.498 59.4886 123.396 60.8166 124.154 61.6981C124.909 62.5796 126.24 62.6822 127.121 61.9242L127.118 61.9242Z" fill="url(#paint18_radial_1_44075)"/>
<path style="mix-blend-mode:color-dodge" fill-rule="evenodd" clip-rule="evenodd" d="M49.2882 32.2452C50.1697 31.4904 50.2723 30.1625 49.5143 29.2778C48.7595 28.3963 47.4316 28.2937 46.5501 29.0517C45.6685 29.8065 45.566 31.1344 46.3239 32.0159C47.0787 32.8974 48.4066 33 49.2882 32.2421L49.2882 32.2452Z" fill="url(#paint19_radial_1_44075)"/>
<path style="mix-blend-mode:color-dodge" fill-rule="evenodd" clip-rule="evenodd" d="M107.555 57.8775C108.436 57.1196 108.539 55.7948 107.781 54.9101C107.023 54.0286 105.698 53.926 104.817 54.684C103.935 55.4419 103.836 56.7667 104.59 57.6482C105.348 58.5298 106.676 58.6323 107.555 57.8775Z" fill="url(#paint20_radial_1_44075)"/>
<path style="mix-blend-mode:color-dodge" fill-rule="evenodd" clip-rule="evenodd" d="M9.04706 49.4134C13.931 46.0122 15.1357 39.2947 11.7345 34.4076C8.33329 29.5237 1.61575 28.3221 -3.26816 31.7202C-8.15206 35.1214 -9.35677 41.8358 -5.95555 46.7197C-2.55432 51.6067 4.16001 52.8115 9.04705 49.4102L9.04706 49.4134Z" fill="url(#paint21_radial_1_44075)"/>
<path style="mix-blend-mode:color-dodge" fill-rule="evenodd" clip-rule="evenodd" d="M19.8811 97.7974C24.765 94.3962 25.9697 87.6787 22.5685 82.7917C19.1672 77.9078 12.4498 76.7062 7.56588 80.1043C2.68198 83.5055 1.47719 90.2198 4.87841 95.1037C8.27964 99.9908 14.9972 101.192 19.8811 97.7943L19.8811 97.7974Z" fill="url(#paint22_radial_1_44075)"/>
<path style="mix-blend-mode:color-dodge" fill-rule="evenodd" clip-rule="evenodd" d="M-5.91754 365.228C-1.03049 361.827 0.171067 355.109 -3.23016 350.222C-6.62824 345.338 -13.3457 344.137 -18.2328 347.535C-23.1167 350.936 -24.3214 357.65 -20.9201 362.538C-17.5189 367.425 -10.8046 368.626 -5.92068 365.228L-5.91754 365.228Z" fill="url(#paint23_radial_1_44075)"/>
<path style="mix-blend-mode:color-dodge" fill-rule="evenodd" clip-rule="evenodd" d="M96.5163 49.269C101.403 45.8678 102.605 39.1503 99.2037 34.2632C95.8056 29.3793 89.0881 28.1746 84.2011 31.5758C79.3172 34.9771 78.1125 41.6914 81.5137 46.5753C84.9149 51.4624 91.6324 52.6639 96.5163 49.2659L96.5163 49.269Z" fill="url(#paint24_radial_1_44075)"/>
<path style="mix-blend-mode:color-dodge" fill-rule="evenodd" clip-rule="evenodd" d="M194.738 76.4083C199.621 73.007 200.826 66.2895 197.425 61.4056C194.024 56.5217 187.309 55.317 182.422 58.7182C177.538 62.1195 176.334 68.8338 179.735 73.7177C183.136 78.6048 189.854 79.8095 194.738 76.4083Z" fill="url(#paint25_radial_1_44075)"/>
<defs>
<radialGradient id="paint0_radial_1_44075" cx="0" cy="0" r="1" gradientUnits="userSpaceOnUse" gradientTransform="translate(23.9756 22.8887) rotate(55.1605) scale(4.15896)">
<stop stop-color="white"/>
<stop offset="0.17" stop-color="#CCCCCC"/>
<stop offset="0.47" stop-color="#757575"/>
<stop offset="0.72" stop-color="#363636"/>
<stop offset="0.91" stop-color="#0E0E0E"/>
<stop offset="1"/>
</radialGradient>
<radialGradient id="paint1_radial_1_44075" cx="0" cy="0" r="1" gradientUnits="userSpaceOnUse" gradientTransform="translate(46.7193 331.634) rotate(80.3606) scale(4.15897)">
<stop stop-color="white"/>
<stop offset="0.17" stop-color="#CCCCCC"/>
<stop offset="0.47" stop-color="#757575"/>
<stop offset="0.72" stop-color="#363636"/>
<stop offset="0.91" stop-color="#0E0E0E"/>
<stop offset="1"/>
</radialGradient>
<radialGradient id="paint2_radial_1_44075" cx="0" cy="0" r="1" gradientUnits="userSpaceOnUse" gradientTransform="translate(-0.269275 297.338) rotate(80.3606) scale(4.15897)">
<stop stop-color="white"/>
<stop offset="0.17" stop-color="#CCCCCC"/>
<stop offset="0.47" stop-color="#757575"/>
<stop offset="0.72" stop-color="#363636"/>
<stop offset="0.91" stop-color="#0E0E0E"/>
<stop offset="1"/>
</radialGradient>
<radialGradient id="paint3_radial_1_44075" cx="0" cy="0" r="1" gradientUnits="userSpaceOnUse" gradientTransform="translate(138.246 72.4468) rotate(55.1606) scale(4.15896)">
<stop stop-color="white"/>
<stop offset="0.17" stop-color="#CCCCCC"/>
<stop offset="0.47" stop-color="#757575"/>
<stop offset="0.72" stop-color="#363636"/>
<stop offset="0.91" stop-color="#0E0E0E"/>
<stop offset="1"/>
</radialGradient>
<radialGradient id="paint4_radial_1_44075" cx="0" cy="0" r="1" gradientUnits="userSpaceOnUse" gradientTransform="translate(52.6704 21.6557) rotate(54.3605) scale(4.15896 4.15897)">
<stop stop-color="white"/>
<stop offset="0.17" stop-color="#CCCCCC"/>
<stop offset="0.47" stop-color="#757575"/>
<stop offset="0.72" stop-color="#363636"/>
<stop offset="0.91" stop-color="#0E0E0E"/>
<stop offset="1"/>
</radialGradient>
<radialGradient id="paint5_radial_1_44075" cx="0" cy="0" r="1" gradientUnits="userSpaceOnUse" gradientTransform="translate(61.1018 4.57679) rotate(54.3606) scale(4.15896 4.15896)">
<stop stop-color="white"/>
<stop offset="0.17" stop-color="#CCCCCC"/>
<stop offset="0.47" stop-color="#757575"/>
<stop offset="0.72" stop-color="#363636"/>
<stop offset="0.91" stop-color="#0E0E0E"/>
<stop offset="1"/>
</radialGradient>
<radialGradient id="paint6_radial_1_44075" cx="0" cy="0" r="1" gradientUnits="userSpaceOnUse" gradientTransform="translate(66.5499 17.1401) rotate(55.1605) scale(2.10465 2.10465)">
<stop stop-color="white"/>
<stop offset="0.17" stop-color="#CCCCCC"/>
<stop offset="0.47" stop-color="#757575"/>
<stop offset="0.72" stop-color="#363636"/>
<stop offset="0.91" stop-color="#0E0E0E"/>
<stop offset="1"/>
</radialGradient>
<radialGradient id="paint7_radial_1_44075" cx="0" cy="0" r="1" gradientUnits="userSpaceOnUse" gradientTransform="translate(0.27443 317.361) rotate(80.3606) scale(2.10464)">
<stop stop-color="white"/>
<stop offset="0.17" stop-color="#CCCCCC"/>
<stop offset="0.47" stop-color="#757575"/>
<stop offset="0.72" stop-color="#363636"/>
<stop offset="0.91" stop-color="#0E0E0E"/>
<stop offset="1"/>
</radialGradient>
<radialGradient id="paint8_radial_1_44075" cx="0" cy="0" r="1" gradientUnits="userSpaceOnUse" gradientTransform="translate(37.6774 69.3054) rotate(55.1607) scale(2.1015 2.1015)">
<stop stop-color="white"/>
<stop offset="0.17" stop-color="#CCCCCC"/>
<stop offset="0.47" stop-color="#757575"/>
<stop offset="0.72" stop-color="#363636"/>
<stop offset="0.91" stop-color="#0E0E0E"/>
<stop offset="1"/>
</radialGradient>
<radialGradient id="paint9_radial_1_44075" cx="0" cy="0" r="1" gradientUnits="userSpaceOnUse" gradientTransform="translate(35.8946 5.07992) rotate(55.1606) scale(2.1015 2.1015)">
<stop stop-color="white"/>
<stop offset="0.17" stop-color="#CCCCCC"/>
<stop offset="0.47" stop-color="#757575"/>
<stop offset="0.72" stop-color="#363636"/>
<stop offset="0.91" stop-color="#0E0E0E"/>
<stop offset="1"/>
</radialGradient>
<radialGradient id="paint10_radial_1_44075" cx="0" cy="0" r="1" gradientUnits="userSpaceOnUse" gradientTransform="translate(138.129 60.4386) rotate(55.1605) scale(2.10465 2.10465)">
<stop stop-color="white"/>
<stop offset="0.17" stop-color="#CCCCCC"/>
<stop offset="0.47" stop-color="#757575"/>
<stop offset="0.72" stop-color="#363636"/>
<stop offset="0.91" stop-color="#0E0E0E"/>
<stop offset="1"/>
</radialGradient>
<radialGradient id="paint11_radial_1_44075" cx="0" cy="0" r="1" gradientUnits="userSpaceOnUse" gradientTransform="translate(176.308 80.8341) rotate(55.1605) scale(2.10465 2.10465)">
<stop stop-color="white"/>
<stop offset="0.17" stop-color="#CCCCCC"/>
<stop offset="0.47" stop-color="#757575"/>
<stop offset="0.72" stop-color="#363636"/>
<stop offset="0.91" stop-color="#0E0E0E"/>
<stop offset="1"/>
</radialGradient>
<radialGradient id="paint12_radial_1_44075" cx="0" cy="0" r="1" gradientUnits="userSpaceOnUse" gradientTransform="translate(155.552 80.5377) rotate(55.1605) scale(2.10465 2.10465)">
<stop stop-color="white"/>
<stop offset="0.17" stop-color="#CCCCCC"/>
<stop offset="0.47" stop-color="#757575"/>
<stop offset="0.72" stop-color="#363636"/>
<stop offset="0.91" stop-color="#0E0E0E"/>
<stop offset="1"/>
</radialGradient>
<radialGradient id="paint13_radial_1_44075" cx="0" cy="0" r="1" gradientUnits="userSpaceOnUse" gradientTransform="translate(12.8132 54.8314) rotate(55.1605) scale(2.10465 2.10465)">
<stop stop-color="white"/>
<stop offset="0.17" stop-color="#CCCCCC"/>
<stop offset="0.47" stop-color="#757575"/>
<stop offset="0.72" stop-color="#363636"/>
<stop offset="0.91" stop-color="#0E0E0E"/>
<stop offset="1"/>
</radialGradient>
<radialGradient id="paint14_radial_1_44075" cx="0" cy="0" r="1" gradientUnits="userSpaceOnUse" gradientTransform="translate(23.819 318.966) rotate(80.3606) scale(2.10464)">
<stop stop-color="white"/>
<stop offset="0.17" stop-color="#CCCCCC"/>
<stop offset="0.47" stop-color="#757575"/>
<stop offset="0.72" stop-color="#363636"/>
<stop offset="0.91" stop-color="#0E0E0E"/>
<stop offset="1"/>
</radialGradient>
<radialGradient id="paint15_radial_1_44075" cx="0" cy="0" r="1" gradientUnits="userSpaceOnUse" gradientTransform="translate(18.5718 7.18349) rotate(49.3807) scale(2.10464 2.10464)">
<stop stop-color="white"/>
<stop offset="0.17" stop-color="#CCCCCC"/>
<stop offset="0.47" stop-color="#757575"/>
<stop offset="0.72" stop-color="#363636"/>
<stop offset="0.91" stop-color="#0E0E0E"/>
<stop offset="1"/>
</radialGradient>
<radialGradient id="paint16_radial_1_44075" cx="0" cy="0" r="1" gradientUnits="userSpaceOnUse" gradientTransform="translate(80.3224 9.9672) rotate(49.3807) scale(2.10464 2.10464)">
<stop stop-color="white"/>
<stop offset="0.17" stop-color="#CCCCCC"/>
<stop offset="0.47" stop-color="#757575"/>
<stop offset="0.72" stop-color="#363636"/>
<stop offset="0.91" stop-color="#0E0E0E"/>
<stop offset="1"/>
</radialGradient>
<radialGradient id="paint17_radial_1_44075" cx="0" cy="0" r="1" gradientUnits="userSpaceOnUse" gradientTransform="translate(116.593 45.2522) rotate(49.3807) scale(2.10464 2.10464)">
<stop stop-color="white"/>
<stop offset="0.17" stop-color="#CCCCCC"/>
<stop offset="0.47" stop-color="#757575"/>
<stop offset="0.72" stop-color="#363636"/>
<stop offset="0.91" stop-color="#0E0E0E"/>
<stop offset="1"/>
</radialGradient>
<radialGradient id="paint18_radial_1_44075" cx="0" cy="0" r="1" gradientUnits="userSpaceOnUse" gradientTransform="translate(125.824 60.3385) rotate(49.3802) scale(2.10466 2.10466)">
<stop stop-color="white"/>
<stop offset="0.17" stop-color="#CCCCCC"/>
<stop offset="0.47" stop-color="#757575"/>
<stop offset="0.72" stop-color="#363636"/>
<stop offset="0.91" stop-color="#0E0E0E"/>
<stop offset="1"/>
</radialGradient>
<radialGradient id="paint19_radial_1_44075" cx="0" cy="0" r="1" gradientUnits="userSpaceOnUse" gradientTransform="translate(47.9892 30.6556) rotate(49.3807) scale(2.10464 2.10464)">
<stop stop-color="white"/>
<stop offset="0.17" stop-color="#CCCCCC"/>
<stop offset="0.47" stop-color="#757575"/>
<stop offset="0.72" stop-color="#363636"/>
<stop offset="0.91" stop-color="#0E0E0E"/>
<stop offset="1"/>
</radialGradient>
<radialGradient id="paint20_radial_1_44075" cx="0" cy="0" r="1" gradientUnits="userSpaceOnUse" gradientTransform="translate(106.262 56.2923) rotate(49.3807) scale(2.10464 2.10464)">
<stop stop-color="white"/>
<stop offset="0.17" stop-color="#CCCCCC"/>
<stop offset="0.47" stop-color="#757575"/>
<stop offset="0.72" stop-color="#363636"/>
<stop offset="0.91" stop-color="#0E0E0E"/>
<stop offset="1"/>
</radialGradient>
<radialGradient id="paint21_radial_1_44075" cx="0" cy="0" r="1" gradientUnits="userSpaceOnUse" gradientTransform="translate(2.90668 40.5904) rotate(55.1605) scale(10.7781 10.7781)">
<stop stop-color="white"/>
<stop offset="0.17" stop-color="#CCCCCC"/>
<stop offset="0.47" stop-color="#757575"/>
<stop offset="0.72" stop-color="#363636"/>
<stop offset="0.91" stop-color="#0E0E0E"/>
<stop offset="1"/>
</radialGradient>
<radialGradient id="paint22_radial_1_44075" cx="0" cy="0" r="1" gradientUnits="userSpaceOnUse" gradientTransform="translate(13.7379 88.9786) rotate(55.1605) scale(10.7781 10.7781)">
<stop stop-color="white"/>
<stop offset="0.17" stop-color="#CCCCCC"/>
<stop offset="0.47" stop-color="#757575"/>
<stop offset="0.72" stop-color="#363636"/>
<stop offset="0.91" stop-color="#0E0E0E"/>
<stop offset="1"/>
</radialGradient>
<radialGradient id="paint23_radial_1_44075" cx="0" cy="0" r="1" gradientUnits="userSpaceOnUse" gradientTransform="translate(-12.0741 356.411) rotate(55.1606) scale(10.7781 10.7781)">
<stop stop-color="white"/>
<stop offset="0.17" stop-color="#CCCCCC"/>
<stop offset="0.47" stop-color="#757575"/>
<stop offset="0.72" stop-color="#363636"/>
<stop offset="0.91" stop-color="#0E0E0E"/>
<stop offset="1"/>
</radialGradient>
<radialGradient id="paint24_radial_1_44075" cx="0" cy="0" r="1" gradientUnits="userSpaceOnUse" gradientTransform="translate(90.3779 40.4518) rotate(55.1606) scale(10.7781 10.7781)">
<stop stop-color="white"/>
<stop offset="0.17" stop-color="#CCCCCC"/>
<stop offset="0.47" stop-color="#757575"/>
<stop offset="0.72" stop-color="#363636"/>
<stop offset="0.91" stop-color="#0E0E0E"/>
<stop offset="1"/>
</radialGradient>
<radialGradient id="paint25_radial_1_44075" cx="0" cy="0" r="1" gradientUnits="userSpaceOnUse" gradientTransform="translate(188.597 67.5987) rotate(55.1605) scale(10.7781 10.7781)">
<stop stop-color="white"/>
<stop offset="0.17" stop-color="#CCCCCC"/>
<stop offset="0.47" stop-color="#757575"/>
<stop offset="0.72" stop-color="#363636"/>
<stop offset="0.91" stop-color="#0E0E0E"/>
<stop offset="1"/>
</radialGradient>
</defs>
</svg>
