<svg width="260" height="408" viewBox="0 0 260 408" fill="none" xmlns="http://www.w3.org/2000/svg">
<path style="mix-blend-mode:color-dodge" fill-rule="evenodd" clip-rule="evenodd" d="M3.72167 363.788C5.60807 365.1 6.07143 367.691 4.75961 369.577C3.4478 371.461 0.857078 371.927 -1.02932 370.615C-2.91257 369.303 -3.37585 366.713 -2.06718 364.826C-0.755364 362.94 1.83527 362.477 3.72167 363.788Z" fill="url(#paint0_radial_1_23933)"/>
<path style="mix-blend-mode:color-dodge" fill-rule="evenodd" clip-rule="evenodd" d="M34.5367 334.073C36.42 335.385 36.8865 337.975 35.5747 339.862C34.2629 341.745 31.6722 342.211 29.7858 340.9C27.9026 339.588 27.4361 336.997 28.7479 335.111C30.0597 333.227 32.6535 332.761 34.5367 334.073Z" fill="url(#paint1_radial_1_23933)"/>
<path style="mix-blend-mode:color-dodge" fill-rule="evenodd" clip-rule="evenodd" d="M85.3337 381.402C87.2169 382.713 87.6834 385.304 86.3684 387.19C85.0566 389.077 82.4659 389.54 80.5795 388.228C78.6963 386.917 78.2298 384.326 79.5416 382.439C80.8534 380.553 83.4441 380.09 85.3305 381.402L85.3337 381.402Z" fill="url(#paint2_radial_1_23933)"/>
<path style="mix-blend-mode:color-dodge" fill-rule="evenodd" clip-rule="evenodd" d="M106.446 71.8816C108.71 72.2666 110.235 74.4141 109.85 76.678C109.465 78.9418 107.318 80.4668 105.054 80.0818C102.79 79.6968 101.268 77.5493 101.65 75.2855C102.035 73.0216 104.183 71.4966 106.446 71.8816Z" fill="url(#paint3_radial_1_23933)"/>
<path style="mix-blend-mode:color-dodge" fill-rule="evenodd" clip-rule="evenodd" d="M59.4523 106.178C61.7161 106.563 63.2411 108.71 62.8561 110.974C62.4711 113.238 60.3237 114.76 58.0599 114.375C55.796 113.99 54.2742 111.842 54.656 109.578C55.041 107.315 57.1885 105.79 59.4523 106.175L59.4523 106.178Z" fill="url(#paint4_radial_1_23933)"/>
<path style="mix-blend-mode:color-dodge" fill-rule="evenodd" clip-rule="evenodd" d="M199.606 331.849C201.49 333.161 201.956 335.755 200.644 337.638C199.332 339.521 196.739 339.988 194.855 338.673C192.972 337.361 192.506 334.77 193.821 332.887C195.132 331 197.723 330.537 199.61 331.849L199.606 331.849Z" fill="url(#paint5_radial_1_23933)"/>
<path style="mix-blend-mode:color-dodge" fill-rule="evenodd" clip-rule="evenodd" d="M50.5382 36.8126C52.4057 38.1495 52.8343 40.7495 51.4943 42.6169C50.1573 44.4812 47.5574 44.9099 45.6931 43.573C43.8256 42.2361 43.4001 39.6392 44.737 37.7718C46.0739 35.9044 48.6739 35.4756 50.5413 36.8126L50.5382 36.8126Z" fill="url(#paint6_radial_1_23933)"/>
<path style="mix-blend-mode:color-dodge" fill-rule="evenodd" clip-rule="evenodd" d="M45.4936 66.7226C47.3579 68.0595 47.7867 70.6595 46.4497 72.5269C45.1128 74.3944 42.5128 74.8199 40.6486 73.483C38.7811 72.1461 38.3524 69.5493 39.6925 67.6818C41.0294 65.8144 43.6262 65.3857 45.4968 66.7226L45.4936 66.7226Z" fill="url(#paint7_radial_1_23933)"/>
<path style="mix-blend-mode:color-dodge" fill-rule="evenodd" clip-rule="evenodd" d="M45.7972 85.791C47.6647 87.131 48.0933 89.7279 46.7532 91.5953C45.4163 93.4627 42.8164 93.8883 40.9521 92.5514C39.0878 91.2144 38.656 88.6176 39.996 86.7502C41.333 84.8827 43.9329 84.4541 45.7972 85.791Z" fill="url(#paint8_radial_1_23933)"/>
<path style="mix-blend-mode:color-dodge" fill-rule="evenodd" clip-rule="evenodd" d="M8.55355 35.2509C10.4178 36.5878 10.8497 39.1878 9.50965 41.0553C8.17272 42.9227 5.57276 43.3482 3.70847 42.0113C1.84103 40.6744 1.41544 38.0776 2.75237 36.2101C4.08929 34.3427 6.68926 33.914 8.55354 35.2541L8.55355 35.2509Z" fill="url(#paint9_radial_1_23933)"/>
<path style="mix-blend-mode:color-dodge" fill-rule="evenodd" clip-rule="evenodd" d="M114.001 382.603C115.868 383.94 116.297 386.54 114.957 388.408C113.62 390.275 111.02 390.701 109.155 389.364C107.288 388.027 106.859 385.43 108.199 383.562C109.536 381.695 112.136 381.266 114.001 382.603Z" fill="url(#paint10_radial_1_23933)"/>
<path style="mix-blend-mode:color-dodge" fill-rule="evenodd" clip-rule="evenodd" d="M122.43 399.68C124.298 401.017 124.727 403.617 123.386 405.484C122.05 407.352 119.45 407.777 117.585 406.441C115.721 405.104 115.289 402.504 116.629 400.639C117.969 398.772 120.566 398.343 122.434 399.68L122.43 399.68Z" fill="url(#paint11_radial_1_23933)"/>
<path style="mix-blend-mode:color-dodge" fill-rule="evenodd" clip-rule="evenodd" d="M3.2738 345.666C5.15705 346.978 5.62355 349.572 4.31175 351.455C2.99994 353.338 0.406142 353.805 -1.47711 352.493C-3.36036 351.181 -3.82687 348.59 -2.51505 346.704C-1.20323 344.818 1.38741 344.354 3.2738 345.666Z" fill="url(#paint12_radial_1_23933)"/>
<path style="mix-blend-mode:color-dodge" fill-rule="evenodd" clip-rule="evenodd" d="M22.3687 320.919C23.3229 321.583 23.5576 322.896 22.8938 323.847C22.23 324.801 20.9173 325.036 19.9663 324.372C19.0121 323.708 18.7774 322.399 19.4443 321.445C20.1081 320.49 21.4177 320.256 22.3718 320.919L22.3687 320.919Z" fill="url(#paint13_radial_1_23933)"/>
<path style="mix-blend-mode:color-dodge" fill-rule="evenodd" clip-rule="evenodd" d="M41.997 309.465C42.9512 310.129 43.1859 311.441 42.5221 312.392C41.8583 313.347 40.5488 313.578 39.5946 312.918C38.6404 312.254 38.4057 310.944 39.0695 309.99C39.7333 309.036 41.046 308.801 41.997 309.465Z" fill="url(#paint14_radial_1_23933)"/>
<path style="mix-blend-mode:color-dodge" fill-rule="evenodd" clip-rule="evenodd" d="M126.73 388.84C127.684 389.503 127.919 390.813 127.255 391.767C126.592 392.721 125.279 392.956 124.328 392.292C123.374 391.628 123.139 390.319 123.803 389.365C124.467 388.411 125.779 388.176 126.73 388.84Z" fill="url(#paint15_radial_1_23933)"/>
<path style="mix-blend-mode:color-dodge" fill-rule="evenodd" clip-rule="evenodd" d="M36.0012 76.0625C36.9553 76.7263 37.1901 78.039 36.5263 78.9932C35.8625 79.9473 34.5529 80.1821 33.5988 79.5183C32.6446 78.8545 32.4098 77.5449 33.0736 76.5908C33.7374 75.6366 35.047 75.4018 36.0011 76.0656L36.0012 76.0625Z" fill="url(#paint16_radial_1_23933)"/>
<path style="mix-blend-mode:color-dodge" fill-rule="evenodd" clip-rule="evenodd" d="M2.94915 197.212C3.90333 197.876 4.13807 199.189 3.47427 200.14C2.81046 201.094 1.49779 201.329 0.546757 200.665C-0.407426 200.001 -0.642175 198.692 0.0216357 197.738C0.685446 196.783 1.99811 196.549 2.94915 197.212Z" fill="url(#paint17_radial_1_23933)"/>
<path style="mix-blend-mode:color-dodge" fill-rule="evenodd" clip-rule="evenodd" d="M59.652 88.1804C60.7965 88.3761 61.5669 89.4608 61.3743 90.6053C61.1818 91.7498 60.0939 92.5201 58.9494 92.3276C57.8049 92.1319 57.0346 91.0471 57.2271 89.9026C57.4228 88.7581 58.5075 87.9878 59.652 88.1804Z" fill="url(#paint18_radial_1_23933)"/>
<path style="mix-blend-mode:color-dodge" fill-rule="evenodd" clip-rule="evenodd" d="M51.3365 54.0373C52.2907 54.7011 52.5254 56.0138 51.8616 56.9648C51.1978 57.919 49.8851 58.1538 48.9341 57.49C47.9799 56.8261 47.7452 55.5167 48.409 54.5625C49.0728 53.6083 50.3823 53.3735 51.3365 54.0373Z" fill="url(#paint19_radial_1_23933)"/>
<path style="mix-blend-mode:color-dodge" fill-rule="evenodd" clip-rule="evenodd" d="M3.31377 45.0317C4.26795 45.6955 4.50269 47.0082 3.83889 47.9592C3.17508 48.9134 1.86242 49.1481 0.911381 48.4843C-0.0428016 47.8205 -0.277551 46.5111 0.38626 45.5569C1.05007 44.6027 2.35959 44.3679 3.31377 45.0317Z" fill="url(#paint20_radial_1_23933)"/>
<path style="mix-blend-mode:color-dodge" fill-rule="evenodd" clip-rule="evenodd" d="M33.1334 65.1025C34.0876 65.7663 34.3224 67.0758 33.6554 68.03C32.9916 68.9842 31.6821 69.219 30.7279 68.5552C29.7737 67.8913 29.539 66.5818 30.2028 65.6276C30.8666 64.6735 32.1793 64.4387 33.1303 65.1025L33.1334 65.1025Z" fill="url(#paint21_radial_1_23933)"/>
<path style="mix-blend-mode:color-dodge" fill-rule="evenodd" clip-rule="evenodd" d="M97.8637 336.672C98.8179 337.336 99.0526 338.646 98.3888 339.6C97.725 340.554 96.4155 340.789 95.4614 340.125C94.5072 339.461 94.2724 338.152 94.9362 337.197C95.6 336.243 96.9095 336.009 97.8637 336.672Z" fill="url(#paint22_radial_1_23933)"/>
<path style="mix-blend-mode:color-dodge" fill-rule="evenodd" clip-rule="evenodd" d="M96.0774 400.898C97.0316 401.562 97.2663 402.872 96.5994 403.826C95.9356 404.78 94.6261 405.015 93.6719 404.351C92.7177 403.687 92.4829 402.378 93.1467 401.424C93.8105 400.469 95.1201 400.235 96.0742 400.898L96.0774 400.898Z" fill="url(#paint23_radial_1_23933)"/>
<path style="mix-blend-mode:color-dodge" fill-rule="evenodd" clip-rule="evenodd" d="M31.5618 348.903C32.516 349.566 32.7507 350.876 32.0869 351.83C31.4231 352.784 30.1136 353.019 29.1594 352.355C28.2084 351.691 27.9736 350.382 28.6343 349.428C29.2981 348.474 30.6076 348.239 31.5618 348.903Z" fill="url(#paint24_radial_1_23933)"/>
<path style="mix-blend-mode:color-dodge" fill-rule="evenodd" clip-rule="evenodd" d="M198.314 345.543C199.268 346.207 199.502 347.517 198.839 348.471C198.175 349.425 196.865 349.66 195.911 348.996C194.957 348.332 194.722 347.023 195.386 346.069C196.05 345.114 197.359 344.88 198.314 345.543Z" fill="url(#paint25_radial_1_23933)"/>
<path style="mix-blend-mode:color-dodge" fill-rule="evenodd" clip-rule="evenodd" d="M236.492 325.152C237.446 325.815 237.681 327.128 237.017 328.079C236.353 329.033 235.043 329.268 234.089 328.604C233.135 327.94 232.9 326.631 233.564 325.677C234.228 324.723 235.537 324.488 236.492 325.152Z" fill="url(#paint26_radial_1_23933)"/>
<path style="mix-blend-mode:color-dodge" fill-rule="evenodd" clip-rule="evenodd" d="M215.737 325.448C216.691 326.112 216.926 327.421 216.262 328.375C215.598 329.329 214.285 329.564 213.334 328.9C212.38 328.237 212.145 326.927 212.809 325.973C213.473 325.019 214.783 324.784 215.737 325.448Z" fill="url(#paint27_radial_1_23933)"/>
<path style="mix-blend-mode:color-dodge" fill-rule="evenodd" clip-rule="evenodd" d="M72.9978 351.145C73.952 351.809 74.1868 353.118 73.523 354.073C72.8592 355.024 71.5496 355.258 70.5955 354.598C69.6413 353.934 69.4065 352.624 70.0703 351.67C70.7341 350.716 72.0468 350.481 72.9978 351.145Z" fill="url(#paint28_radial_1_23933)"/>
<path style="mix-blend-mode:color-dodge" fill-rule="evenodd" clip-rule="evenodd" d="M42.8892 1.48233C44.0337 1.67487 44.804 2.7628 44.6115 3.9073C44.4158 5.05179 43.3311 5.82211 42.1866 5.62957C41.0421 5.43388 40.2717 4.3491 40.4643 3.2046C40.66 2.06011 41.7447 1.28664 42.8892 1.48233Z" fill="url(#paint29_radial_1_23933)"/>
<path style="mix-blend-mode:color-dodge" fill-rule="evenodd" clip-rule="evenodd" d="M44.2891 21.4445C45.4336 21.637 46.2039 22.7249 46.0114 23.8694C45.8157 25.0139 44.7308 25.7874 43.5863 25.5917C42.4419 25.396 41.6715 24.3113 41.8641 23.1668C42.0598 22.0223 43.1446 21.2519 44.2891 21.4445Z" fill="url(#paint30_radial_1_23933)"/>
<path style="mix-blend-mode:color-dodge" fill-rule="evenodd" clip-rule="evenodd" d="M83.1986 86.5752C84.3431 86.7709 85.1134 87.8556 84.9208 89.0032C84.7251 90.1477 83.6404 90.9181 82.4959 90.7255C81.3514 90.5298 80.5811 89.4451 80.7736 88.3006C80.9662 87.1561 82.0541 86.3858 83.1986 86.5783L83.1986 86.5752Z" fill="url(#paint31_radial_1_23933)"/>
<path style="mix-blend-mode:color-dodge" fill-rule="evenodd" clip-rule="evenodd" d="M29.2623 49.4544C30.2164 50.1182 30.4512 51.4278 29.7874 52.3819C29.1236 53.333 27.814 53.5709 26.8599 52.9071C25.9057 52.2433 25.6709 50.9338 26.3347 49.9796C26.9986 49.0254 28.3081 48.7906 29.2623 49.4544Z" fill="url(#paint32_radial_1_23933)"/>
<path style="mix-blend-mode:color-dodge" fill-rule="evenodd" clip-rule="evenodd" d="M6.56222 336.635C7.44373 337.393 7.5463 338.721 6.78835 339.602C6.03355 340.484 4.70249 340.586 3.82412 339.828C2.94261 339.07 2.84002 337.746 3.59798 336.861C4.35593 335.979 5.6807 335.877 6.56222 336.635Z" fill="url(#paint33_radial_1_23933)"/>
<path style="mix-blend-mode:color-dodge" fill-rule="evenodd" clip-rule="evenodd" d="M78.8721 398.9C79.7537 399.655 79.8531 400.983 79.0983 401.864C78.3403 402.746 77.0124 402.848 76.1341 402.09C75.2525 401.336 75.15 400.008 75.9079 399.126C76.6659 398.245 77.9906 398.142 78.8753 398.9L78.8721 398.9Z" fill="url(#paint34_radial_1_23933)"/>
<path style="mix-blend-mode:color-dodge" fill-rule="evenodd" clip-rule="evenodd" d="M12.6897 348.191C13.5713 348.949 13.6738 350.274 12.9159 351.159C12.1579 352.04 10.8331 352.143 9.95156 351.385C9.07004 350.63 8.96746 349.302 9.72541 348.421C10.4802 347.539 11.8082 347.436 12.6897 348.191Z" fill="url(#paint35_radial_1_23933)"/>
<path style="mix-blend-mode:color-dodge" fill-rule="evenodd" clip-rule="evenodd" d="M140.618 396.118C141.499 396.873 141.602 398.201 140.844 399.085C140.086 399.967 138.761 400.069 137.879 399.311C136.998 398.557 136.895 397.229 137.653 396.347C138.408 395.466 139.736 395.363 140.618 396.121L140.618 396.118Z" fill="url(#paint36_radial_1_23933)"/>
<path style="mix-blend-mode:color-dodge" fill-rule="evenodd" clip-rule="evenodd" d="M176.886 360.839C177.768 361.594 177.871 362.921 177.113 363.806C176.358 364.688 175.03 364.79 174.148 364.032C173.267 363.274 173.167 361.95 173.922 361.065C174.677 360.183 176.005 360.081 176.886 360.839Z" fill="url(#paint37_radial_1_23933)"/>
<path style="mix-blend-mode:color-dodge" fill-rule="evenodd" clip-rule="evenodd" d="M186.118 345.752C187 346.507 187.102 347.835 186.344 348.716C185.59 349.598 184.262 349.7 183.38 348.942C182.499 348.188 182.396 346.86 183.154 345.978C183.909 345.097 185.24 344.994 186.121 345.752L186.118 345.752Z" fill="url(#paint38_radial_1_23933)"/>
<path style="mix-blend-mode:color-dodge" fill-rule="evenodd" clip-rule="evenodd" d="M108.288 375.431C109.17 376.186 109.272 377.514 108.514 378.399C107.76 379.28 106.432 379.383 105.55 378.625C104.669 377.87 104.566 376.542 105.324 375.661C106.079 374.779 107.407 374.676 108.288 375.434L108.288 375.431Z" fill="url(#paint39_radial_1_23933)"/>
<path style="mix-blend-mode:color-dodge" fill-rule="evenodd" clip-rule="evenodd" d="M166.555 349.799C167.436 350.557 167.539 351.882 166.781 352.766C166.023 353.648 164.698 353.75 163.817 352.992C162.935 352.235 162.836 350.91 163.591 350.028C164.349 349.147 165.676 349.044 166.555 349.799Z" fill="url(#paint40_radial_1_23933)"/>
<path style="mix-blend-mode:color-dodge" fill-rule="evenodd" clip-rule="evenodd" d="M36.9795 113.079C41.8634 116.481 43.0681 123.198 39.6669 128.085C36.2656 132.969 29.5482 134.171 24.6643 130.773C19.7804 127.371 18.5756 120.654 21.9737 115.773C25.3749 110.886 32.0924 109.681 36.9763 113.083L36.9795 113.079Z" fill="url(#paint41_radial_1_23933)"/>
<path style="mix-blend-mode:color-dodge" fill-rule="evenodd" clip-rule="evenodd" d="M68.0471 358.263C72.931 361.664 74.1357 368.382 70.7345 373.269C67.3333 378.153 60.6157 379.354 55.7318 375.956C50.8479 372.555 49.6432 365.841 53.0445 360.957C56.4457 356.07 63.16 354.865 68.0471 358.266L68.0471 358.263Z" fill="url(#paint42_radial_1_23933)"/>
<path style="mix-blend-mode:color-dodge" fill-rule="evenodd" clip-rule="evenodd" d="M78.8811 309.879C83.765 313.28 84.9697 319.998 81.5685 324.885C78.1672 329.769 71.4498 330.97 66.5659 327.572C61.682 324.171 60.4772 317.457 63.8784 312.573C67.2796 307.686 73.9972 306.484 78.8811 309.882L78.8811 309.879Z" fill="url(#paint43_radial_1_23933)"/>
<path style="mix-blend-mode:color-dodge" fill-rule="evenodd" clip-rule="evenodd" d="M53.0825 42.4483C57.9695 45.8495 59.1711 52.567 55.7698 57.4541C52.3718 62.338 45.6543 63.5396 40.7672 60.1415C35.8833 56.7402 34.6786 50.0259 38.0799 45.1389C41.4811 40.2518 48.1954 39.0502 53.0793 42.4483L53.0825 42.4483Z" fill="url(#paint44_radial_1_23933)"/>
<path style="mix-blend-mode:color-dodge" fill-rule="evenodd" clip-rule="evenodd" d="M22.0054 49.622C26.8924 53.0232 28.094 59.7407 24.6927 64.6246C21.2947 69.5085 14.5772 70.7132 9.69015 67.312C4.80625 63.9107 3.60146 57.1964 7.00269 52.3094C10.4039 47.4223 17.1215 46.2207 22.0054 49.6188L22.0054 49.622Z" fill="url(#paint45_radial_1_23933)"/>
<path style="mix-blend-mode:color-dodge" fill-rule="evenodd" clip-rule="evenodd" d="M-5.16388 194.886C-0.279988 198.287 0.924717 205.005 -2.4765 209.888C-5.87458 214.772 -12.592 215.974 -17.4791 212.576C-22.363 209.175 -23.5677 202.46 -20.1665 197.576C-16.7653 192.689 -10.0478 191.485 -5.16388 194.886Z" fill="url(#paint46_radial_1_23933)"/>
<path style="mix-blend-mode:color-dodge" fill-rule="evenodd" clip-rule="evenodd" d="M155.516 358.407C160.403 361.809 161.605 368.526 158.204 373.413C154.806 378.297 148.088 379.502 143.201 376.101C138.317 372.699 137.112 365.985 140.514 361.101C143.915 356.214 150.632 355.012 155.516 358.411L155.516 358.407Z" fill="url(#paint47_radial_1_23933)"/>
<path style="mix-blend-mode:color-dodge" fill-rule="evenodd" clip-rule="evenodd" d="M15.5914 316.724C20.4753 320.125 21.68 326.842 18.2788 331.726C14.8775 336.61 8.1632 337.815 3.27616 334.414C-1.60774 331.012 -2.81245 324.298 0.588777 319.411C3.99001 314.524 10.7075 313.322 15.5914 316.72L15.5914 316.724Z" fill="url(#paint48_radial_1_23933)"/>
<path style="mix-blend-mode:color-dodge" fill-rule="evenodd" clip-rule="evenodd" d="M253.737 331.268C258.621 334.669 259.826 341.387 256.425 346.271C253.024 351.154 246.309 352.359 241.422 348.958C236.538 345.557 235.334 338.842 238.735 333.958C242.136 329.071 248.854 327.867 253.737 331.268Z" fill="url(#paint49_radial_1_23933)"/>
<defs>
<radialGradient id="paint0_radial_1_23933" cx="0" cy="0" r="1" gradientUnits="userSpaceOnUse" gradientTransform="translate(1.3643 367.18) rotate(-55.1605) scale(4.15896)">
<stop stop-color="white"/>
<stop offset="0.17" stop-color="#CCCCCC"/>
<stop offset="0.47" stop-color="#757575"/>
<stop offset="0.72" stop-color="#363636"/>
<stop offset="0.91" stop-color="#0E0E0E"/>
<stop offset="1"/>
</radialGradient>
<radialGradient id="paint1_radial_1_23933" cx="0" cy="0" r="1" gradientUnits="userSpaceOnUse" gradientTransform="translate(32.178 337.46) rotate(-55.1606) scale(4.15896 4.15895)">
<stop stop-color="white"/>
<stop offset="0.17" stop-color="#CCCCCC"/>
<stop offset="0.47" stop-color="#757575"/>
<stop offset="0.72" stop-color="#363636"/>
<stop offset="0.91" stop-color="#0E0E0E"/>
<stop offset="1"/>
</radialGradient>
<radialGradient id="paint2_radial_1_23933" cx="0" cy="0" r="1" gradientUnits="userSpaceOnUse" gradientTransform="translate(82.9755 384.788) rotate(-55.1605) scale(4.15896)">
<stop stop-color="white"/>
<stop offset="0.17" stop-color="#CCCCCC"/>
<stop offset="0.47" stop-color="#757575"/>
<stop offset="0.72" stop-color="#363636"/>
<stop offset="0.91" stop-color="#0E0E0E"/>
<stop offset="1"/>
</radialGradient>
<radialGradient id="paint3_radial_1_23933" cx="0" cy="0" r="1" gradientUnits="userSpaceOnUse" gradientTransform="translate(105.719 76.0423) rotate(-80.3606) scale(4.15897)">
<stop stop-color="white"/>
<stop offset="0.17" stop-color="#CCCCCC"/>
<stop offset="0.47" stop-color="#757575"/>
<stop offset="0.72" stop-color="#363636"/>
<stop offset="0.91" stop-color="#0E0E0E"/>
<stop offset="1"/>
</radialGradient>
<radialGradient id="paint4_radial_1_23933" cx="0" cy="0" r="1" gradientUnits="userSpaceOnUse" gradientTransform="translate(58.7308 110.338) rotate(-80.3606) scale(4.15897)">
<stop stop-color="white"/>
<stop offset="0.17" stop-color="#CCCCCC"/>
<stop offset="0.47" stop-color="#757575"/>
<stop offset="0.72" stop-color="#363636"/>
<stop offset="0.91" stop-color="#0E0E0E"/>
<stop offset="1"/>
</radialGradient>
<radialGradient id="paint5_radial_1_23933" cx="0" cy="0" r="1" gradientUnits="userSpaceOnUse" gradientTransform="translate(197.246 335.229) rotate(-55.1606) scale(4.15896)">
<stop stop-color="white"/>
<stop offset="0.17" stop-color="#CCCCCC"/>
<stop offset="0.47" stop-color="#757575"/>
<stop offset="0.72" stop-color="#363636"/>
<stop offset="0.91" stop-color="#0E0E0E"/>
<stop offset="1"/>
</radialGradient>
<radialGradient id="paint6_radial_1_23933" cx="0" cy="0" r="1" gradientUnits="userSpaceOnUse" gradientTransform="translate(48.2015 40.1776) rotate(-54.3605) scale(4.15896 4.15897)">
<stop stop-color="white"/>
<stop offset="0.17" stop-color="#CCCCCC"/>
<stop offset="0.47" stop-color="#757575"/>
<stop offset="0.72" stop-color="#363636"/>
<stop offset="0.91" stop-color="#0E0E0E"/>
<stop offset="1"/>
</radialGradient>
<radialGradient id="paint7_radial_1_23933" cx="0" cy="0" r="1" gradientUnits="userSpaceOnUse" gradientTransform="translate(43.154 70.0923) rotate(-54.3606) scale(4.15896 4.15896)">
<stop stop-color="white"/>
<stop offset="0.17" stop-color="#CCCCCC"/>
<stop offset="0.47" stop-color="#757575"/>
<stop offset="0.72" stop-color="#363636"/>
<stop offset="0.91" stop-color="#0E0E0E"/>
<stop offset="1"/>
</radialGradient>
<radialGradient id="paint8_radial_1_23933" cx="0" cy="0" r="1" gradientUnits="userSpaceOnUse" gradientTransform="translate(43.457 89.1613) rotate(-54.3606) scale(4.15895 4.15894)">
<stop stop-color="white"/>
<stop offset="0.17" stop-color="#CCCCCC"/>
<stop offset="0.47" stop-color="#757575"/>
<stop offset="0.72" stop-color="#363636"/>
<stop offset="0.91" stop-color="#0E0E0E"/>
<stop offset="1"/>
</radialGradient>
<radialGradient id="paint9_radial_1_23933" cx="0" cy="0" r="1" gradientUnits="userSpaceOnUse" gradientTransform="translate(6.20965 38.6181) rotate(-54.3605) scale(4.15895 4.15895)">
<stop stop-color="white"/>
<stop offset="0.17" stop-color="#CCCCCC"/>
<stop offset="0.47" stop-color="#757575"/>
<stop offset="0.72" stop-color="#363636"/>
<stop offset="0.91" stop-color="#0E0E0E"/>
<stop offset="1"/>
</radialGradient>
<radialGradient id="paint10_radial_1_23933" cx="0" cy="0" r="1" gradientUnits="userSpaceOnUse" gradientTransform="translate(111.67 386.02) rotate(-54.3605) scale(4.15896 4.15897)">
<stop stop-color="white"/>
<stop offset="0.17" stop-color="#CCCCCC"/>
<stop offset="0.47" stop-color="#757575"/>
<stop offset="0.72" stop-color="#363636"/>
<stop offset="0.91" stop-color="#0E0E0E"/>
<stop offset="1"/>
</radialGradient>
<radialGradient id="paint11_radial_1_23933" cx="0" cy="0" r="1" gradientUnits="userSpaceOnUse" gradientTransform="translate(120.102 403.099) rotate(-54.3606) scale(4.15896 4.15896)">
<stop stop-color="white"/>
<stop offset="0.17" stop-color="#CCCCCC"/>
<stop offset="0.47" stop-color="#757575"/>
<stop offset="0.72" stop-color="#363636"/>
<stop offset="0.91" stop-color="#0E0E0E"/>
<stop offset="1"/>
</radialGradient>
<radialGradient id="paint12_radial_1_23933" cx="0" cy="0" r="1" gradientUnits="userSpaceOnUse" gradientTransform="translate(0.915031 349.056) rotate(-55.1606) scale(4.15896 4.15895)">
<stop stop-color="white"/>
<stop offset="0.17" stop-color="#CCCCCC"/>
<stop offset="0.47" stop-color="#757575"/>
<stop offset="0.72" stop-color="#363636"/>
<stop offset="0.91" stop-color="#0E0E0E"/>
<stop offset="1"/>
</radialGradient>
<radialGradient id="paint13_radial_1_23933" cx="0" cy="0" r="1" gradientUnits="userSpaceOnUse" gradientTransform="translate(21.1836 322.621) rotate(-55.1605) scale(2.10465 2.10465)">
<stop stop-color="white"/>
<stop offset="0.17" stop-color="#CCCCCC"/>
<stop offset="0.47" stop-color="#757575"/>
<stop offset="0.72" stop-color="#363636"/>
<stop offset="0.91" stop-color="#0E0E0E"/>
<stop offset="1"/>
</radialGradient>
<radialGradient id="paint14_radial_1_23933" cx="0" cy="0" r="1" gradientUnits="userSpaceOnUse" gradientTransform="translate(40.8081 311.163) rotate(-55.1605) scale(2.10465 2.10465)">
<stop stop-color="white"/>
<stop offset="0.17" stop-color="#CCCCCC"/>
<stop offset="0.47" stop-color="#757575"/>
<stop offset="0.72" stop-color="#363636"/>
<stop offset="0.91" stop-color="#0E0E0E"/>
<stop offset="1"/>
</radialGradient>
<radialGradient id="paint15_radial_1_23933" cx="0" cy="0" r="1" gradientUnits="userSpaceOnUse" gradientTransform="translate(125.55 390.536) rotate(-55.1605) scale(2.10465 2.10465)">
<stop stop-color="white"/>
<stop offset="0.17" stop-color="#CCCCCC"/>
<stop offset="0.47" stop-color="#757575"/>
<stop offset="0.72" stop-color="#363636"/>
<stop offset="0.91" stop-color="#0E0E0E"/>
<stop offset="1"/>
</radialGradient>
<radialGradient id="paint16_radial_1_23933" cx="0" cy="0" r="1" gradientUnits="userSpaceOnUse" gradientTransform="translate(34.8031 77.7613) rotate(-55.1606) scale(2.10465)">
<stop stop-color="white"/>
<stop offset="0.17" stop-color="#CCCCCC"/>
<stop offset="0.47" stop-color="#757575"/>
<stop offset="0.72" stop-color="#363636"/>
<stop offset="0.91" stop-color="#0E0E0E"/>
<stop offset="1"/>
</radialGradient>
<radialGradient id="paint17_radial_1_23933" cx="0" cy="0" r="1" gradientUnits="userSpaceOnUse" gradientTransform="translate(1.75496 198.914) rotate(-55.1605) scale(2.10465 2.10465)">
<stop stop-color="white"/>
<stop offset="0.17" stop-color="#CCCCCC"/>
<stop offset="0.47" stop-color="#757575"/>
<stop offset="0.72" stop-color="#363636"/>
<stop offset="0.91" stop-color="#0E0E0E"/>
<stop offset="1"/>
</radialGradient>
<radialGradient id="paint18_radial_1_23933" cx="0" cy="0" r="1" gradientUnits="userSpaceOnUse" gradientTransform="translate(59.2744 90.315) rotate(-80.3606) scale(2.10464)">
<stop stop-color="white"/>
<stop offset="0.17" stop-color="#CCCCCC"/>
<stop offset="0.47" stop-color="#757575"/>
<stop offset="0.72" stop-color="#363636"/>
<stop offset="0.91" stop-color="#0E0E0E"/>
<stop offset="1"/>
</radialGradient>
<radialGradient id="paint19_radial_1_23933" cx="0" cy="0" r="1" gradientUnits="userSpaceOnUse" gradientTransform="translate(50.1347 55.7357) rotate(-55.1605) scale(2.10465 2.10465)">
<stop stop-color="white"/>
<stop offset="0.17" stop-color="#CCCCCC"/>
<stop offset="0.47" stop-color="#757575"/>
<stop offset="0.72" stop-color="#363636"/>
<stop offset="0.91" stop-color="#0E0E0E"/>
<stop offset="1"/>
</radialGradient>
<radialGradient id="paint20_radial_1_23933" cx="0" cy="0" r="1" gradientUnits="userSpaceOnUse" gradientTransform="translate(2.10962 46.7325) rotate(-55.1605) scale(2.10465 2.10465)">
<stop stop-color="white"/>
<stop offset="0.17" stop-color="#CCCCCC"/>
<stop offset="0.47" stop-color="#757575"/>
<stop offset="0.72" stop-color="#363636"/>
<stop offset="0.91" stop-color="#0E0E0E"/>
<stop offset="1"/>
</radialGradient>
<radialGradient id="paint21_radial_1_23933" cx="0" cy="0" r="1" gradientUnits="userSpaceOnUse" gradientTransform="translate(31.9343 66.7999) rotate(-55.1605) scale(2.10465 2.10465)">
<stop stop-color="white"/>
<stop offset="0.17" stop-color="#CCCCCC"/>
<stop offset="0.47" stop-color="#757575"/>
<stop offset="0.72" stop-color="#363636"/>
<stop offset="0.91" stop-color="#0E0E0E"/>
<stop offset="1"/>
</radialGradient>
<radialGradient id="paint22_radial_1_23933" cx="0" cy="0" r="1" gradientUnits="userSpaceOnUse" gradientTransform="translate(96.6775 338.371) rotate(-55.1607) scale(2.1015 2.1015)">
<stop stop-color="white"/>
<stop offset="0.17" stop-color="#CCCCCC"/>
<stop offset="0.47" stop-color="#757575"/>
<stop offset="0.72" stop-color="#363636"/>
<stop offset="0.91" stop-color="#0E0E0E"/>
<stop offset="1"/>
</radialGradient>
<radialGradient id="paint23_radial_1_23933" cx="0" cy="0" r="1" gradientUnits="userSpaceOnUse" gradientTransform="translate(94.8946 402.597) rotate(-55.1606) scale(2.1015 2.1015)">
<stop stop-color="white"/>
<stop offset="0.17" stop-color="#CCCCCC"/>
<stop offset="0.47" stop-color="#757575"/>
<stop offset="0.72" stop-color="#363636"/>
<stop offset="0.91" stop-color="#0E0E0E"/>
<stop offset="1"/>
</radialGradient>
<radialGradient id="paint24_radial_1_23933" cx="0" cy="0" r="1" gradientUnits="userSpaceOnUse" gradientTransform="translate(30.376 350.604) rotate(-55.1605) scale(2.10465 2.10465)">
<stop stop-color="white"/>
<stop offset="0.17" stop-color="#CCCCCC"/>
<stop offset="0.47" stop-color="#757575"/>
<stop offset="0.72" stop-color="#363636"/>
<stop offset="0.91" stop-color="#0E0E0E"/>
<stop offset="1"/>
</radialGradient>
<radialGradient id="paint25_radial_1_23933" cx="0" cy="0" r="1" gradientUnits="userSpaceOnUse" gradientTransform="translate(197.129 347.238) rotate(-55.1605) scale(2.10465 2.10465)">
<stop stop-color="white"/>
<stop offset="0.17" stop-color="#CCCCCC"/>
<stop offset="0.47" stop-color="#757575"/>
<stop offset="0.72" stop-color="#363636"/>
<stop offset="0.91" stop-color="#0E0E0E"/>
<stop offset="1"/>
</radialGradient>
<radialGradient id="paint26_radial_1_23933" cx="0" cy="0" r="1" gradientUnits="userSpaceOnUse" gradientTransform="translate(235.308 326.842) rotate(-55.1605) scale(2.10465 2.10465)">
<stop stop-color="white"/>
<stop offset="0.17" stop-color="#CCCCCC"/>
<stop offset="0.47" stop-color="#757575"/>
<stop offset="0.72" stop-color="#363636"/>
<stop offset="0.91" stop-color="#0E0E0E"/>
<stop offset="1"/>
</radialGradient>
<radialGradient id="paint27_radial_1_23933" cx="0" cy="0" r="1" gradientUnits="userSpaceOnUse" gradientTransform="translate(214.553 327.139) rotate(-55.1605) scale(2.10465 2.10465)">
<stop stop-color="white"/>
<stop offset="0.17" stop-color="#CCCCCC"/>
<stop offset="0.47" stop-color="#757575"/>
<stop offset="0.72" stop-color="#363636"/>
<stop offset="0.91" stop-color="#0E0E0E"/>
<stop offset="1"/>
</radialGradient>
<radialGradient id="paint28_radial_1_23933" cx="0" cy="0" r="1" gradientUnits="userSpaceOnUse" gradientTransform="translate(71.8132 352.845) rotate(-55.1605) scale(2.10465 2.10465)">
<stop stop-color="white"/>
<stop offset="0.17" stop-color="#CCCCCC"/>
<stop offset="0.47" stop-color="#757575"/>
<stop offset="0.72" stop-color="#363636"/>
<stop offset="0.91" stop-color="#0E0E0E"/>
<stop offset="1"/>
</radialGradient>
<radialGradient id="paint29_radial_1_23933" cx="0" cy="0" r="1" gradientUnits="userSpaceOnUse" gradientTransform="translate(42.5119 3.62137) rotate(-80.3606) scale(2.10466 2.10464)">
<stop stop-color="white"/>
<stop offset="0.17" stop-color="#CCCCCC"/>
<stop offset="0.47" stop-color="#757575"/>
<stop offset="0.72" stop-color="#363636"/>
<stop offset="0.91" stop-color="#0E0E0E"/>
<stop offset="1"/>
</radialGradient>
<radialGradient id="paint30_radial_1_23933" cx="0" cy="0" r="1" gradientUnits="userSpaceOnUse" gradientTransform="translate(43.9137 23.5852) rotate(-80.3604) scale(2.10464 2.10468)">
<stop stop-color="white"/>
<stop offset="0.17" stop-color="#CCCCCC"/>
<stop offset="0.47" stop-color="#757575"/>
<stop offset="0.72" stop-color="#363636"/>
<stop offset="0.91" stop-color="#0E0E0E"/>
<stop offset="1"/>
</radialGradient>
<radialGradient id="paint31_radial_1_23933" cx="0" cy="0" r="1" gradientUnits="userSpaceOnUse" gradientTransform="translate(82.8189 88.7101) rotate(-80.3606) scale(2.10464)">
<stop stop-color="white"/>
<stop offset="0.17" stop-color="#CCCCCC"/>
<stop offset="0.47" stop-color="#757575"/>
<stop offset="0.72" stop-color="#363636"/>
<stop offset="0.91" stop-color="#0E0E0E"/>
<stop offset="1"/>
</radialGradient>
<radialGradient id="paint32_radial_1_23933" cx="0" cy="0" r="1" gradientUnits="userSpaceOnUse" gradientTransform="translate(28.0624 51.155) rotate(-55.1605) scale(2.1015 2.10151)">
<stop stop-color="white"/>
<stop offset="0.17" stop-color="#CCCCCC"/>
<stop offset="0.47" stop-color="#757575"/>
<stop offset="0.72" stop-color="#363636"/>
<stop offset="0.91" stop-color="#0E0E0E"/>
<stop offset="1"/>
</radialGradient>
<radialGradient id="paint33_radial_1_23933" cx="0" cy="0" r="1" gradientUnits="userSpaceOnUse" gradientTransform="translate(5.25171 338.229) rotate(-49.3807) scale(2.10464 2.10464)">
<stop stop-color="white"/>
<stop offset="0.17" stop-color="#CCCCCC"/>
<stop offset="0.47" stop-color="#757575"/>
<stop offset="0.72" stop-color="#363636"/>
<stop offset="0.91" stop-color="#0E0E0E"/>
<stop offset="1"/>
</radialGradient>
<radialGradient id="paint34_radial_1_23933" cx="0" cy="0" r="1" gradientUnits="userSpaceOnUse" gradientTransform="translate(77.5718 400.493) rotate(-49.3807) scale(2.10464 2.10464)">
<stop stop-color="white"/>
<stop offset="0.17" stop-color="#CCCCCC"/>
<stop offset="0.47" stop-color="#757575"/>
<stop offset="0.72" stop-color="#363636"/>
<stop offset="0.91" stop-color="#0E0E0E"/>
<stop offset="1"/>
</radialGradient>
<radialGradient id="paint35_radial_1_23933" cx="0" cy="0" r="1" gradientUnits="userSpaceOnUse" gradientTransform="translate(11.3826 349.785) rotate(-49.3802) scale(2.10466 2.10466)">
<stop stop-color="white"/>
<stop offset="0.17" stop-color="#CCCCCC"/>
<stop offset="0.47" stop-color="#757575"/>
<stop offset="0.72" stop-color="#363636"/>
<stop offset="0.91" stop-color="#0E0E0E"/>
<stop offset="1"/>
</radialGradient>
<radialGradient id="paint36_radial_1_23933" cx="0" cy="0" r="1" gradientUnits="userSpaceOnUse" gradientTransform="translate(139.322 397.709) rotate(-49.3807) scale(2.10464 2.10464)">
<stop stop-color="white"/>
<stop offset="0.17" stop-color="#CCCCCC"/>
<stop offset="0.47" stop-color="#757575"/>
<stop offset="0.72" stop-color="#363636"/>
<stop offset="0.91" stop-color="#0E0E0E"/>
<stop offset="1"/>
</radialGradient>
<radialGradient id="paint37_radial_1_23933" cx="0" cy="0" r="1" gradientUnits="userSpaceOnUse" gradientTransform="translate(175.593 362.424) rotate(-49.3807) scale(2.10464 2.10464)">
<stop stop-color="white"/>
<stop offset="0.17" stop-color="#CCCCCC"/>
<stop offset="0.47" stop-color="#757575"/>
<stop offset="0.72" stop-color="#363636"/>
<stop offset="0.91" stop-color="#0E0E0E"/>
<stop offset="1"/>
</radialGradient>
<radialGradient id="paint38_radial_1_23933" cx="0" cy="0" r="1" gradientUnits="userSpaceOnUse" gradientTransform="translate(184.824 347.338) rotate(-49.3802) scale(2.10466 2.10466)">
<stop stop-color="white"/>
<stop offset="0.17" stop-color="#CCCCCC"/>
<stop offset="0.47" stop-color="#757575"/>
<stop offset="0.72" stop-color="#363636"/>
<stop offset="0.91" stop-color="#0E0E0E"/>
<stop offset="1"/>
</radialGradient>
<radialGradient id="paint39_radial_1_23933" cx="0" cy="0" r="1" gradientUnits="userSpaceOnUse" gradientTransform="translate(106.989 377.021) rotate(-49.3807) scale(2.10464 2.10464)">
<stop stop-color="white"/>
<stop offset="0.17" stop-color="#CCCCCC"/>
<stop offset="0.47" stop-color="#757575"/>
<stop offset="0.72" stop-color="#363636"/>
<stop offset="0.91" stop-color="#0E0E0E"/>
<stop offset="1"/>
</radialGradient>
<radialGradient id="paint40_radial_1_23933" cx="0" cy="0" r="1" gradientUnits="userSpaceOnUse" gradientTransform="translate(165.262 351.384) rotate(-49.3807) scale(2.10464 2.10464)">
<stop stop-color="white"/>
<stop offset="0.17" stop-color="#CCCCCC"/>
<stop offset="0.47" stop-color="#757575"/>
<stop offset="0.72" stop-color="#363636"/>
<stop offset="0.91" stop-color="#0E0E0E"/>
<stop offset="1"/>
</radialGradient>
<radialGradient id="paint41_radial_1_23933" cx="0" cy="0" r="1" gradientUnits="userSpaceOnUse" gradientTransform="translate(30.8283 121.899) rotate(-55.1605) scale(10.7781 10.7781)">
<stop stop-color="white"/>
<stop offset="0.17" stop-color="#CCCCCC"/>
<stop offset="0.47" stop-color="#757575"/>
<stop offset="0.72" stop-color="#363636"/>
<stop offset="0.91" stop-color="#0E0E0E"/>
<stop offset="1"/>
</radialGradient>
<radialGradient id="paint42_radial_1_23933" cx="0" cy="0" r="1" gradientUnits="userSpaceOnUse" gradientTransform="translate(61.9067 367.086) rotate(-55.1605) scale(10.7781 10.7781)">
<stop stop-color="white"/>
<stop offset="0.17" stop-color="#CCCCCC"/>
<stop offset="0.47" stop-color="#757575"/>
<stop offset="0.72" stop-color="#363636"/>
<stop offset="0.91" stop-color="#0E0E0E"/>
<stop offset="1"/>
</radialGradient>
<radialGradient id="paint43_radial_1_23933" cx="0" cy="0" r="1" gradientUnits="userSpaceOnUse" gradientTransform="translate(72.7379 318.698) rotate(-55.1605) scale(10.7781 10.7781)">
<stop stop-color="white"/>
<stop offset="0.17" stop-color="#CCCCCC"/>
<stop offset="0.47" stop-color="#757575"/>
<stop offset="0.72" stop-color="#363636"/>
<stop offset="0.91" stop-color="#0E0E0E"/>
<stop offset="1"/>
</radialGradient>
<radialGradient id="paint44_radial_1_23933" cx="0" cy="0" r="1" gradientUnits="userSpaceOnUse" gradientTransform="translate(46.9259 51.2655) rotate(-55.1606) scale(10.7781 10.7781)">
<stop stop-color="white"/>
<stop offset="0.17" stop-color="#CCCCCC"/>
<stop offset="0.47" stop-color="#757575"/>
<stop offset="0.72" stop-color="#363636"/>
<stop offset="0.91" stop-color="#0E0E0E"/>
<stop offset="1"/>
</radialGradient>
<radialGradient id="paint45_radial_1_23933" cx="0" cy="0" r="1" gradientUnits="userSpaceOnUse" gradientTransform="translate(15.8493 58.4394) rotate(-55.1605) scale(10.7781 10.7781)">
<stop stop-color="white"/>
<stop offset="0.17" stop-color="#CCCCCC"/>
<stop offset="0.47" stop-color="#757575"/>
<stop offset="0.72" stop-color="#363636"/>
<stop offset="0.91" stop-color="#0E0E0E"/>
<stop offset="1"/>
</radialGradient>
<radialGradient id="paint46_radial_1_23933" cx="0" cy="0" r="1" gradientUnits="userSpaceOnUse" gradientTransform="translate(-11.3124 203.71) rotate(-55.1606) scale(10.7781 10.7781)">
<stop stop-color="white"/>
<stop offset="0.17" stop-color="#CCCCCC"/>
<stop offset="0.47" stop-color="#757575"/>
<stop offset="0.72" stop-color="#363636"/>
<stop offset="0.91" stop-color="#0E0E0E"/>
<stop offset="1"/>
</radialGradient>
<radialGradient id="paint47_radial_1_23933" cx="0" cy="0" r="1" gradientUnits="userSpaceOnUse" gradientTransform="translate(149.378 367.225) rotate(-55.1606) scale(10.7781 10.7781)">
<stop stop-color="white"/>
<stop offset="0.17" stop-color="#CCCCCC"/>
<stop offset="0.47" stop-color="#757575"/>
<stop offset="0.72" stop-color="#363636"/>
<stop offset="0.91" stop-color="#0E0E0E"/>
<stop offset="1"/>
</radialGradient>
<radialGradient id="paint48_radial_1_23933" cx="0" cy="0" r="1" gradientUnits="userSpaceOnUse" gradientTransform="translate(9.44696 325.546) rotate(-55.1606) scale(10.7781 10.7781)">
<stop stop-color="white"/>
<stop offset="0.17" stop-color="#CCCCCC"/>
<stop offset="0.47" stop-color="#757575"/>
<stop offset="0.72" stop-color="#363636"/>
<stop offset="0.91" stop-color="#0E0E0E"/>
<stop offset="1"/>
</radialGradient>
<radialGradient id="paint49_radial_1_23933" cx="0" cy="0" r="1" gradientUnits="userSpaceOnUse" gradientTransform="translate(247.597 340.078) rotate(-55.1605) scale(10.7781 10.7781)">
<stop stop-color="white"/>
<stop offset="0.17" stop-color="#CCCCCC"/>
<stop offset="0.47" stop-color="#757575"/>
<stop offset="0.72" stop-color="#363636"/>
<stop offset="0.91" stop-color="#0E0E0E"/>
<stop offset="1"/>
</radialGradient>
</defs>
</svg>
