<svg width="264" height="408" viewBox="0 0 264 408" fill="none" xmlns="http://www.w3.org/2000/svg">
<path style="mix-blend-mode:color-dodge" fill-rule="evenodd" clip-rule="evenodd" d="M255.754 43.8879C253.868 42.5761 253.404 39.9854 254.716 38.099C256.028 36.2158 258.619 35.7493 260.505 37.0611C262.388 38.3729 262.851 40.9636 261.543 42.85C260.231 44.7364 257.64 45.1997 255.754 43.8879Z" fill="url(#paint0_radial_1_23684)"/>
<path style="mix-blend-mode:color-dodge" fill-rule="evenodd" clip-rule="evenodd" d="M224.939 73.6035C223.056 72.2917 222.589 69.701 223.901 67.8146C225.213 65.9313 227.803 65.4649 229.69 66.7767C231.573 68.0885 232.04 70.6792 230.728 72.5656C229.416 74.4488 226.822 74.9153 224.939 73.6035Z" fill="url(#paint1_radial_1_23684)"/>
<path style="mix-blend-mode:color-dodge" fill-rule="evenodd" clip-rule="evenodd" d="M174.142 26.2747C172.259 24.9629 171.792 22.3722 173.107 20.4858C174.419 18.5994 177.01 18.1361 178.896 19.4479C180.779 20.7597 181.246 23.3504 179.934 25.2368C178.622 27.1232 176.031 27.5866 174.145 26.2747L174.142 26.2747Z" fill="url(#paint2_radial_1_23684)"/>
<path style="mix-blend-mode:color-dodge" fill-rule="evenodd" clip-rule="evenodd" d="M153.029 335.795C150.765 335.41 149.24 333.262 149.625 330.998C150.01 328.734 152.158 327.209 154.422 327.595C156.685 327.98 158.207 330.127 157.825 332.391C157.44 334.655 155.293 336.18 153.029 335.795Z" fill="url(#paint3_radial_1_23684)"/>
<path style="mix-blend-mode:color-dodge" fill-rule="evenodd" clip-rule="evenodd" d="M200.023 301.499C197.759 301.114 196.234 298.966 196.619 296.702C197.004 294.438 199.152 292.917 201.416 293.302C203.68 293.687 205.201 295.834 204.82 298.098C204.435 300.362 202.287 301.887 200.023 301.502L200.023 301.499Z" fill="url(#paint4_radial_1_23684)"/>
<path style="mix-blend-mode:color-dodge" fill-rule="evenodd" clip-rule="evenodd" d="M59.8692 75.8273C57.986 74.5155 57.5195 71.9217 58.8313 70.0385C60.1431 68.1552 62.7369 67.6887 64.6202 69.0037C66.5034 70.3155 66.9699 72.9062 65.655 74.7894C64.3432 76.6758 61.7524 77.1392 59.8661 75.8273L59.8692 75.8273Z" fill="url(#paint5_radial_1_23684)"/>
<path style="mix-blend-mode:color-dodge" fill-rule="evenodd" clip-rule="evenodd" d="M208.937 370.864C207.07 369.527 206.641 366.927 207.981 365.059C209.318 363.195 211.918 362.766 213.783 364.103C215.65 365.44 216.076 368.037 214.739 369.904C213.402 371.772 210.802 372.201 208.934 370.864L208.937 370.864Z" fill="url(#paint6_radial_1_23684)"/>
<path style="mix-blend-mode:color-dodge" fill-rule="evenodd" clip-rule="evenodd" d="M213.982 340.954C212.118 339.617 211.689 337.017 213.026 335.149C214.363 333.282 216.963 332.856 218.827 334.193C220.694 335.53 221.123 338.127 219.783 339.994C218.446 341.862 215.849 342.291 213.979 340.954L213.982 340.954Z" fill="url(#paint7_radial_1_23684)"/>
<path style="mix-blend-mode:color-dodge" fill-rule="evenodd" clip-rule="evenodd" d="M213.678 321.885C211.811 320.545 211.382 317.948 212.722 316.081C214.059 314.214 216.659 313.788 218.524 315.125C220.388 316.462 220.82 319.059 219.48 320.926C218.143 322.794 215.543 323.222 213.678 321.885Z" fill="url(#paint8_radial_1_23684)"/>
<path style="mix-blend-mode:color-dodge" fill-rule="evenodd" clip-rule="evenodd" d="M250.922 372.425C249.058 371.088 248.626 368.488 249.966 366.621C251.303 364.754 253.903 364.328 255.767 365.665C257.635 367.002 258.06 369.599 256.723 371.466C255.386 373.334 252.786 373.762 250.922 372.422L250.922 372.425Z" fill="url(#paint9_radial_1_23684)"/>
<path style="mix-blend-mode:color-dodge" fill-rule="evenodd" clip-rule="evenodd" d="M145.475 25.0731C143.608 23.7361 143.179 21.1361 144.519 19.2687C145.856 17.4013 148.456 16.9757 150.32 18.3126C152.188 19.6496 152.616 22.2464 151.276 24.1138C149.939 25.9813 147.339 26.41 145.475 25.0731Z" fill="url(#paint10_radial_1_23684)"/>
<path style="mix-blend-mode:color-dodge" fill-rule="evenodd" clip-rule="evenodd" d="M137.045 7.99616C135.178 6.65924 134.749 4.05924 136.089 2.19181C137.426 0.324378 140.026 -0.101167 141.89 1.23575C143.755 2.57266 144.186 5.17266 142.846 7.03694C141.506 8.90437 138.909 9.33307 137.042 7.99615L137.045 7.99616Z" fill="url(#paint11_radial_1_23684)"/>
<path style="mix-blend-mode:color-dodge" fill-rule="evenodd" clip-rule="evenodd" d="M256.202 62.0102C254.319 60.6984 253.852 58.1046 255.164 56.2213C256.476 54.3381 259.069 53.8716 260.953 55.1834C262.836 56.4952 263.302 59.0859 261.991 60.9723C260.679 62.8587 258.088 63.322 256.202 62.0102Z" fill="url(#paint12_radial_1_23684)"/>
<path style="mix-blend-mode:color-dodge" fill-rule="evenodd" clip-rule="evenodd" d="M237.107 86.7569C236.153 86.0931 235.918 84.7804 236.582 83.8294C237.246 82.8752 238.558 82.6404 239.509 83.3042C240.463 83.968 240.698 85.2775 240.031 86.2317C239.367 87.1859 238.058 87.4207 237.104 86.7569L237.107 86.7569Z" fill="url(#paint13_radial_1_23684)"/>
<path style="mix-blend-mode:color-dodge" fill-rule="evenodd" clip-rule="evenodd" d="M217.479 98.2113C216.524 97.5475 216.29 96.2348 216.953 95.2838C217.617 94.3296 218.927 94.098 219.881 94.7587C220.835 95.4225 221.07 96.732 220.406 97.6862C219.742 98.6403 218.43 98.8751 217.479 98.2113Z" fill="url(#paint14_radial_1_23684)"/>
<path style="mix-blend-mode:color-dodge" fill-rule="evenodd" clip-rule="evenodd" d="M132.745 18.8367C131.791 18.1729 131.556 16.8634 132.22 15.9092C132.884 14.955 134.197 14.7203 135.148 15.3841C136.102 16.0479 136.337 17.3574 135.673 18.3116C135.009 19.2657 133.696 19.5005 132.745 18.8367Z" fill="url(#paint15_radial_1_23684)"/>
<path style="mix-blend-mode:color-dodge" fill-rule="evenodd" clip-rule="evenodd" d="M223.474 331.614C222.52 330.95 222.286 329.637 222.949 328.683C223.613 327.729 224.923 327.494 225.877 328.158C226.831 328.822 227.066 330.131 226.402 331.086C225.738 332.04 224.429 332.274 223.474 331.611L223.474 331.614Z" fill="url(#paint16_radial_1_23684)"/>
<path style="mix-blend-mode:color-dodge" fill-rule="evenodd" clip-rule="evenodd" d="M256.526 210.464C255.572 209.8 255.338 208.487 256.001 207.536C256.665 206.582 257.978 206.347 258.929 207.011C259.883 207.675 260.118 208.985 259.454 209.939C258.79 210.893 257.477 211.128 256.526 210.464Z" fill="url(#paint17_radial_1_23684)"/>
<path style="mix-blend-mode:color-dodge" fill-rule="evenodd" clip-rule="evenodd" d="M199.824 319.496C198.679 319.3 197.909 318.215 198.101 317.071C198.294 315.926 199.382 315.156 200.526 315.349C201.671 315.544 202.441 316.629 202.248 317.774C202.053 318.918 200.968 319.688 199.824 319.496Z" fill="url(#paint18_radial_1_23684)"/>
<path style="mix-blend-mode:color-dodge" fill-rule="evenodd" clip-rule="evenodd" d="M208.139 353.639C207.185 352.975 206.95 351.662 207.614 350.711C208.278 349.757 209.59 349.523 210.541 350.186C211.496 350.85 211.73 352.16 211.067 353.114C210.403 354.068 209.093 354.303 208.139 353.639Z" fill="url(#paint19_radial_1_23684)"/>
<path style="mix-blend-mode:color-dodge" fill-rule="evenodd" clip-rule="evenodd" d="M263.794 281.72C262.84 281.056 262.605 279.746 263.269 278.792C263.933 277.838 265.242 277.603 266.196 278.267C267.147 278.931 267.385 280.24 266.722 281.194C266.058 282.149 264.748 282.383 263.794 281.72Z" fill="url(#paint20_radial_1_23684)"/>
<path style="mix-blend-mode:color-dodge" fill-rule="evenodd" clip-rule="evenodd" d="M256.162 362.645C255.208 361.981 254.973 360.668 255.637 359.717C256.301 358.763 257.613 358.528 258.564 359.192C259.518 359.856 259.753 361.165 259.089 362.119C258.426 363.074 257.116 363.308 256.162 362.645Z" fill="url(#paint21_radial_1_23684)"/>
<path style="mix-blend-mode:color-dodge" fill-rule="evenodd" clip-rule="evenodd" d="M226.342 342.574C225.388 341.91 225.153 340.6 225.82 339.646C226.484 338.692 227.793 338.457 228.748 339.121C229.702 339.785 229.937 341.094 229.273 342.049C228.609 343.003 227.296 343.238 226.345 342.574L226.342 342.574Z" fill="url(#paint22_radial_1_23684)"/>
<path style="mix-blend-mode:color-dodge" fill-rule="evenodd" clip-rule="evenodd" d="M161.612 71.0039C160.658 70.3401 160.423 69.0306 161.087 68.0764C161.751 67.1223 163.06 66.8875 164.014 67.5513C164.968 68.2151 165.203 69.5246 164.539 70.4788C163.876 71.433 162.566 71.6677 161.612 71.0039Z" fill="url(#paint23_radial_1_23684)"/>
<path style="mix-blend-mode:color-dodge" fill-rule="evenodd" clip-rule="evenodd" d="M163.398 6.77785C162.444 6.11404 162.209 4.80453 162.876 3.85036C163.54 2.89618 164.849 2.66141 165.804 3.32522C166.758 3.98903 166.993 5.29853 166.329 6.25272C165.665 7.2069 164.356 7.44167 163.401 6.77786L163.398 6.77785Z" fill="url(#paint24_radial_1_23684)"/>
<path style="mix-blend-mode:color-dodge" fill-rule="evenodd" clip-rule="evenodd" d="M227.914 58.7737C226.96 58.1099 226.725 56.8004 227.389 55.8462C228.052 54.892 229.362 54.6573 230.316 55.3211C231.267 55.9849 231.502 57.2944 230.841 58.2486C230.177 59.2028 228.868 59.4375 227.914 58.7737Z" fill="url(#paint25_radial_1_23684)"/>
<path style="mix-blend-mode:color-dodge" fill-rule="evenodd" clip-rule="evenodd" d="M61.1621 62.1328C60.2079 61.469 59.9731 60.1595 60.6369 59.2053C61.3007 58.2512 62.6103 58.0164 63.5644 58.6802C64.5186 59.344 64.7534 60.6535 64.0896 61.6077C63.4258 62.5619 62.1162 62.7966 61.1621 62.1328Z" fill="url(#paint26_radial_1_23684)"/>
<path style="mix-blend-mode:color-dodge" fill-rule="evenodd" clip-rule="evenodd" d="M22.984 82.5247C22.0298 81.8609 21.795 80.5482 22.4588 79.5972C23.1226 78.643 24.4322 78.4082 25.3863 79.0721C26.3405 79.7359 26.5753 81.0454 25.9115 81.9995C25.2477 82.9537 23.9381 83.1885 22.984 82.5247Z" fill="url(#paint27_radial_1_23684)"/>
<path style="mix-blend-mode:color-dodge" fill-rule="evenodd" clip-rule="evenodd" d="M43.7388 82.2285C42.7847 81.5647 42.5499 80.2552 43.2137 79.301C43.8775 78.3469 45.1902 78.1121 46.1412 78.7759C47.0954 79.4397 47.3302 80.7492 46.6664 81.7034C46.0025 82.6576 44.693 82.8924 43.7388 82.2285Z" fill="url(#paint28_radial_1_23684)"/>
<path style="mix-blend-mode:color-dodge" fill-rule="evenodd" clip-rule="evenodd" d="M186.478 56.5312C185.524 55.8674 185.289 54.5579 185.953 53.6037C186.616 52.6527 187.926 52.4179 188.88 53.0786C189.834 53.7424 190.069 55.0519 189.405 56.0061C188.741 56.9603 187.429 57.195 186.478 56.5312Z" fill="url(#paint29_radial_1_23684)"/>
<path style="mix-blend-mode:color-dodge" fill-rule="evenodd" clip-rule="evenodd" d="M216.586 406.194C215.442 406.001 214.672 404.913 214.864 403.769C215.06 402.624 216.145 401.854 217.289 402.047C218.434 402.242 219.204 403.327 219.011 404.472C218.816 405.616 217.731 406.39 216.586 406.194Z" fill="url(#paint30_radial_1_23684)"/>
<path style="mix-blend-mode:color-dodge" fill-rule="evenodd" clip-rule="evenodd" d="M215.187 386.232C214.042 386.039 213.272 384.951 213.464 383.807C213.66 382.662 214.745 381.889 215.889 382.085C217.034 382.28 217.804 383.365 217.612 384.51C217.416 385.654 216.331 386.424 215.187 386.232Z" fill="url(#paint31_radial_1_23684)"/>
<path style="mix-blend-mode:color-dodge" fill-rule="evenodd" clip-rule="evenodd" d="M176.277 321.101C175.133 320.905 174.362 319.821 174.555 318.673C174.75 317.529 175.835 316.758 176.98 316.951C178.124 317.146 178.895 318.231 178.702 319.376C178.509 320.52 177.422 321.29 176.277 321.098L176.277 321.101Z" fill="url(#paint32_radial_1_23684)"/>
<path style="mix-blend-mode:color-dodge" fill-rule="evenodd" clip-rule="evenodd" d="M230.213 358.222C229.259 357.558 229.024 356.249 229.688 355.294C230.352 354.343 231.662 354.105 232.616 354.769C233.57 355.433 233.805 356.742 233.141 357.697C232.477 358.651 231.168 358.886 230.213 358.222Z" fill="url(#paint33_radial_1_23684)"/>
<path style="mix-blend-mode:color-dodge" fill-rule="evenodd" clip-rule="evenodd" d="M252.913 71.0414C252.032 70.2835 251.929 68.9555 252.687 68.074C253.442 67.1925 254.773 67.0899 255.651 67.8479C256.533 68.6058 256.636 69.9306 255.878 70.8153C255.12 71.6968 253.795 71.7994 252.913 71.0414Z" fill="url(#paint34_radial_1_23684)"/>
<path style="mix-blend-mode:color-dodge" fill-rule="evenodd" clip-rule="evenodd" d="M180.603 8.7763C179.722 8.0215 179.622 6.69357 180.377 5.81204C181.135 4.93053 182.463 4.82796 183.342 5.5859C184.223 6.3407 184.326 7.66864 183.568 8.55015C182.81 9.43167 181.485 9.53425 180.6 8.77629L180.603 8.7763Z" fill="url(#paint35_radial_1_23684)"/>
<path style="mix-blend-mode:color-dodge" fill-rule="evenodd" clip-rule="evenodd" d="M246.786 59.485C245.904 58.7271 245.802 57.4023 246.56 56.5176C247.318 55.6361 248.643 55.5335 249.524 56.2915C250.406 57.0463 250.508 58.3742 249.75 59.2557C248.995 60.1373 247.667 60.2398 246.786 59.485Z" fill="url(#paint36_radial_1_23684)"/>
<path style="mix-blend-mode:color-dodge" fill-rule="evenodd" clip-rule="evenodd" d="M118.858 11.5585C117.977 10.8037 117.874 9.47576 118.632 8.5911C119.39 7.70958 120.715 7.607 121.596 8.36495C122.478 9.11975 122.58 10.4477 121.822 11.3292C121.068 12.2107 119.74 12.3133 118.858 11.5554L118.858 11.5585Z" fill="url(#paint37_radial_1_23684)"/>
<path style="mix-blend-mode:color-dodge" fill-rule="evenodd" clip-rule="evenodd" d="M82.5891 46.8376C81.7076 46.0828 81.605 44.7548 82.363 43.8702C83.1178 42.9886 84.4457 42.8861 85.3272 43.644C86.2087 44.402 86.3081 45.7267 85.5533 46.6114C84.7985 47.4929 83.4706 47.5955 82.5891 46.8376Z" fill="url(#paint38_radial_1_23684)"/>
<path style="mix-blend-mode:color-dodge" fill-rule="evenodd" clip-rule="evenodd" d="M73.3574 61.9242C72.4759 61.1694 72.3733 59.8415 73.1312 58.96C73.886 58.0785 75.214 57.9759 76.0956 58.7338C76.9771 59.4886 77.0797 60.8166 76.3217 61.6981C75.5669 62.5796 74.2358 62.6822 73.3542 61.9242L73.3574 61.9242Z" fill="url(#paint39_radial_1_23684)"/>
<path style="mix-blend-mode:color-dodge" fill-rule="evenodd" clip-rule="evenodd" d="M151.187 32.245C150.306 31.4902 150.203 30.1623 150.961 29.2776C151.716 28.3961 153.044 28.2935 153.926 29.0515C154.807 29.8063 154.91 31.1342 154.152 32.0157C153.397 32.8973 152.069 32.9998 151.187 32.2419L151.187 32.245Z" fill="url(#paint40_radial_1_23684)"/>
<path style="mix-blend-mode:color-dodge" fill-rule="evenodd" clip-rule="evenodd" d="M92.9208 57.8774C92.0392 57.1194 91.9367 55.7946 92.6946 54.9099C93.4526 54.0284 94.7773 53.9259 95.6589 54.6838C96.5404 55.4418 96.6398 56.7665 95.885 57.6481C95.1271 58.5296 93.7991 58.6321 92.9208 57.8774Z" fill="url(#paint41_radial_1_23684)"/>
<path style="mix-blend-mode:color-dodge" fill-rule="evenodd" clip-rule="evenodd" d="M222.496 294.597C217.612 291.196 216.407 284.478 219.809 279.591C223.21 274.707 229.927 273.506 234.811 276.904C239.695 280.305 240.9 287.022 237.502 291.903C234.101 296.79 227.383 297.995 222.499 294.594L222.496 294.597Z" fill="url(#paint42_radial_1_23684)"/>
<path style="mix-blend-mode:color-dodge" fill-rule="evenodd" clip-rule="evenodd" d="M191.429 49.4133C186.545 46.012 185.34 39.2945 188.741 34.4075C192.142 29.5236 198.86 28.322 203.744 31.7201C208.628 35.1213 209.832 41.8357 206.431 46.7196C203.03 51.6066 196.316 52.8114 191.429 49.4101L191.429 49.4133Z" fill="url(#paint43_radial_1_23684)"/>
<path style="mix-blend-mode:color-dodge" fill-rule="evenodd" clip-rule="evenodd" d="M180.594 97.7973C175.711 94.3961 174.506 87.6786 177.907 82.7915C181.308 77.9076 188.026 76.7061 192.91 80.1041C197.794 83.5054 198.998 90.2197 195.597 95.1036C192.196 99.9906 185.478 101.192 180.594 97.7942L180.594 97.7973Z" fill="url(#paint44_radial_1_23684)"/>
<path style="mix-blend-mode:color-dodge" fill-rule="evenodd" clip-rule="evenodd" d="M206.393 365.228C201.506 361.827 200.305 355.109 203.706 350.222C207.104 345.338 213.821 344.137 218.708 347.535C223.592 350.936 224.797 357.65 221.396 362.537C217.994 367.424 211.28 368.626 206.396 365.228L206.393 365.228Z" fill="url(#paint45_radial_1_23684)"/>
<path style="mix-blend-mode:color-dodge" fill-rule="evenodd" clip-rule="evenodd" d="M237.47 358.054C232.583 354.653 231.382 347.936 234.783 343.052C238.181 338.168 244.898 336.963 249.785 340.364C254.669 343.766 255.874 350.48 252.473 355.367C249.072 360.254 242.354 361.456 237.47 358.057L237.47 358.054Z" fill="url(#paint46_radial_1_23684)"/>
<path style="mix-blend-mode:color-dodge" fill-rule="evenodd" clip-rule="evenodd" d="M264.639 212.79C259.756 209.389 258.551 202.672 261.952 197.788C265.35 192.904 272.068 191.702 276.955 195.1C281.839 198.502 283.043 205.216 279.642 210.1C276.241 214.987 269.523 216.192 264.639 212.79Z" fill="url(#paint47_radial_1_23684)"/>
<path style="mix-blend-mode:color-dodge" fill-rule="evenodd" clip-rule="evenodd" d="M103.959 49.2689C99.0722 45.8677 97.8707 39.1502 101.272 34.2631C104.67 29.3792 111.387 28.1745 116.275 31.5757C121.158 34.9769 122.363 41.6913 118.962 46.5752C115.561 51.4622 108.843 52.6638 103.959 49.2657L103.959 49.2689Z" fill="url(#paint48_radial_1_23684)"/>
<path style="mix-blend-mode:color-dodge" fill-rule="evenodd" clip-rule="evenodd" d="M243.884 90.9528C239 87.5515 237.796 80.834 241.197 75.9501C244.598 71.0662 251.312 69.8615 256.199 73.2627C261.083 76.664 262.288 83.3783 258.887 88.2654C255.486 93.1524 248.768 94.354 243.884 90.9559L243.884 90.9528Z" fill="url(#paint49_radial_1_23684)"/>
<path style="mix-blend-mode:color-dodge" fill-rule="evenodd" clip-rule="evenodd" d="M5.73814 76.4083C0.854244 73.0071 -0.350461 66.2896 3.05076 61.4057C6.45198 56.5218 13.1664 55.3171 18.0534 58.7183C22.9373 62.1195 24.142 68.8339 20.7408 73.7178C17.3396 78.6048 10.622 79.8095 5.73814 76.4083Z" fill="url(#paint50_radial_1_23684)"/>
<defs>
<radialGradient id="paint0_radial_1_23684" cx="0" cy="0" r="1" gradientUnits="userSpaceOnUse" gradientTransform="translate(258.111 40.496) rotate(124.839) scale(4.15896)">
<stop stop-color="white"/>
<stop offset="0.17" stop-color="#CCCCCC"/>
<stop offset="0.47" stop-color="#757575"/>
<stop offset="0.72" stop-color="#363636"/>
<stop offset="0.91" stop-color="#0E0E0E"/>
<stop offset="1"/>
</radialGradient>
<radialGradient id="paint1_radial_1_23684" cx="0" cy="0" r="1" gradientUnits="userSpaceOnUse" gradientTransform="translate(227.298 70.2164) rotate(124.839) scale(4.15896 4.15895)">
<stop stop-color="white"/>
<stop offset="0.17" stop-color="#CCCCCC"/>
<stop offset="0.47" stop-color="#757575"/>
<stop offset="0.72" stop-color="#363636"/>
<stop offset="0.91" stop-color="#0E0E0E"/>
<stop offset="1"/>
</radialGradient>
<radialGradient id="paint2_radial_1_23684" cx="0" cy="0" r="1" gradientUnits="userSpaceOnUse" gradientTransform="translate(176.5 22.8885) rotate(124.839) scale(4.15896)">
<stop stop-color="white"/>
<stop offset="0.17" stop-color="#CCCCCC"/>
<stop offset="0.47" stop-color="#757575"/>
<stop offset="0.72" stop-color="#363636"/>
<stop offset="0.91" stop-color="#0E0E0E"/>
<stop offset="1"/>
</radialGradient>
<radialGradient id="paint3_radial_1_23684" cx="0" cy="0" r="1" gradientUnits="userSpaceOnUse" gradientTransform="translate(153.756 331.634) rotate(99.6394) scale(4.15897)">
<stop stop-color="white"/>
<stop offset="0.17" stop-color="#CCCCCC"/>
<stop offset="0.47" stop-color="#757575"/>
<stop offset="0.72" stop-color="#363636"/>
<stop offset="0.91" stop-color="#0E0E0E"/>
<stop offset="1"/>
</radialGradient>
<radialGradient id="paint4_radial_1_23684" cx="0" cy="0" r="1" gradientUnits="userSpaceOnUse" gradientTransform="translate(200.745 297.338) rotate(99.6394) scale(4.15897)">
<stop stop-color="white"/>
<stop offset="0.17" stop-color="#CCCCCC"/>
<stop offset="0.47" stop-color="#757575"/>
<stop offset="0.72" stop-color="#363636"/>
<stop offset="0.91" stop-color="#0E0E0E"/>
<stop offset="1"/>
</radialGradient>
<radialGradient id="paint5_radial_1_23684" cx="0" cy="0" r="1" gradientUnits="userSpaceOnUse" gradientTransform="translate(62.2293 72.4468) rotate(124.839) scale(4.15896)">
<stop stop-color="white"/>
<stop offset="0.17" stop-color="#CCCCCC"/>
<stop offset="0.47" stop-color="#757575"/>
<stop offset="0.72" stop-color="#363636"/>
<stop offset="0.91" stop-color="#0E0E0E"/>
<stop offset="1"/>
</radialGradient>
<radialGradient id="paint6_radial_1_23684" cx="0" cy="0" r="1" gradientUnits="userSpaceOnUse" gradientTransform="translate(211.274 367.499) rotate(125.639) scale(4.15896 4.15897)">
<stop stop-color="white"/>
<stop offset="0.17" stop-color="#CCCCCC"/>
<stop offset="0.47" stop-color="#757575"/>
<stop offset="0.72" stop-color="#363636"/>
<stop offset="0.91" stop-color="#0E0E0E"/>
<stop offset="1"/>
</radialGradient>
<radialGradient id="paint7_radial_1_23684" cx="0" cy="0" r="1" gradientUnits="userSpaceOnUse" gradientTransform="translate(216.322 337.584) rotate(125.639) scale(4.15896 4.15896)">
<stop stop-color="white"/>
<stop offset="0.17" stop-color="#CCCCCC"/>
<stop offset="0.47" stop-color="#757575"/>
<stop offset="0.72" stop-color="#363636"/>
<stop offset="0.91" stop-color="#0E0E0E"/>
<stop offset="1"/>
</radialGradient>
<radialGradient id="paint8_radial_1_23684" cx="0" cy="0" r="1" gradientUnits="userSpaceOnUse" gradientTransform="translate(216.019 318.515) rotate(125.639) scale(4.15895 4.15894)">
<stop stop-color="white"/>
<stop offset="0.17" stop-color="#CCCCCC"/>
<stop offset="0.47" stop-color="#757575"/>
<stop offset="0.72" stop-color="#363636"/>
<stop offset="0.91" stop-color="#0E0E0E"/>
<stop offset="1"/>
</radialGradient>
<radialGradient id="paint9_radial_1_23684" cx="0" cy="0" r="1" gradientUnits="userSpaceOnUse" gradientTransform="translate(253.266 369.058) rotate(125.639) scale(4.15895 4.15895)">
<stop stop-color="white"/>
<stop offset="0.17" stop-color="#CCCCCC"/>
<stop offset="0.47" stop-color="#757575"/>
<stop offset="0.72" stop-color="#363636"/>
<stop offset="0.91" stop-color="#0E0E0E"/>
<stop offset="1"/>
</radialGradient>
<radialGradient id="paint10_radial_1_23684" cx="0" cy="0" r="1" gradientUnits="userSpaceOnUse" gradientTransform="translate(147.805 21.6558) rotate(125.639) scale(4.15896 4.15897)">
<stop stop-color="white"/>
<stop offset="0.17" stop-color="#CCCCCC"/>
<stop offset="0.47" stop-color="#757575"/>
<stop offset="0.72" stop-color="#363636"/>
<stop offset="0.91" stop-color="#0E0E0E"/>
<stop offset="1"/>
</radialGradient>
<radialGradient id="paint11_radial_1_23684" cx="0" cy="0" r="1" gradientUnits="userSpaceOnUse" gradientTransform="translate(139.374 4.57685) rotate(125.639) scale(4.15896 4.15896)">
<stop stop-color="white"/>
<stop offset="0.17" stop-color="#CCCCCC"/>
<stop offset="0.47" stop-color="#757575"/>
<stop offset="0.72" stop-color="#363636"/>
<stop offset="0.91" stop-color="#0E0E0E"/>
<stop offset="1"/>
</radialGradient>
<radialGradient id="paint12_radial_1_23684" cx="0" cy="0" r="1" gradientUnits="userSpaceOnUse" gradientTransform="translate(258.561 58.6198) rotate(124.839) scale(4.15896 4.15895)">
<stop stop-color="white"/>
<stop offset="0.17" stop-color="#CCCCCC"/>
<stop offset="0.47" stop-color="#757575"/>
<stop offset="0.72" stop-color="#363636"/>
<stop offset="0.91" stop-color="#0E0E0E"/>
<stop offset="1"/>
</radialGradient>
<radialGradient id="paint13_radial_1_23684" cx="0" cy="0" r="1" gradientUnits="userSpaceOnUse" gradientTransform="translate(238.292 85.0557) rotate(124.839) scale(2.10465 2.10465)">
<stop stop-color="white"/>
<stop offset="0.17" stop-color="#CCCCCC"/>
<stop offset="0.47" stop-color="#757575"/>
<stop offset="0.72" stop-color="#363636"/>
<stop offset="0.91" stop-color="#0E0E0E"/>
<stop offset="1"/>
</radialGradient>
<radialGradient id="paint14_radial_1_23684" cx="0" cy="0" r="1" gradientUnits="userSpaceOnUse" gradientTransform="translate(218.668 96.513) rotate(124.84) scale(2.10465 2.10465)">
<stop stop-color="white"/>
<stop offset="0.17" stop-color="#CCCCCC"/>
<stop offset="0.47" stop-color="#757575"/>
<stop offset="0.72" stop-color="#363636"/>
<stop offset="0.91" stop-color="#0E0E0E"/>
<stop offset="1"/>
</radialGradient>
<radialGradient id="paint15_radial_1_23684" cx="0" cy="0" r="1" gradientUnits="userSpaceOnUse" gradientTransform="translate(133.926 17.14) rotate(124.84) scale(2.10465 2.10465)">
<stop stop-color="white"/>
<stop offset="0.17" stop-color="#CCCCCC"/>
<stop offset="0.47" stop-color="#757575"/>
<stop offset="0.72" stop-color="#363636"/>
<stop offset="0.91" stop-color="#0E0E0E"/>
<stop offset="1"/>
</radialGradient>
<radialGradient id="paint16_radial_1_23684" cx="0" cy="0" r="1" gradientUnits="userSpaceOnUse" gradientTransform="translate(224.673 329.915) rotate(124.839) scale(2.10465)">
<stop stop-color="white"/>
<stop offset="0.17" stop-color="#CCCCCC"/>
<stop offset="0.47" stop-color="#757575"/>
<stop offset="0.72" stop-color="#363636"/>
<stop offset="0.91" stop-color="#0E0E0E"/>
<stop offset="1"/>
</radialGradient>
<radialGradient id="paint17_radial_1_23684" cx="0" cy="0" r="1" gradientUnits="userSpaceOnUse" gradientTransform="translate(257.721 208.762) rotate(124.84) scale(2.10465 2.10465)">
<stop stop-color="white"/>
<stop offset="0.17" stop-color="#CCCCCC"/>
<stop offset="0.47" stop-color="#757575"/>
<stop offset="0.72" stop-color="#363636"/>
<stop offset="0.91" stop-color="#0E0E0E"/>
<stop offset="1"/>
</radialGradient>
<radialGradient id="paint18_radial_1_23684" cx="0" cy="0" r="1" gradientUnits="userSpaceOnUse" gradientTransform="translate(200.201 317.361) rotate(99.6394) scale(2.10464)">
<stop stop-color="white"/>
<stop offset="0.17" stop-color="#CCCCCC"/>
<stop offset="0.47" stop-color="#757575"/>
<stop offset="0.72" stop-color="#363636"/>
<stop offset="0.91" stop-color="#0E0E0E"/>
<stop offset="1"/>
</radialGradient>
<radialGradient id="paint19_radial_1_23684" cx="0" cy="0" r="1" gradientUnits="userSpaceOnUse" gradientTransform="translate(209.341 351.941) rotate(124.84) scale(2.10465 2.10465)">
<stop stop-color="white"/>
<stop offset="0.17" stop-color="#CCCCCC"/>
<stop offset="0.47" stop-color="#757575"/>
<stop offset="0.72" stop-color="#363636"/>
<stop offset="0.91" stop-color="#0E0E0E"/>
<stop offset="1"/>
</radialGradient>
<radialGradient id="paint20_radial_1_23684" cx="0" cy="0" r="1" gradientUnits="userSpaceOnUse" gradientTransform="translate(264.992 280.016) rotate(124.839) scale(2.1015 2.1015)">
<stop stop-color="white"/>
<stop offset="0.17" stop-color="#CCCCCC"/>
<stop offset="0.47" stop-color="#757575"/>
<stop offset="0.72" stop-color="#363636"/>
<stop offset="0.91" stop-color="#0E0E0E"/>
<stop offset="1"/>
</radialGradient>
<radialGradient id="paint21_radial_1_23684" cx="0" cy="0" r="1" gradientUnits="userSpaceOnUse" gradientTransform="translate(257.366 360.944) rotate(124.84) scale(2.10465 2.10465)">
<stop stop-color="white"/>
<stop offset="0.17" stop-color="#CCCCCC"/>
<stop offset="0.47" stop-color="#757575"/>
<stop offset="0.72" stop-color="#363636"/>
<stop offset="0.91" stop-color="#0E0E0E"/>
<stop offset="1"/>
</radialGradient>
<radialGradient id="paint22_radial_1_23684" cx="0" cy="0" r="1" gradientUnits="userSpaceOnUse" gradientTransform="translate(227.541 340.876) rotate(124.84) scale(2.10465 2.10465)">
<stop stop-color="white"/>
<stop offset="0.17" stop-color="#CCCCCC"/>
<stop offset="0.47" stop-color="#757575"/>
<stop offset="0.72" stop-color="#363636"/>
<stop offset="0.91" stop-color="#0E0E0E"/>
<stop offset="1"/>
</radialGradient>
<radialGradient id="paint23_radial_1_23684" cx="0" cy="0" r="1" gradientUnits="userSpaceOnUse" gradientTransform="translate(162.798 69.3055) rotate(124.839) scale(2.1015 2.1015)">
<stop stop-color="white"/>
<stop offset="0.17" stop-color="#CCCCCC"/>
<stop offset="0.47" stop-color="#757575"/>
<stop offset="0.72" stop-color="#363636"/>
<stop offset="0.91" stop-color="#0E0E0E"/>
<stop offset="1"/>
</radialGradient>
<radialGradient id="paint24_radial_1_23684" cx="0" cy="0" r="1" gradientUnits="userSpaceOnUse" gradientTransform="translate(164.581 5.07973) rotate(124.839) scale(2.1015 2.1015)">
<stop stop-color="white"/>
<stop offset="0.17" stop-color="#CCCCCC"/>
<stop offset="0.47" stop-color="#757575"/>
<stop offset="0.72" stop-color="#363636"/>
<stop offset="0.91" stop-color="#0E0E0E"/>
<stop offset="1"/>
</radialGradient>
<radialGradient id="paint25_radial_1_23684" cx="0" cy="0" r="1" gradientUnits="userSpaceOnUse" gradientTransform="translate(229.1 57.0721) rotate(124.84) scale(2.10465 2.10465)">
<stop stop-color="white"/>
<stop offset="0.17" stop-color="#CCCCCC"/>
<stop offset="0.47" stop-color="#757575"/>
<stop offset="0.72" stop-color="#363636"/>
<stop offset="0.91" stop-color="#0E0E0E"/>
<stop offset="1"/>
</radialGradient>
<radialGradient id="paint26_radial_1_23684" cx="0" cy="0" r="1" gradientUnits="userSpaceOnUse" gradientTransform="translate(62.3468 60.4386) rotate(124.84) scale(2.10465 2.10465)">
<stop stop-color="white"/>
<stop offset="0.17" stop-color="#CCCCCC"/>
<stop offset="0.47" stop-color="#757575"/>
<stop offset="0.72" stop-color="#363636"/>
<stop offset="0.91" stop-color="#0E0E0E"/>
<stop offset="1"/>
</radialGradient>
<radialGradient id="paint27_radial_1_23684" cx="0" cy="0" r="1" gradientUnits="userSpaceOnUse" gradientTransform="translate(24.1674 80.834) rotate(124.84) scale(2.10465 2.10465)">
<stop stop-color="white"/>
<stop offset="0.17" stop-color="#CCCCCC"/>
<stop offset="0.47" stop-color="#757575"/>
<stop offset="0.72" stop-color="#363636"/>
<stop offset="0.91" stop-color="#0E0E0E"/>
<stop offset="1"/>
</radialGradient>
<radialGradient id="paint28_radial_1_23684" cx="0" cy="0" r="1" gradientUnits="userSpaceOnUse" gradientTransform="translate(44.923 80.5377) rotate(124.84) scale(2.10465 2.10465)">
<stop stop-color="white"/>
<stop offset="0.17" stop-color="#CCCCCC"/>
<stop offset="0.47" stop-color="#757575"/>
<stop offset="0.72" stop-color="#363636"/>
<stop offset="0.91" stop-color="#0E0E0E"/>
<stop offset="1"/>
</radialGradient>
<radialGradient id="paint29_radial_1_23684" cx="0" cy="0" r="1" gradientUnits="userSpaceOnUse" gradientTransform="translate(187.662 54.8314) rotate(124.84) scale(2.10465 2.10465)">
<stop stop-color="white"/>
<stop offset="0.17" stop-color="#CCCCCC"/>
<stop offset="0.47" stop-color="#757575"/>
<stop offset="0.72" stop-color="#363636"/>
<stop offset="0.91" stop-color="#0E0E0E"/>
<stop offset="1"/>
</radialGradient>
<radialGradient id="paint30_radial_1_23684" cx="0" cy="0" r="1" gradientUnits="userSpaceOnUse" gradientTransform="translate(216.964 404.055) rotate(99.6394) scale(2.10466 2.10464)">
<stop stop-color="white"/>
<stop offset="0.17" stop-color="#CCCCCC"/>
<stop offset="0.47" stop-color="#757575"/>
<stop offset="0.72" stop-color="#363636"/>
<stop offset="0.91" stop-color="#0E0E0E"/>
<stop offset="1"/>
</radialGradient>
<radialGradient id="paint31_radial_1_23684" cx="0" cy="0" r="1" gradientUnits="userSpaceOnUse" gradientTransform="translate(215.562 384.091) rotate(99.6396) scale(2.10464 2.10468)">
<stop stop-color="white"/>
<stop offset="0.17" stop-color="#CCCCCC"/>
<stop offset="0.47" stop-color="#757575"/>
<stop offset="0.72" stop-color="#363636"/>
<stop offset="0.91" stop-color="#0E0E0E"/>
<stop offset="1"/>
</radialGradient>
<radialGradient id="paint32_radial_1_23684" cx="0" cy="0" r="1" gradientUnits="userSpaceOnUse" gradientTransform="translate(176.657 318.966) rotate(99.6394) scale(2.10464)">
<stop stop-color="white"/>
<stop offset="0.17" stop-color="#CCCCCC"/>
<stop offset="0.47" stop-color="#757575"/>
<stop offset="0.72" stop-color="#363636"/>
<stop offset="0.91" stop-color="#0E0E0E"/>
<stop offset="1"/>
</radialGradient>
<radialGradient id="paint33_radial_1_23684" cx="0" cy="0" r="1" gradientUnits="userSpaceOnUse" gradientTransform="translate(231.413 356.521) rotate(124.84) scale(2.1015 2.10151)">
<stop stop-color="white"/>
<stop offset="0.17" stop-color="#CCCCCC"/>
<stop offset="0.47" stop-color="#757575"/>
<stop offset="0.72" stop-color="#363636"/>
<stop offset="0.91" stop-color="#0E0E0E"/>
<stop offset="1"/>
</radialGradient>
<radialGradient id="paint34_radial_1_23684" cx="0" cy="0" r="1" gradientUnits="userSpaceOnUse" gradientTransform="translate(254.224 69.4471) rotate(130.619) scale(2.10464 2.10464)">
<stop stop-color="white"/>
<stop offset="0.17" stop-color="#CCCCCC"/>
<stop offset="0.47" stop-color="#757575"/>
<stop offset="0.72" stop-color="#363636"/>
<stop offset="0.91" stop-color="#0E0E0E"/>
<stop offset="1"/>
</radialGradient>
<radialGradient id="paint35_radial_1_23684" cx="0" cy="0" r="1" gradientUnits="userSpaceOnUse" gradientTransform="translate(181.904 7.18337) rotate(130.619) scale(2.10464 2.10464)">
<stop stop-color="white"/>
<stop offset="0.17" stop-color="#CCCCCC"/>
<stop offset="0.47" stop-color="#757575"/>
<stop offset="0.72" stop-color="#363636"/>
<stop offset="0.91" stop-color="#0E0E0E"/>
<stop offset="1"/>
</radialGradient>
<radialGradient id="paint36_radial_1_23684" cx="0" cy="0" r="1" gradientUnits="userSpaceOnUse" gradientTransform="translate(248.093 57.8914) rotate(130.62) scale(2.10466 2.10466)">
<stop stop-color="white"/>
<stop offset="0.17" stop-color="#CCCCCC"/>
<stop offset="0.47" stop-color="#757575"/>
<stop offset="0.72" stop-color="#363636"/>
<stop offset="0.91" stop-color="#0E0E0E"/>
<stop offset="1"/>
</radialGradient>
<radialGradient id="paint37_radial_1_23684" cx="0" cy="0" r="1" gradientUnits="userSpaceOnUse" gradientTransform="translate(120.153 9.96714) rotate(130.619) scale(2.10464 2.10464)">
<stop stop-color="white"/>
<stop offset="0.17" stop-color="#CCCCCC"/>
<stop offset="0.47" stop-color="#757575"/>
<stop offset="0.72" stop-color="#363636"/>
<stop offset="0.91" stop-color="#0E0E0E"/>
<stop offset="1"/>
</radialGradient>
<radialGradient id="paint38_radial_1_23684" cx="0" cy="0" r="1" gradientUnits="userSpaceOnUse" gradientTransform="translate(83.8824 45.2523) rotate(130.619) scale(2.10464 2.10464)">
<stop stop-color="white"/>
<stop offset="0.17" stop-color="#CCCCCC"/>
<stop offset="0.47" stop-color="#757575"/>
<stop offset="0.72" stop-color="#363636"/>
<stop offset="0.91" stop-color="#0E0E0E"/>
<stop offset="1"/>
</radialGradient>
<radialGradient id="paint39_radial_1_23684" cx="0" cy="0" r="1" gradientUnits="userSpaceOnUse" gradientTransform="translate(74.6518 60.3385) rotate(130.62) scale(2.10466 2.10466)">
<stop stop-color="white"/>
<stop offset="0.17" stop-color="#CCCCCC"/>
<stop offset="0.47" stop-color="#757575"/>
<stop offset="0.72" stop-color="#363636"/>
<stop offset="0.91" stop-color="#0E0E0E"/>
<stop offset="1"/>
</radialGradient>
<radialGradient id="paint40_radial_1_23684" cx="0" cy="0" r="1" gradientUnits="userSpaceOnUse" gradientTransform="translate(152.486 30.6554) rotate(130.619) scale(2.10464 2.10464)">
<stop stop-color="white"/>
<stop offset="0.17" stop-color="#CCCCCC"/>
<stop offset="0.47" stop-color="#757575"/>
<stop offset="0.72" stop-color="#363636"/>
<stop offset="0.91" stop-color="#0E0E0E"/>
<stop offset="1"/>
</radialGradient>
<radialGradient id="paint41_radial_1_23684" cx="0" cy="0" r="1" gradientUnits="userSpaceOnUse" gradientTransform="translate(94.2137 56.2921) rotate(130.619) scale(2.10464 2.10464)">
<stop stop-color="white"/>
<stop offset="0.17" stop-color="#CCCCCC"/>
<stop offset="0.47" stop-color="#757575"/>
<stop offset="0.72" stop-color="#363636"/>
<stop offset="0.91" stop-color="#0E0E0E"/>
<stop offset="1"/>
</radialGradient>
<radialGradient id="paint42_radial_1_23684" cx="0" cy="0" r="1" gradientUnits="userSpaceOnUse" gradientTransform="translate(228.647 285.778) rotate(124.839) scale(10.7781 10.7781)">
<stop stop-color="white"/>
<stop offset="0.17" stop-color="#CCCCCC"/>
<stop offset="0.47" stop-color="#757575"/>
<stop offset="0.72" stop-color="#363636"/>
<stop offset="0.91" stop-color="#0E0E0E"/>
<stop offset="1"/>
</radialGradient>
<radialGradient id="paint43_radial_1_23684" cx="0" cy="0" r="1" gradientUnits="userSpaceOnUse" gradientTransform="translate(197.569 40.5902) rotate(124.839) scale(10.7781 10.7781)">
<stop stop-color="white"/>
<stop offset="0.17" stop-color="#CCCCCC"/>
<stop offset="0.47" stop-color="#757575"/>
<stop offset="0.72" stop-color="#363636"/>
<stop offset="0.91" stop-color="#0E0E0E"/>
<stop offset="1"/>
</radialGradient>
<radialGradient id="paint44_radial_1_23684" cx="0" cy="0" r="1" gradientUnits="userSpaceOnUse" gradientTransform="translate(186.738 88.9785) rotate(124.839) scale(10.7781 10.7781)">
<stop stop-color="white"/>
<stop offset="0.17" stop-color="#CCCCCC"/>
<stop offset="0.47" stop-color="#757575"/>
<stop offset="0.72" stop-color="#363636"/>
<stop offset="0.91" stop-color="#0E0E0E"/>
<stop offset="1"/>
</radialGradient>
<radialGradient id="paint45_radial_1_23684" cx="0" cy="0" r="1" gradientUnits="userSpaceOnUse" gradientTransform="translate(212.55 356.411) rotate(124.839) scale(10.7781 10.7781)">
<stop stop-color="white"/>
<stop offset="0.17" stop-color="#CCCCCC"/>
<stop offset="0.47" stop-color="#757575"/>
<stop offset="0.72" stop-color="#363636"/>
<stop offset="0.91" stop-color="#0E0E0E"/>
<stop offset="1"/>
</radialGradient>
<radialGradient id="paint46_radial_1_23684" cx="0" cy="0" r="1" gradientUnits="userSpaceOnUse" gradientTransform="translate(243.626 349.237) rotate(124.839) scale(10.7781 10.7781)">
<stop stop-color="white"/>
<stop offset="0.17" stop-color="#CCCCCC"/>
<stop offset="0.47" stop-color="#757575"/>
<stop offset="0.72" stop-color="#363636"/>
<stop offset="0.91" stop-color="#0E0E0E"/>
<stop offset="1"/>
</radialGradient>
<radialGradient id="paint47_radial_1_23684" cx="0" cy="0" r="1" gradientUnits="userSpaceOnUse" gradientTransform="translate(270.788 203.966) rotate(124.839) scale(10.7781 10.7781)">
<stop stop-color="white"/>
<stop offset="0.17" stop-color="#CCCCCC"/>
<stop offset="0.47" stop-color="#757575"/>
<stop offset="0.72" stop-color="#363636"/>
<stop offset="0.91" stop-color="#0E0E0E"/>
<stop offset="1"/>
</radialGradient>
<radialGradient id="paint48_radial_1_23684" cx="0" cy="0" r="1" gradientUnits="userSpaceOnUse" gradientTransform="translate(110.098 40.4517) rotate(124.839) scale(10.7781 10.7781)">
<stop stop-color="white"/>
<stop offset="0.17" stop-color="#CCCCCC"/>
<stop offset="0.47" stop-color="#757575"/>
<stop offset="0.72" stop-color="#363636"/>
<stop offset="0.91" stop-color="#0E0E0E"/>
<stop offset="1"/>
</radialGradient>
<radialGradient id="paint49_radial_1_23684" cx="0" cy="0" r="1" gradientUnits="userSpaceOnUse" gradientTransform="translate(250.029 82.1299) rotate(124.839) scale(10.7781 10.7781)">
<stop stop-color="white"/>
<stop offset="0.17" stop-color="#CCCCCC"/>
<stop offset="0.47" stop-color="#757575"/>
<stop offset="0.72" stop-color="#363636"/>
<stop offset="0.91" stop-color="#0E0E0E"/>
<stop offset="1"/>
</radialGradient>
<radialGradient id="paint50_radial_1_23684" cx="0" cy="0" r="1" gradientUnits="userSpaceOnUse" gradientTransform="translate(11.8786 67.5987) rotate(124.84) scale(10.7781 10.7781)">
<stop stop-color="white"/>
<stop offset="0.17" stop-color="#CCCCCC"/>
<stop offset="0.47" stop-color="#757575"/>
<stop offset="0.72" stop-color="#363636"/>
<stop offset="0.91" stop-color="#0E0E0E"/>
<stop offset="1"/>
</radialGradient>
</defs>
</svg>
