<svg width="276" height="408" viewBox="0 0 276 408" fill="none" xmlns="http://www.w3.org/2000/svg">
<path style="mix-blend-mode:color-dodge" fill-rule="evenodd" clip-rule="evenodd" d="M19.7217 43.8877C21.6081 42.5758 22.0714 39.9852 20.7596 38.0988C19.4478 36.2155 16.8571 35.749 14.9707 37.0609C13.0874 38.3727 12.6241 40.9633 13.9328 42.8498C15.2446 44.7361 17.8353 45.1995 19.7217 43.8877Z" fill="url(#paint0_radial_1_22439)"/>
<path style="mix-blend-mode:color-dodge" fill-rule="evenodd" clip-rule="evenodd" d="M50.5367 73.6032C52.42 72.2914 52.8865 69.7007 51.5747 67.8143C50.2629 65.9311 47.6722 65.4646 45.7858 66.7764C43.9026 68.0882 43.4361 70.6789 44.7479 72.5653C46.0597 74.4486 48.6535 74.915 50.5367 73.6032Z" fill="url(#paint1_radial_1_22439)"/>
<path style="mix-blend-mode:color-dodge" fill-rule="evenodd" clip-rule="evenodd" d="M101.334 26.2745C103.217 24.9627 103.683 22.372 102.368 20.4856C101.057 18.5992 98.4659 18.1359 96.5795 19.4477C94.6963 20.7595 94.2298 23.3502 95.5416 25.2366C96.8534 27.123 99.4441 27.5863 101.331 26.2745L101.334 26.2745Z" fill="url(#paint2_radial_1_22439)"/>
<path style="mix-blend-mode:color-dodge" fill-rule="evenodd" clip-rule="evenodd" d="M9.03676 95.508C10.9232 94.1962 11.3865 91.6024 10.0747 89.7191C8.7629 87.8359 6.17217 87.3694 4.28578 88.6812C2.39938 89.993 1.93609 92.5837 3.24791 94.4701C4.55973 96.3565 7.15351 96.8198 9.03676 95.508Z" fill="url(#paint3_radial_1_22439)"/>
<path style="mix-blend-mode:color-dodge" fill-rule="evenodd" clip-rule="evenodd" d="M122.446 335.794C124.71 335.409 126.235 333.262 125.85 330.998C125.465 328.734 123.318 327.209 121.054 327.594C118.79 327.979 117.268 330.127 117.65 332.391C118.035 334.654 120.183 336.179 122.446 335.794Z" fill="url(#paint4_radial_1_22439)"/>
<path style="mix-blend-mode:color-dodge" fill-rule="evenodd" clip-rule="evenodd" d="M75.4523 301.498C77.7161 301.113 79.2411 298.966 78.8561 296.702C78.4711 294.438 76.3237 292.916 74.0599 293.301C71.796 293.686 70.2742 295.834 70.656 298.098C71.041 300.362 73.1885 301.887 75.4523 301.502L75.4523 301.498Z" fill="url(#paint5_radial_1_22439)"/>
<path style="mix-blend-mode:color-dodge" fill-rule="evenodd" clip-rule="evenodd" d="M215.606 75.8271C217.49 74.5153 217.956 71.9215 216.644 70.0382C215.332 68.155 212.739 67.6885 210.855 69.0034C208.972 70.3153 208.506 72.9059 209.821 74.7892C211.132 76.6756 213.723 77.1389 215.61 75.8271L215.606 75.8271Z" fill="url(#paint6_radial_1_22439)"/>
<path style="mix-blend-mode:color-dodge" fill-rule="evenodd" clip-rule="evenodd" d="M66.5382 370.863C68.4057 369.527 68.8343 366.927 67.4943 365.059C66.1573 363.195 63.5574 362.766 61.6931 364.103C59.8256 365.44 59.4001 368.037 60.737 369.904C62.0739 371.772 64.6739 372.2 66.5413 370.863L66.5382 370.863Z" fill="url(#paint7_radial_1_22439)"/>
<path style="mix-blend-mode:color-dodge" fill-rule="evenodd" clip-rule="evenodd" d="M61.4936 340.953C63.3579 339.617 63.7867 337.017 62.4497 335.149C61.1128 333.282 58.5128 332.856 56.6486 334.193C54.7811 335.53 54.3524 338.127 55.6925 339.994C57.0294 341.862 59.6262 342.29 61.4968 340.953L61.4936 340.953Z" fill="url(#paint8_radial_1_22439)"/>
<path style="mix-blend-mode:color-dodge" fill-rule="evenodd" clip-rule="evenodd" d="M61.7972 321.885C63.6647 320.545 64.0933 317.948 62.7532 316.081C61.4163 314.213 58.8164 313.788 56.9521 315.125C55.0878 316.462 54.656 319.058 55.996 320.926C57.333 322.793 59.9329 323.222 61.7972 321.885Z" fill="url(#paint9_radial_1_22439)"/>
<path style="mix-blend-mode:color-dodge" fill-rule="evenodd" clip-rule="evenodd" d="M24.5536 372.425C26.4178 371.088 26.8497 368.488 25.5096 366.621C24.1727 364.753 21.5728 364.328 19.7085 365.665C17.841 367.002 17.4154 369.598 18.7524 371.466C20.0893 373.333 22.6893 373.762 24.5535 372.422L24.5536 372.425Z" fill="url(#paint10_radial_1_22439)"/>
<path style="mix-blend-mode:color-dodge" fill-rule="evenodd" clip-rule="evenodd" d="M130.001 25.0728C131.868 23.7359 132.297 21.1359 130.957 19.2685C129.62 17.401 127.02 16.9755 125.155 18.3124C123.288 19.6493 122.859 22.2462 124.199 24.1136C125.536 25.981 128.136 26.4097 130.001 25.0728Z" fill="url(#paint11_radial_1_22439)"/>
<path style="mix-blend-mode:color-dodge" fill-rule="evenodd" clip-rule="evenodd" d="M138.43 7.99592C140.298 6.65899 140.727 4.059 139.386 2.19157C138.05 0.324134 135.45 -0.101411 133.585 1.2355C131.721 2.57242 131.289 5.17242 132.629 7.0367C133.969 8.90413 136.566 9.33283 138.434 7.99591L138.43 7.99592Z" fill="url(#paint12_radial_1_22439)"/>
<path style="mix-blend-mode:color-dodge" fill-rule="evenodd" clip-rule="evenodd" d="M19.2738 62.01C21.1571 60.6982 21.6236 58.1043 20.3117 56.2211C18.9999 54.3378 16.4061 53.8714 14.5229 55.1832C12.6396 56.495 12.1731 59.0857 13.485 60.9721C14.7968 62.8584 17.3874 63.3218 19.2738 62.01Z" fill="url(#paint13_radial_1_22439)"/>
<path style="mix-blend-mode:color-dodge" fill-rule="evenodd" clip-rule="evenodd" d="M38.3687 86.7566C39.3229 86.0928 39.5576 84.7802 38.8938 83.8291C38.23 82.8749 36.9173 82.6402 35.9663 83.304C35.0121 83.9678 34.7774 85.2773 35.4443 86.2315C36.1081 87.1857 37.4177 87.4204 38.3718 86.7566L38.3687 86.7566Z" fill="url(#paint14_radial_1_22439)"/>
<path style="mix-blend-mode:color-dodge" fill-rule="evenodd" clip-rule="evenodd" d="M57.997 98.2111C58.9512 97.5472 59.1859 96.2346 58.5221 95.2836C57.8583 94.3294 56.5488 94.0978 55.5946 94.7584C54.6404 95.4222 54.4057 96.7317 55.0695 97.6859C55.7333 98.6401 57.046 98.8749 57.997 98.2111Z" fill="url(#paint15_radial_1_22439)"/>
<path style="mix-blend-mode:color-dodge" fill-rule="evenodd" clip-rule="evenodd" d="M142.73 18.8365C143.684 18.1726 143.919 16.8631 143.255 15.909C142.592 14.9548 141.279 14.72 140.328 15.3838C139.374 16.0476 139.139 17.3571 139.803 18.3113C140.467 19.2655 141.779 19.5003 142.73 18.8365Z" fill="url(#paint16_radial_1_22439)"/>
<path style="mix-blend-mode:color-dodge" fill-rule="evenodd" clip-rule="evenodd" d="M52.0012 331.614C52.9553 330.95 53.1901 329.637 52.5263 328.683C51.8625 327.729 50.5529 327.494 49.5988 328.158C48.6446 328.822 48.4098 330.131 49.0736 331.085C49.7374 332.039 51.047 332.274 52.0011 331.61L52.0012 331.614Z" fill="url(#paint17_radial_1_22439)"/>
<path style="mix-blend-mode:color-dodge" fill-rule="evenodd" clip-rule="evenodd" d="M2.8521 217.228C3.80628 216.564 4.04102 215.251 3.37722 214.3C2.71341 213.346 1.40389 213.111 0.449711 213.775C-0.504472 214.439 -0.739221 215.748 -0.0754102 216.703C0.5884 217.657 1.89792 217.892 2.8521 217.228Z" fill="url(#paint18_radial_1_22439)"/>
<path style="mix-blend-mode:color-dodge" fill-rule="evenodd" clip-rule="evenodd" d="M18.9491 210.464C19.9033 209.8 20.1381 208.487 19.4743 207.536C18.8105 206.582 17.4978 206.347 16.5468 207.011C15.5926 207.675 15.3578 208.984 16.0216 209.939C16.6854 210.893 17.9981 211.127 18.9491 210.464Z" fill="url(#paint19_radial_1_22439)"/>
<path style="mix-blend-mode:color-dodge" fill-rule="evenodd" clip-rule="evenodd" d="M75.652 319.496C76.7965 319.3 77.5669 318.215 77.3743 317.071C77.1818 315.926 76.0939 315.156 74.9494 315.348C73.8049 315.544 73.0346 316.629 73.2271 317.773C73.4228 318.918 74.5075 319.688 75.652 319.496Z" fill="url(#paint20_radial_1_22439)"/>
<path style="mix-blend-mode:color-dodge" fill-rule="evenodd" clip-rule="evenodd" d="M67.3365 353.639C68.2907 352.975 68.5254 351.662 67.8616 350.711C67.1978 349.757 65.8851 349.522 64.9341 350.186C63.9799 350.85 63.7452 352.159 64.409 353.114C65.0728 354.068 66.3823 354.303 67.3365 353.639Z" fill="url(#paint21_radial_1_22439)"/>
<path style="mix-blend-mode:color-dodge" fill-rule="evenodd" clip-rule="evenodd" d="M11.6815 281.719C12.6357 281.055 12.8705 279.746 12.2067 278.792C11.5429 277.838 10.2334 277.603 9.27924 278.267C8.3282 278.93 8.09023 280.24 8.75404 281.194C9.41785 282.148 10.7274 282.383 11.6815 281.719Z" fill="url(#paint22_radial_1_22439)"/>
<path style="mix-blend-mode:color-dodge" fill-rule="evenodd" clip-rule="evenodd" d="M19.3138 362.644C20.268 361.981 20.5027 360.668 19.8389 359.717C19.1751 358.763 17.8624 358.528 16.9114 359.192C15.9572 359.855 15.7224 361.165 16.3863 362.119C17.0501 363.073 18.3596 363.308 19.3138 362.644Z" fill="url(#paint23_radial_1_22439)"/>
<path style="mix-blend-mode:color-dodge" fill-rule="evenodd" clip-rule="evenodd" d="M49.1334 342.573C50.0876 341.91 50.3224 340.6 49.6554 339.646C48.9916 338.692 47.6821 338.457 46.7279 339.121C45.7737 339.785 45.539 341.094 46.2028 342.048C46.8666 343.003 48.1793 343.237 49.1303 342.574L49.1334 342.573Z" fill="url(#paint24_radial_1_22439)"/>
<path style="mix-blend-mode:color-dodge" fill-rule="evenodd" clip-rule="evenodd" d="M113.864 71.0037C114.818 70.3399 115.053 69.0304 114.389 68.0762C113.725 67.122 112.416 66.8872 111.461 67.5511C110.507 68.2149 110.272 69.5244 110.936 70.4786C111.6 71.4327 112.909 71.6675 113.864 71.0037Z" fill="url(#paint25_radial_1_22439)"/>
<path style="mix-blend-mode:color-dodge" fill-rule="evenodd" clip-rule="evenodd" d="M112.077 6.7776C113.032 6.11379 113.266 4.80429 112.599 3.85012C111.936 2.89593 110.626 2.66117 109.672 3.32498C108.718 3.98879 108.483 5.29829 109.147 6.25247C109.811 7.20666 111.12 7.44142 112.074 6.77761L112.077 6.7776Z" fill="url(#paint26_radial_1_22439)"/>
<path style="mix-blend-mode:color-dodge" fill-rule="evenodd" clip-rule="evenodd" d="M47.5618 58.7735C48.516 58.1097 48.7507 56.8002 48.0869 55.846C47.4231 54.8918 46.1136 54.657 45.1594 55.3208C44.2084 55.9846 43.9736 57.2941 44.6343 58.2483C45.2981 59.2025 46.6076 59.4373 47.5618 58.7735Z" fill="url(#paint27_radial_1_22439)"/>
<path style="mix-blend-mode:color-dodge" fill-rule="evenodd" clip-rule="evenodd" d="M214.314 62.1326C215.268 61.4688 215.502 60.1593 214.839 59.2051C214.175 58.2509 212.865 58.0162 211.911 58.68C210.957 59.3438 210.722 60.6533 211.386 61.6075C212.05 62.5616 213.359 62.7964 214.314 62.1326Z" fill="url(#paint28_radial_1_22439)"/>
<path style="mix-blend-mode:color-dodge" fill-rule="evenodd" clip-rule="evenodd" d="M252.492 82.5244C253.446 81.8606 253.681 80.548 253.017 79.5969C252.353 78.6428 251.043 78.408 250.089 79.0718C249.135 79.7356 248.9 81.0451 249.564 81.9993C250.228 82.9535 251.537 83.1883 252.492 82.5244Z" fill="url(#paint29_radial_1_22439)"/>
<path style="mix-blend-mode:color-dodge" fill-rule="evenodd" clip-rule="evenodd" d="M231.737 82.2283C232.691 81.5645 232.926 80.255 232.262 79.3008C231.598 78.3466 230.285 78.1119 229.334 78.7757C228.38 79.4395 228.145 80.749 228.809 81.7032C229.473 82.6573 230.783 82.8921 231.737 82.2283Z" fill="url(#paint30_radial_1_22439)"/>
<path style="mix-blend-mode:color-dodge" fill-rule="evenodd" clip-rule="evenodd" d="M88.9978 56.531C89.952 55.8672 90.1868 54.5577 89.523 53.6035C88.8592 52.6525 87.5496 52.4177 86.5955 53.0784C85.6413 53.7422 85.4065 55.0517 86.0703 56.0059C86.7341 56.96 88.0468 57.1948 88.9978 56.531Z" fill="url(#paint31_radial_1_22439)"/>
<path style="mix-blend-mode:color-dodge" fill-rule="evenodd" clip-rule="evenodd" d="M58.8892 406.194C60.0337 406.001 60.804 404.913 60.6115 403.769C60.4158 402.624 59.3311 401.854 58.1866 402.046C57.0421 402.242 56.2717 403.327 56.4643 404.471C56.66 405.616 57.7447 406.389 58.8892 406.194Z" fill="url(#paint32_radial_1_22439)"/>
<path style="mix-blend-mode:color-dodge" fill-rule="evenodd" clip-rule="evenodd" d="M60.2891 386.232C61.4336 386.039 62.2039 384.951 62.0114 383.807C61.8157 382.662 60.7308 381.889 59.5863 382.084C58.4419 382.28 57.6715 383.365 57.8641 384.509C58.0598 385.654 59.1446 386.424 60.2891 386.232Z" fill="url(#paint33_radial_1_22439)"/>
<path style="mix-blend-mode:color-dodge" fill-rule="evenodd" clip-rule="evenodd" d="M99.1986 321.101C100.343 320.905 101.113 319.82 100.921 318.673C100.725 317.528 99.6404 316.758 98.4959 316.951C97.3514 317.146 96.5811 318.231 96.7736 319.375C96.9662 320.52 98.0541 321.29 99.1986 321.098L99.1986 321.101Z" fill="url(#paint34_radial_1_22439)"/>
<path style="mix-blend-mode:color-dodge" fill-rule="evenodd" clip-rule="evenodd" d="M45.2623 358.222C46.2164 357.558 46.4512 356.248 45.7874 355.294C45.1236 354.343 43.814 354.105 42.8599 354.769C41.9057 355.433 41.6709 356.742 42.3347 357.696C42.9986 358.651 44.3081 358.885 45.2623 358.222Z" fill="url(#paint35_radial_1_22439)"/>
<path style="mix-blend-mode:color-dodge" fill-rule="evenodd" clip-rule="evenodd" d="M-0.041654 304.755C0.912529 304.091 1.14735 302.782 0.483544 301.828C-0.180266 300.873 -1.49293 300.639 -2.44396 301.306C-3.39814 301.969 -3.63289 303.279 -2.96908 304.233C-2.30527 305.187 -0.99268 305.422 -0.0416436 304.758L-0.041654 304.755Z" fill="url(#paint36_radial_1_22439)"/>
<path style="mix-blend-mode:color-dodge" fill-rule="evenodd" clip-rule="evenodd" d="M22.5622 71.0412C23.4437 70.2832 23.5463 68.9553 22.7884 68.0738C22.0336 67.1922 20.7025 67.0897 19.8241 67.8476C18.9426 68.6056 18.84 69.9304 19.598 70.815C20.3559 71.6965 21.6807 71.7991 22.5622 71.0412Z" fill="url(#paint37_radial_1_22439)"/>
<path style="mix-blend-mode:color-dodge" fill-rule="evenodd" clip-rule="evenodd" d="M94.8721 8.77606C95.7537 8.02125 95.8531 6.69332 95.0983 5.8118C94.3403 4.93029 93.0124 4.82771 92.1341 5.58565C91.2525 6.34046 91.15 7.6684 91.9079 8.54991C92.6659 9.43142 93.9906 9.53401 94.8753 8.77605L94.8721 8.77606Z" fill="url(#paint38_radial_1_22439)"/>
<path style="mix-blend-mode:color-dodge" fill-rule="evenodd" clip-rule="evenodd" d="M28.6897 59.4848C29.5713 58.7268 29.6738 57.402 28.9159 56.5174C28.1579 55.6359 26.8331 55.5333 25.9516 56.2912C25.07 57.046 24.9675 58.374 25.7254 59.2555C26.4802 60.137 27.8082 60.2396 28.6897 59.4848Z" fill="url(#paint39_radial_1_22439)"/>
<path style="mix-blend-mode:color-dodge" fill-rule="evenodd" clip-rule="evenodd" d="M156.618 11.5583C157.499 10.8035 157.602 9.47551 156.844 8.59085C156.086 7.70934 154.761 7.60675 153.879 8.3647C152.998 9.11951 152.895 10.4474 153.653 11.329C154.408 12.2105 155.736 12.3131 156.618 11.5551L156.618 11.5583Z" fill="url(#paint40_radial_1_22439)"/>
<path style="mix-blend-mode:color-dodge" fill-rule="evenodd" clip-rule="evenodd" d="M192.886 46.8373C193.768 46.0825 193.871 44.7546 193.113 43.8699C192.358 42.9884 191.03 42.8858 190.148 43.6438C189.267 44.4017 189.167 45.7265 189.922 46.6112C190.677 47.4927 192.005 47.5953 192.886 46.8373Z" fill="url(#paint41_radial_1_22439)"/>
<path style="mix-blend-mode:color-dodge" fill-rule="evenodd" clip-rule="evenodd" d="M202.118 61.924C203 61.1692 203.102 59.8413 202.344 58.9597C201.59 58.0782 200.262 57.9757 199.38 58.7336C198.499 59.4884 198.396 60.8163 199.154 61.6979C199.909 62.5794 201.24 62.6819 202.121 61.924L202.118 61.924Z" fill="url(#paint42_radial_1_22439)"/>
<path style="mix-blend-mode:color-dodge" fill-rule="evenodd" clip-rule="evenodd" d="M124.288 32.2448C125.17 31.49 125.272 30.162 124.514 29.2774C123.76 28.3959 122.432 28.2933 121.55 29.0512C120.669 29.806 120.566 31.134 121.324 32.0155C122.079 32.897 123.407 32.9996 124.288 32.2416L124.288 32.2448Z" fill="url(#paint43_radial_1_22439)"/>
<path style="mix-blend-mode:color-dodge" fill-rule="evenodd" clip-rule="evenodd" d="M182.555 57.8771C183.436 57.1192 183.539 55.7944 182.781 54.9097C182.023 54.0282 180.698 53.9256 179.817 54.6836C178.935 55.4415 178.836 56.7663 179.591 57.6478C180.349 58.5293 181.676 58.6319 182.555 57.8771Z" fill="url(#paint44_radial_1_22439)"/>
<path style="mix-blend-mode:color-dodge" fill-rule="evenodd" clip-rule="evenodd" d="M52.9795 294.597C57.8634 291.195 59.0681 284.478 55.6669 279.591C52.2656 274.707 45.5482 273.505 40.6643 276.903C35.7804 280.305 34.5756 287.022 37.9737 291.903C41.3749 296.79 48.0924 297.995 52.9763 294.593L52.9795 294.597Z" fill="url(#paint45_radial_1_22439)"/>
<path style="mix-blend-mode:color-dodge" fill-rule="evenodd" clip-rule="evenodd" d="M3.70331 51.0094C8.59036 47.6082 9.79192 40.8907 6.39069 36.0037C2.99261 31.1198 -3.728 29.9182 -8.61191 33.3163C-13.4958 36.7175 -14.7005 43.4319 -11.2993 48.3158C-7.89807 53.2028 -1.1806 54.4044 3.7033 51.0063L3.70331 51.0094Z" fill="url(#paint46_radial_1_22439)"/>
<path style="mix-blend-mode:color-dodge" fill-rule="evenodd" clip-rule="evenodd" d="M84.0471 49.413C88.931 46.0118 90.1357 39.2943 86.7345 34.4073C83.3333 29.5234 76.6157 28.3218 71.7318 31.7199C66.8479 35.1211 65.6432 41.8354 69.0445 46.7193C72.4457 51.6064 79.16 52.8111 84.0471 49.4099L84.0471 49.413Z" fill="url(#paint47_radial_1_22439)"/>
<path style="mix-blend-mode:color-dodge" fill-rule="evenodd" clip-rule="evenodd" d="M94.8811 97.797C99.765 94.3958 100.97 87.6783 97.5685 82.7913C94.1672 77.9074 87.4498 76.7058 82.5659 80.1039C77.682 83.5051 76.4772 90.2195 79.8784 95.1034C83.2796 99.9904 89.9972 101.192 94.8811 97.7939L94.8811 97.797Z" fill="url(#paint48_radial_1_22439)"/>
<path style="mix-blend-mode:color-dodge" fill-rule="evenodd" clip-rule="evenodd" d="M69.0825 365.228C73.9695 361.826 75.1711 355.109 71.7698 350.222C68.3718 345.338 61.6543 344.136 56.7672 347.535C51.8833 350.936 50.6786 357.65 54.0799 362.537C57.4811 367.424 64.1954 368.626 69.0793 365.228L69.0825 365.228Z" fill="url(#paint49_radial_1_22439)"/>
<path style="mix-blend-mode:color-dodge" fill-rule="evenodd" clip-rule="evenodd" d="M38.0054 358.054C42.8924 354.653 44.094 347.935 40.6927 343.051C37.2947 338.168 30.5772 336.963 25.6901 340.364C20.8063 343.765 19.6015 350.48 23.0027 355.367C26.4039 360.254 33.1215 361.455 38.0054 358.057L38.0054 358.054Z" fill="url(#paint50_radial_1_22439)"/>
<path style="mix-blend-mode:color-dodge" fill-rule="evenodd" clip-rule="evenodd" d="M10.8361 212.79C15.72 209.389 16.9247 202.672 13.5235 197.788C10.1254 192.904 3.40796 191.702 -1.4791 195.1C-6.36299 198.501 -7.56771 205.216 -4.16649 210.1C-0.765254 214.987 5.95222 216.191 10.8361 212.79Z" fill="url(#paint51_radial_1_22439)"/>
<path style="mix-blend-mode:color-dodge" fill-rule="evenodd" clip-rule="evenodd" d="M0.138698 224.094C5.02574 220.692 6.2273 213.975 2.82607 209.088C-0.575155 204.204 -7.2927 202.999 -12.1766 206.4C-17.0605 209.799 -18.2652 216.516 -14.864 221.4C-11.4628 226.287 -4.74521 227.492 0.138688 224.09L0.138698 224.094Z" fill="url(#paint52_radial_1_22439)"/>
<path style="mix-blend-mode:color-dodge" fill-rule="evenodd" clip-rule="evenodd" d="M171.516 49.2686C176.403 45.8674 177.605 39.1499 174.204 34.2629C170.806 29.379 164.088 28.1742 159.201 31.5755C154.317 34.9767 153.112 41.6911 156.514 46.575C159.915 51.462 166.632 52.6636 171.516 49.2655L171.516 49.2686Z" fill="url(#paint53_radial_1_22439)"/>
<path style="mix-blend-mode:color-dodge" fill-rule="evenodd" clip-rule="evenodd" d="M31.5914 90.9525C36.4753 87.5513 37.68 80.8338 34.2788 75.9499C30.8775 71.066 24.1632 69.8613 19.2762 73.2625C14.3923 76.6637 13.1875 83.3781 16.5888 88.2651C19.99 93.1522 26.7075 94.3537 31.5914 90.9557L31.5914 90.9525Z" fill="url(#paint54_radial_1_22439)"/>
<path style="mix-blend-mode:color-dodge" fill-rule="evenodd" clip-rule="evenodd" d="M269.737 76.4081C274.621 73.0069 275.826 66.2893 272.425 61.4055C269.024 56.5216 262.309 55.3168 257.422 58.7181C252.538 62.1193 251.334 68.8336 254.735 73.7175C258.136 78.6046 264.854 79.8093 269.737 76.4081Z" fill="url(#paint55_radial_1_22439)"/>
<defs>
<radialGradient id="paint0_radial_1_22439" cx="0" cy="0" r="1" gradientUnits="userSpaceOnUse" gradientTransform="translate(17.3643 40.4958) rotate(55.1605) scale(4.15896)">
<stop stop-color="white"/>
<stop offset="0.17" stop-color="#CCCCCC"/>
<stop offset="0.47" stop-color="#757575"/>
<stop offset="0.72" stop-color="#363636"/>
<stop offset="0.91" stop-color="#0E0E0E"/>
<stop offset="1"/>
</radialGradient>
<radialGradient id="paint1_radial_1_22439" cx="0" cy="0" r="1" gradientUnits="userSpaceOnUse" gradientTransform="translate(48.178 70.2162) rotate(55.1606) scale(4.15896 4.15895)">
<stop stop-color="white"/>
<stop offset="0.17" stop-color="#CCCCCC"/>
<stop offset="0.47" stop-color="#757575"/>
<stop offset="0.72" stop-color="#363636"/>
<stop offset="0.91" stop-color="#0E0E0E"/>
<stop offset="1"/>
</radialGradient>
<radialGradient id="paint2_radial_1_22439" cx="0" cy="0" r="1" gradientUnits="userSpaceOnUse" gradientTransform="translate(98.9755 22.8883) rotate(55.1605) scale(4.15896)">
<stop stop-color="white"/>
<stop offset="0.17" stop-color="#CCCCCC"/>
<stop offset="0.47" stop-color="#757575"/>
<stop offset="0.72" stop-color="#363636"/>
<stop offset="0.91" stop-color="#0E0E0E"/>
<stop offset="1"/>
</radialGradient>
<radialGradient id="paint3_radial_1_22439" cx="0" cy="0" r="1" gradientUnits="userSpaceOnUse" gradientTransform="translate(6.67458 92.1167) rotate(55.1605) scale(4.15896)">
<stop stop-color="white"/>
<stop offset="0.17" stop-color="#CCCCCC"/>
<stop offset="0.47" stop-color="#757575"/>
<stop offset="0.72" stop-color="#363636"/>
<stop offset="0.91" stop-color="#0E0E0E"/>
<stop offset="1"/>
</radialGradient>
<radialGradient id="paint4_radial_1_22439" cx="0" cy="0" r="1" gradientUnits="userSpaceOnUse" gradientTransform="translate(121.719 331.634) rotate(80.3606) scale(4.15897)">
<stop stop-color="white"/>
<stop offset="0.17" stop-color="#CCCCCC"/>
<stop offset="0.47" stop-color="#757575"/>
<stop offset="0.72" stop-color="#363636"/>
<stop offset="0.91" stop-color="#0E0E0E"/>
<stop offset="1"/>
</radialGradient>
<radialGradient id="paint5_radial_1_22439" cx="0" cy="0" r="1" gradientUnits="userSpaceOnUse" gradientTransform="translate(74.7308 297.338) rotate(80.3606) scale(4.15897)">
<stop stop-color="white"/>
<stop offset="0.17" stop-color="#CCCCCC"/>
<stop offset="0.47" stop-color="#757575"/>
<stop offset="0.72" stop-color="#363636"/>
<stop offset="0.91" stop-color="#0E0E0E"/>
<stop offset="1"/>
</radialGradient>
<radialGradient id="paint6_radial_1_22439" cx="0" cy="0" r="1" gradientUnits="userSpaceOnUse" gradientTransform="translate(213.246 72.4466) rotate(55.1606) scale(4.15896)">
<stop stop-color="white"/>
<stop offset="0.17" stop-color="#CCCCCC"/>
<stop offset="0.47" stop-color="#757575"/>
<stop offset="0.72" stop-color="#363636"/>
<stop offset="0.91" stop-color="#0E0E0E"/>
<stop offset="1"/>
</radialGradient>
<radialGradient id="paint7_radial_1_22439" cx="0" cy="0" r="1" gradientUnits="userSpaceOnUse" gradientTransform="translate(64.2015 367.498) rotate(54.3605) scale(4.15896 4.15897)">
<stop stop-color="white"/>
<stop offset="0.17" stop-color="#CCCCCC"/>
<stop offset="0.47" stop-color="#757575"/>
<stop offset="0.72" stop-color="#363636"/>
<stop offset="0.91" stop-color="#0E0E0E"/>
<stop offset="1"/>
</radialGradient>
<radialGradient id="paint8_radial_1_22439" cx="0" cy="0" r="1" gradientUnits="userSpaceOnUse" gradientTransform="translate(59.154 337.584) rotate(54.3606) scale(4.15896 4.15896)">
<stop stop-color="white"/>
<stop offset="0.17" stop-color="#CCCCCC"/>
<stop offset="0.47" stop-color="#757575"/>
<stop offset="0.72" stop-color="#363636"/>
<stop offset="0.91" stop-color="#0E0E0E"/>
<stop offset="1"/>
</radialGradient>
<radialGradient id="paint9_radial_1_22439" cx="0" cy="0" r="1" gradientUnits="userSpaceOnUse" gradientTransform="translate(59.457 318.515) rotate(54.3606) scale(4.15895 4.15894)">
<stop stop-color="white"/>
<stop offset="0.17" stop-color="#CCCCCC"/>
<stop offset="0.47" stop-color="#757575"/>
<stop offset="0.72" stop-color="#363636"/>
<stop offset="0.91" stop-color="#0E0E0E"/>
<stop offset="1"/>
</radialGradient>
<radialGradient id="paint10_radial_1_22439" cx="0" cy="0" r="1" gradientUnits="userSpaceOnUse" gradientTransform="translate(22.2097 369.058) rotate(54.3605) scale(4.15895 4.15895)">
<stop stop-color="white"/>
<stop offset="0.17" stop-color="#CCCCCC"/>
<stop offset="0.47" stop-color="#757575"/>
<stop offset="0.72" stop-color="#363636"/>
<stop offset="0.91" stop-color="#0E0E0E"/>
<stop offset="1"/>
</radialGradient>
<radialGradient id="paint11_radial_1_22439" cx="0" cy="0" r="1" gradientUnits="userSpaceOnUse" gradientTransform="translate(127.67 21.6555) rotate(54.3605) scale(4.15896 4.15897)">
<stop stop-color="white"/>
<stop offset="0.17" stop-color="#CCCCCC"/>
<stop offset="0.47" stop-color="#757575"/>
<stop offset="0.72" stop-color="#363636"/>
<stop offset="0.91" stop-color="#0E0E0E"/>
<stop offset="1"/>
</radialGradient>
<radialGradient id="paint12_radial_1_22439" cx="0" cy="0" r="1" gradientUnits="userSpaceOnUse" gradientTransform="translate(136.102 4.57661) rotate(54.3606) scale(4.15896 4.15896)">
<stop stop-color="white"/>
<stop offset="0.17" stop-color="#CCCCCC"/>
<stop offset="0.47" stop-color="#757575"/>
<stop offset="0.72" stop-color="#363636"/>
<stop offset="0.91" stop-color="#0E0E0E"/>
<stop offset="1"/>
</radialGradient>
<radialGradient id="paint13_radial_1_22439" cx="0" cy="0" r="1" gradientUnits="userSpaceOnUse" gradientTransform="translate(16.915 58.6196) rotate(55.1606) scale(4.15896 4.15895)">
<stop stop-color="white"/>
<stop offset="0.17" stop-color="#CCCCCC"/>
<stop offset="0.47" stop-color="#757575"/>
<stop offset="0.72" stop-color="#363636"/>
<stop offset="0.91" stop-color="#0E0E0E"/>
<stop offset="1"/>
</radialGradient>
<radialGradient id="paint14_radial_1_22439" cx="0" cy="0" r="1" gradientUnits="userSpaceOnUse" gradientTransform="translate(37.1836 85.0554) rotate(55.1605) scale(2.10465 2.10465)">
<stop stop-color="white"/>
<stop offset="0.17" stop-color="#CCCCCC"/>
<stop offset="0.47" stop-color="#757575"/>
<stop offset="0.72" stop-color="#363636"/>
<stop offset="0.91" stop-color="#0E0E0E"/>
<stop offset="1"/>
</radialGradient>
<radialGradient id="paint15_radial_1_22439" cx="0" cy="0" r="1" gradientUnits="userSpaceOnUse" gradientTransform="translate(56.8081 96.5127) rotate(55.1605) scale(2.10465 2.10465)">
<stop stop-color="white"/>
<stop offset="0.17" stop-color="#CCCCCC"/>
<stop offset="0.47" stop-color="#757575"/>
<stop offset="0.72" stop-color="#363636"/>
<stop offset="0.91" stop-color="#0E0E0E"/>
<stop offset="1"/>
</radialGradient>
<radialGradient id="paint16_radial_1_22439" cx="0" cy="0" r="1" gradientUnits="userSpaceOnUse" gradientTransform="translate(141.55 17.1398) rotate(55.1605) scale(2.10465 2.10465)">
<stop stop-color="white"/>
<stop offset="0.17" stop-color="#CCCCCC"/>
<stop offset="0.47" stop-color="#757575"/>
<stop offset="0.72" stop-color="#363636"/>
<stop offset="0.91" stop-color="#0E0E0E"/>
<stop offset="1"/>
</radialGradient>
<radialGradient id="paint17_radial_1_22439" cx="0" cy="0" r="1" gradientUnits="userSpaceOnUse" gradientTransform="translate(50.8031 329.915) rotate(55.1606) scale(2.10465)">
<stop stop-color="white"/>
<stop offset="0.17" stop-color="#CCCCCC"/>
<stop offset="0.47" stop-color="#757575"/>
<stop offset="0.72" stop-color="#363636"/>
<stop offset="0.91" stop-color="#0E0E0E"/>
<stop offset="1"/>
</radialGradient>
<radialGradient id="paint18_radial_1_22439" cx="0" cy="0" r="1" gradientUnits="userSpaceOnUse" gradientTransform="translate(1.65654 215.523) rotate(55.1605) scale(2.10465)">
<stop stop-color="white"/>
<stop offset="0.17" stop-color="#CCCCCC"/>
<stop offset="0.47" stop-color="#757575"/>
<stop offset="0.72" stop-color="#363636"/>
<stop offset="0.91" stop-color="#0E0E0E"/>
<stop offset="1"/>
</radialGradient>
<radialGradient id="paint19_radial_1_22439" cx="0" cy="0" r="1" gradientUnits="userSpaceOnUse" gradientTransform="translate(17.755 208.762) rotate(55.1605) scale(2.10465 2.10465)">
<stop stop-color="white"/>
<stop offset="0.17" stop-color="#CCCCCC"/>
<stop offset="0.47" stop-color="#757575"/>
<stop offset="0.72" stop-color="#363636"/>
<stop offset="0.91" stop-color="#0E0E0E"/>
<stop offset="1"/>
</radialGradient>
<radialGradient id="paint20_radial_1_22439" cx="0" cy="0" r="1" gradientUnits="userSpaceOnUse" gradientTransform="translate(75.2744 317.361) rotate(80.3606) scale(2.10464)">
<stop stop-color="white"/>
<stop offset="0.17" stop-color="#CCCCCC"/>
<stop offset="0.47" stop-color="#757575"/>
<stop offset="0.72" stop-color="#363636"/>
<stop offset="0.91" stop-color="#0E0E0E"/>
<stop offset="1"/>
</radialGradient>
<radialGradient id="paint21_radial_1_22439" cx="0" cy="0" r="1" gradientUnits="userSpaceOnUse" gradientTransform="translate(66.1347 351.94) rotate(55.1605) scale(2.10465 2.10465)">
<stop stop-color="white"/>
<stop offset="0.17" stop-color="#CCCCCC"/>
<stop offset="0.47" stop-color="#757575"/>
<stop offset="0.72" stop-color="#363636"/>
<stop offset="0.91" stop-color="#0E0E0E"/>
<stop offset="1"/>
</radialGradient>
<radialGradient id="paint22_radial_1_22439" cx="0" cy="0" r="1" gradientUnits="userSpaceOnUse" gradientTransform="translate(10.4836 280.016) rotate(55.1607) scale(2.1015 2.1015)">
<stop stop-color="white"/>
<stop offset="0.17" stop-color="#CCCCCC"/>
<stop offset="0.47" stop-color="#757575"/>
<stop offset="0.72" stop-color="#363636"/>
<stop offset="0.91" stop-color="#0E0E0E"/>
<stop offset="1"/>
</radialGradient>
<radialGradient id="paint23_radial_1_22439" cx="0" cy="0" r="1" gradientUnits="userSpaceOnUse" gradientTransform="translate(18.1096 360.944) rotate(55.1605) scale(2.10465 2.10465)">
<stop stop-color="white"/>
<stop offset="0.17" stop-color="#CCCCCC"/>
<stop offset="0.47" stop-color="#757575"/>
<stop offset="0.72" stop-color="#363636"/>
<stop offset="0.91" stop-color="#0E0E0E"/>
<stop offset="1"/>
</radialGradient>
<radialGradient id="paint24_radial_1_22439" cx="0" cy="0" r="1" gradientUnits="userSpaceOnUse" gradientTransform="translate(47.9343 340.876) rotate(55.1605) scale(2.10465 2.10465)">
<stop stop-color="white"/>
<stop offset="0.17" stop-color="#CCCCCC"/>
<stop offset="0.47" stop-color="#757575"/>
<stop offset="0.72" stop-color="#363636"/>
<stop offset="0.91" stop-color="#0E0E0E"/>
<stop offset="1"/>
</radialGradient>
<radialGradient id="paint25_radial_1_22439" cx="0" cy="0" r="1" gradientUnits="userSpaceOnUse" gradientTransform="translate(112.678 69.3052) rotate(55.1607) scale(2.1015 2.1015)">
<stop stop-color="white"/>
<stop offset="0.17" stop-color="#CCCCCC"/>
<stop offset="0.47" stop-color="#757575"/>
<stop offset="0.72" stop-color="#363636"/>
<stop offset="0.91" stop-color="#0E0E0E"/>
<stop offset="1"/>
</radialGradient>
<radialGradient id="paint26_radial_1_22439" cx="0" cy="0" r="1" gradientUnits="userSpaceOnUse" gradientTransform="translate(110.895 5.07949) rotate(55.1606) scale(2.1015 2.1015)">
<stop stop-color="white"/>
<stop offset="0.17" stop-color="#CCCCCC"/>
<stop offset="0.47" stop-color="#757575"/>
<stop offset="0.72" stop-color="#363636"/>
<stop offset="0.91" stop-color="#0E0E0E"/>
<stop offset="1"/>
</radialGradient>
<radialGradient id="paint27_radial_1_22439" cx="0" cy="0" r="1" gradientUnits="userSpaceOnUse" gradientTransform="translate(46.376 57.0719) rotate(55.1605) scale(2.10465 2.10465)">
<stop stop-color="white"/>
<stop offset="0.17" stop-color="#CCCCCC"/>
<stop offset="0.47" stop-color="#757575"/>
<stop offset="0.72" stop-color="#363636"/>
<stop offset="0.91" stop-color="#0E0E0E"/>
<stop offset="1"/>
</radialGradient>
<radialGradient id="paint28_radial_1_22439" cx="0" cy="0" r="1" gradientUnits="userSpaceOnUse" gradientTransform="translate(213.129 60.4383) rotate(55.1605) scale(2.10465 2.10465)">
<stop stop-color="white"/>
<stop offset="0.17" stop-color="#CCCCCC"/>
<stop offset="0.47" stop-color="#757575"/>
<stop offset="0.72" stop-color="#363636"/>
<stop offset="0.91" stop-color="#0E0E0E"/>
<stop offset="1"/>
</radialGradient>
<radialGradient id="paint29_radial_1_22439" cx="0" cy="0" r="1" gradientUnits="userSpaceOnUse" gradientTransform="translate(251.308 80.8338) rotate(55.1605) scale(2.10465 2.10465)">
<stop stop-color="white"/>
<stop offset="0.17" stop-color="#CCCCCC"/>
<stop offset="0.47" stop-color="#757575"/>
<stop offset="0.72" stop-color="#363636"/>
<stop offset="0.91" stop-color="#0E0E0E"/>
<stop offset="1"/>
</radialGradient>
<radialGradient id="paint30_radial_1_22439" cx="0" cy="0" r="1" gradientUnits="userSpaceOnUse" gradientTransform="translate(230.553 80.5374) rotate(55.1605) scale(2.10465 2.10465)">
<stop stop-color="white"/>
<stop offset="0.17" stop-color="#CCCCCC"/>
<stop offset="0.47" stop-color="#757575"/>
<stop offset="0.72" stop-color="#363636"/>
<stop offset="0.91" stop-color="#0E0E0E"/>
<stop offset="1"/>
</radialGradient>
<radialGradient id="paint31_radial_1_22439" cx="0" cy="0" r="1" gradientUnits="userSpaceOnUse" gradientTransform="translate(87.8132 54.8312) rotate(55.1605) scale(2.10465 2.10465)">
<stop stop-color="white"/>
<stop offset="0.17" stop-color="#CCCCCC"/>
<stop offset="0.47" stop-color="#757575"/>
<stop offset="0.72" stop-color="#363636"/>
<stop offset="0.91" stop-color="#0E0E0E"/>
<stop offset="1"/>
</radialGradient>
<radialGradient id="paint32_radial_1_22439" cx="0" cy="0" r="1" gradientUnits="userSpaceOnUse" gradientTransform="translate(58.5119 404.055) rotate(80.3606) scale(2.10466 2.10464)">
<stop stop-color="white"/>
<stop offset="0.17" stop-color="#CCCCCC"/>
<stop offset="0.47" stop-color="#757575"/>
<stop offset="0.72" stop-color="#363636"/>
<stop offset="0.91" stop-color="#0E0E0E"/>
<stop offset="1"/>
</radialGradient>
<radialGradient id="paint33_radial_1_22439" cx="0" cy="0" r="1" gradientUnits="userSpaceOnUse" gradientTransform="translate(59.9137 384.091) rotate(80.3604) scale(2.10464 2.10468)">
<stop stop-color="white"/>
<stop offset="0.17" stop-color="#CCCCCC"/>
<stop offset="0.47" stop-color="#757575"/>
<stop offset="0.72" stop-color="#363636"/>
<stop offset="0.91" stop-color="#0E0E0E"/>
<stop offset="1"/>
</radialGradient>
<radialGradient id="paint34_radial_1_22439" cx="0" cy="0" r="1" gradientUnits="userSpaceOnUse" gradientTransform="translate(98.8189 318.966) rotate(80.3606) scale(2.10464)">
<stop stop-color="white"/>
<stop offset="0.17" stop-color="#CCCCCC"/>
<stop offset="0.47" stop-color="#757575"/>
<stop offset="0.72" stop-color="#363636"/>
<stop offset="0.91" stop-color="#0E0E0E"/>
<stop offset="1"/>
</radialGradient>
<radialGradient id="paint35_radial_1_22439" cx="0" cy="0" r="1" gradientUnits="userSpaceOnUse" gradientTransform="translate(44.0624 356.521) rotate(55.1605) scale(2.1015 2.10151)">
<stop stop-color="white"/>
<stop offset="0.17" stop-color="#CCCCCC"/>
<stop offset="0.47" stop-color="#757575"/>
<stop offset="0.72" stop-color="#363636"/>
<stop offset="0.91" stop-color="#0E0E0E"/>
<stop offset="1"/>
</radialGradient>
<radialGradient id="paint36_radial_1_22439" cx="0" cy="0" r="1" gradientUnits="userSpaceOnUse" gradientTransform="translate(-1.23948 303.052) rotate(55.1606) scale(2.10465 2.10464)">
<stop stop-color="white"/>
<stop offset="0.17" stop-color="#CCCCCC"/>
<stop offset="0.47" stop-color="#757575"/>
<stop offset="0.72" stop-color="#363636"/>
<stop offset="0.91" stop-color="#0E0E0E"/>
<stop offset="1"/>
</radialGradient>
<radialGradient id="paint37_radial_1_22439" cx="0" cy="0" r="1" gradientUnits="userSpaceOnUse" gradientTransform="translate(21.2517 69.4469) rotate(49.3807) scale(2.10464 2.10464)">
<stop stop-color="white"/>
<stop offset="0.17" stop-color="#CCCCCC"/>
<stop offset="0.47" stop-color="#757575"/>
<stop offset="0.72" stop-color="#363636"/>
<stop offset="0.91" stop-color="#0E0E0E"/>
<stop offset="1"/>
</radialGradient>
<radialGradient id="paint38_radial_1_22439" cx="0" cy="0" r="1" gradientUnits="userSpaceOnUse" gradientTransform="translate(93.5718 7.18313) rotate(49.3807) scale(2.10464 2.10464)">
<stop stop-color="white"/>
<stop offset="0.17" stop-color="#CCCCCC"/>
<stop offset="0.47" stop-color="#757575"/>
<stop offset="0.72" stop-color="#363636"/>
<stop offset="0.91" stop-color="#0E0E0E"/>
<stop offset="1"/>
</radialGradient>
<radialGradient id="paint39_radial_1_22439" cx="0" cy="0" r="1" gradientUnits="userSpaceOnUse" gradientTransform="translate(27.3826 57.8911) rotate(49.3802) scale(2.10466 2.10466)">
<stop stop-color="white"/>
<stop offset="0.17" stop-color="#CCCCCC"/>
<stop offset="0.47" stop-color="#757575"/>
<stop offset="0.72" stop-color="#363636"/>
<stop offset="0.91" stop-color="#0E0E0E"/>
<stop offset="1"/>
</radialGradient>
<radialGradient id="paint40_radial_1_22439" cx="0" cy="0" r="1" gradientUnits="userSpaceOnUse" gradientTransform="translate(155.322 9.9669) rotate(49.3807) scale(2.10464 2.10464)">
<stop stop-color="white"/>
<stop offset="0.17" stop-color="#CCCCCC"/>
<stop offset="0.47" stop-color="#757575"/>
<stop offset="0.72" stop-color="#363636"/>
<stop offset="0.91" stop-color="#0E0E0E"/>
<stop offset="1"/>
</radialGradient>
<radialGradient id="paint41_radial_1_22439" cx="0" cy="0" r="1" gradientUnits="userSpaceOnUse" gradientTransform="translate(191.593 45.2521) rotate(49.3807) scale(2.10464 2.10464)">
<stop stop-color="white"/>
<stop offset="0.17" stop-color="#CCCCCC"/>
<stop offset="0.47" stop-color="#757575"/>
<stop offset="0.72" stop-color="#363636"/>
<stop offset="0.91" stop-color="#0E0E0E"/>
<stop offset="1"/>
</radialGradient>
<radialGradient id="paint42_radial_1_22439" cx="0" cy="0" r="1" gradientUnits="userSpaceOnUse" gradientTransform="translate(200.824 60.3382) rotate(49.3802) scale(2.10466 2.10466)">
<stop stop-color="white"/>
<stop offset="0.17" stop-color="#CCCCCC"/>
<stop offset="0.47" stop-color="#757575"/>
<stop offset="0.72" stop-color="#363636"/>
<stop offset="0.91" stop-color="#0E0E0E"/>
<stop offset="1"/>
</radialGradient>
<radialGradient id="paint43_radial_1_22439" cx="0" cy="0" r="1" gradientUnits="userSpaceOnUse" gradientTransform="translate(122.989 30.6552) rotate(49.3807) scale(2.10464 2.10464)">
<stop stop-color="white"/>
<stop offset="0.17" stop-color="#CCCCCC"/>
<stop offset="0.47" stop-color="#757575"/>
<stop offset="0.72" stop-color="#363636"/>
<stop offset="0.91" stop-color="#0E0E0E"/>
<stop offset="1"/>
</radialGradient>
<radialGradient id="paint44_radial_1_22439" cx="0" cy="0" r="1" gradientUnits="userSpaceOnUse" gradientTransform="translate(181.262 56.2919) rotate(49.3807) scale(2.10464 2.10464)">
<stop stop-color="white"/>
<stop offset="0.17" stop-color="#CCCCCC"/>
<stop offset="0.47" stop-color="#757575"/>
<stop offset="0.72" stop-color="#363636"/>
<stop offset="0.91" stop-color="#0E0E0E"/>
<stop offset="1"/>
</radialGradient>
<radialGradient id="paint45_radial_1_22439" cx="0" cy="0" r="1" gradientUnits="userSpaceOnUse" gradientTransform="translate(46.8283 285.778) rotate(55.1605) scale(10.7781 10.7781)">
<stop stop-color="white"/>
<stop offset="0.17" stop-color="#CCCCCC"/>
<stop offset="0.47" stop-color="#757575"/>
<stop offset="0.72" stop-color="#363636"/>
<stop offset="0.91" stop-color="#0E0E0E"/>
<stop offset="1"/>
</radialGradient>
<radialGradient id="paint46_radial_1_22439" cx="0" cy="0" r="1" gradientUnits="userSpaceOnUse" gradientTransform="translate(-2.43816 42.1854) rotate(55.1606) scale(10.7781 10.7781)">
<stop stop-color="white"/>
<stop offset="0.17" stop-color="#CCCCCC"/>
<stop offset="0.47" stop-color="#757575"/>
<stop offset="0.72" stop-color="#363636"/>
<stop offset="0.91" stop-color="#0E0E0E"/>
<stop offset="1"/>
</radialGradient>
<radialGradient id="paint47_radial_1_22439" cx="0" cy="0" r="1" gradientUnits="userSpaceOnUse" gradientTransform="translate(77.9067 40.59) rotate(55.1605) scale(10.7781 10.7781)">
<stop stop-color="white"/>
<stop offset="0.17" stop-color="#CCCCCC"/>
<stop offset="0.47" stop-color="#757575"/>
<stop offset="0.72" stop-color="#363636"/>
<stop offset="0.91" stop-color="#0E0E0E"/>
<stop offset="1"/>
</radialGradient>
<radialGradient id="paint48_radial_1_22439" cx="0" cy="0" r="1" gradientUnits="userSpaceOnUse" gradientTransform="translate(88.7379 88.9783) rotate(55.1605) scale(10.7781 10.7781)">
<stop stop-color="white"/>
<stop offset="0.17" stop-color="#CCCCCC"/>
<stop offset="0.47" stop-color="#757575"/>
<stop offset="0.72" stop-color="#363636"/>
<stop offset="0.91" stop-color="#0E0E0E"/>
<stop offset="1"/>
</radialGradient>
<radialGradient id="paint49_radial_1_22439" cx="0" cy="0" r="1" gradientUnits="userSpaceOnUse" gradientTransform="translate(62.9259 356.411) rotate(55.1606) scale(10.7781 10.7781)">
<stop stop-color="white"/>
<stop offset="0.17" stop-color="#CCCCCC"/>
<stop offset="0.47" stop-color="#757575"/>
<stop offset="0.72" stop-color="#363636"/>
<stop offset="0.91" stop-color="#0E0E0E"/>
<stop offset="1"/>
</radialGradient>
<radialGradient id="paint50_radial_1_22439" cx="0" cy="0" r="1" gradientUnits="userSpaceOnUse" gradientTransform="translate(31.8493 349.237) rotate(55.1605) scale(10.7781 10.7781)">
<stop stop-color="white"/>
<stop offset="0.17" stop-color="#CCCCCC"/>
<stop offset="0.47" stop-color="#757575"/>
<stop offset="0.72" stop-color="#363636"/>
<stop offset="0.91" stop-color="#0E0E0E"/>
<stop offset="1"/>
</radialGradient>
<radialGradient id="paint51_radial_1_22439" cx="0" cy="0" r="1" gradientUnits="userSpaceOnUse" gradientTransform="translate(4.68761 203.966) rotate(55.1606) scale(10.7781 10.7781)">
<stop stop-color="white"/>
<stop offset="0.17" stop-color="#CCCCCC"/>
<stop offset="0.47" stop-color="#757575"/>
<stop offset="0.72" stop-color="#363636"/>
<stop offset="0.91" stop-color="#0E0E0E"/>
<stop offset="1"/>
</radialGradient>
<radialGradient id="paint52_radial_1_22439" cx="0" cy="0" r="1" gradientUnits="userSpaceOnUse" gradientTransform="translate(-6.01211 215.27) rotate(55.1605) scale(10.7781 10.7781)">
<stop stop-color="white"/>
<stop offset="0.17" stop-color="#CCCCCC"/>
<stop offset="0.47" stop-color="#757575"/>
<stop offset="0.72" stop-color="#363636"/>
<stop offset="0.91" stop-color="#0E0E0E"/>
<stop offset="1"/>
</radialGradient>
<radialGradient id="paint53_radial_1_22439" cx="0" cy="0" r="1" gradientUnits="userSpaceOnUse" gradientTransform="translate(165.378 40.4514) rotate(55.1606) scale(10.7781 10.7781)">
<stop stop-color="white"/>
<stop offset="0.17" stop-color="#CCCCCC"/>
<stop offset="0.47" stop-color="#757575"/>
<stop offset="0.72" stop-color="#363636"/>
<stop offset="0.91" stop-color="#0E0E0E"/>
<stop offset="1"/>
</radialGradient>
<radialGradient id="paint54_radial_1_22439" cx="0" cy="0" r="1" gradientUnits="userSpaceOnUse" gradientTransform="translate(25.447 82.1297) rotate(55.1606) scale(10.7781 10.7781)">
<stop stop-color="white"/>
<stop offset="0.17" stop-color="#CCCCCC"/>
<stop offset="0.47" stop-color="#757575"/>
<stop offset="0.72" stop-color="#363636"/>
<stop offset="0.91" stop-color="#0E0E0E"/>
<stop offset="1"/>
</radialGradient>
<radialGradient id="paint55_radial_1_22439" cx="0" cy="0" r="1" gradientUnits="userSpaceOnUse" gradientTransform="translate(263.597 67.5985) rotate(55.1605) scale(10.7781 10.7781)">
<stop stop-color="white"/>
<stop offset="0.17" stop-color="#CCCCCC"/>
<stop offset="0.47" stop-color="#757575"/>
<stop offset="0.72" stop-color="#363636"/>
<stop offset="0.91" stop-color="#0E0E0E"/>
<stop offset="1"/>
</radialGradient>
</defs>
</svg>
