<svg width="264" height="408" viewBox="0 0 264 408" fill="none" xmlns="http://www.w3.org/2000/svg">
<path style="mix-blend-mode:color-dodge" fill-rule="evenodd" clip-rule="evenodd" d="M7.72167 43.8881C9.60807 42.5763 10.0714 39.9857 8.75961 38.0993C7.4478 36.216 4.85708 35.7495 2.97068 37.0613C1.08743 38.3732 0.624145 40.9638 1.93282 42.8502C3.24464 44.7366 5.83527 45.2 7.72167 43.8881Z" fill="url(#paint0_radial_1_22688)"/>
<path style="mix-blend-mode:color-dodge" fill-rule="evenodd" clip-rule="evenodd" d="M38.5367 73.6037C40.42 72.2919 40.8865 69.7012 39.5747 67.8148C38.2629 65.9316 35.6722 65.4651 33.7858 66.7769C31.9026 68.0887 31.4361 70.6794 32.7479 72.5658C34.0597 74.4491 36.6535 74.9155 38.5367 73.6037Z" fill="url(#paint1_radial_1_22688)"/>
<path style="mix-blend-mode:color-dodge" fill-rule="evenodd" clip-rule="evenodd" d="M89.3337 26.275C91.2169 24.9632 91.6834 22.3725 90.3684 20.4861C89.0566 18.5997 86.4659 18.1364 84.5795 19.4482C82.6963 20.76 82.2298 23.3507 83.5416 25.2371C84.8534 27.1235 87.4441 27.5868 89.3305 26.275L89.3337 26.275Z" fill="url(#paint2_radial_1_22688)"/>
<path style="mix-blend-mode:color-dodge" fill-rule="evenodd" clip-rule="evenodd" d="M110.446 335.795C112.71 335.41 114.235 333.262 113.85 330.998C113.465 328.735 111.318 327.21 109.054 327.595C106.79 327.98 105.268 330.127 105.65 332.391C106.035 334.655 108.183 336.18 110.446 335.795Z" fill="url(#paint3_radial_1_22688)"/>
<path style="mix-blend-mode:color-dodge" fill-rule="evenodd" clip-rule="evenodd" d="M63.4523 301.499C65.7161 301.114 67.2411 298.966 66.8561 296.702C66.4711 294.439 64.3237 292.917 62.0599 293.302C59.796 293.687 58.2742 295.834 58.656 298.098C59.041 300.362 61.1885 301.887 63.4523 301.502L63.4523 301.499Z" fill="url(#paint4_radial_1_22688)"/>
<path style="mix-blend-mode:color-dodge" fill-rule="evenodd" clip-rule="evenodd" d="M203.606 75.8275C205.49 74.5157 205.956 71.9218 204.644 70.0386C203.332 68.1553 200.739 67.6889 198.855 69.0038C196.972 70.3156 196.506 72.9063 197.821 74.7895C199.132 76.6759 201.723 77.1393 203.61 75.8275L203.606 75.8275Z" fill="url(#paint5_radial_1_22688)"/>
<path style="mix-blend-mode:color-dodge" fill-rule="evenodd" clip-rule="evenodd" d="M54.5382 370.864C56.4057 369.527 56.8343 366.927 55.4943 365.06C54.1573 363.195 51.5574 362.767 49.6931 364.104C47.8256 365.44 47.4001 368.037 48.737 369.905C50.0739 371.772 52.6739 372.201 54.5413 370.864L54.5382 370.864Z" fill="url(#paint6_radial_1_22688)"/>
<path style="mix-blend-mode:color-dodge" fill-rule="evenodd" clip-rule="evenodd" d="M49.4936 340.954C51.3579 339.617 51.7867 337.017 50.4497 335.149C49.1128 333.282 46.5128 332.856 44.6486 334.193C42.7811 335.53 42.3524 338.127 43.6925 339.995C45.0294 341.862 47.6262 342.291 49.4968 340.954L49.4936 340.954Z" fill="url(#paint7_radial_1_22688)"/>
<path style="mix-blend-mode:color-dodge" fill-rule="evenodd" clip-rule="evenodd" d="M49.7972 321.886C51.6647 320.545 52.0933 317.949 50.7532 316.081C49.4163 314.214 46.8164 313.788 44.9521 315.125C43.0878 316.462 42.656 319.059 43.996 320.926C45.333 322.794 47.9329 323.222 49.7972 321.886Z" fill="url(#paint8_radial_1_22688)"/>
<path style="mix-blend-mode:color-dodge" fill-rule="evenodd" clip-rule="evenodd" d="M12.5536 372.425C14.4178 371.089 14.8497 368.489 13.5096 366.621C12.1727 364.754 9.57276 364.328 7.70847 365.665C5.84103 367.002 5.41544 369.599 6.75237 371.466C8.08929 373.334 10.6893 373.762 12.5535 372.422L12.5536 372.425Z" fill="url(#paint9_radial_1_22688)"/>
<path style="mix-blend-mode:color-dodge" fill-rule="evenodd" clip-rule="evenodd" d="M118.001 25.0732C119.868 23.7363 120.297 21.1363 118.957 19.2688C117.62 17.4014 115.02 16.9759 113.155 18.3128C111.288 19.6497 110.859 22.2465 112.199 24.114C113.536 25.9814 116.136 26.4101 118.001 25.0732Z" fill="url(#paint10_radial_1_22688)"/>
<path style="mix-blend-mode:color-dodge" fill-rule="evenodd" clip-rule="evenodd" d="M126.43 7.99628C128.298 6.65936 128.727 4.05936 127.386 2.19194C126.05 0.3245 123.45 -0.101045 121.585 1.23587C119.721 2.57278 119.289 5.17278 120.629 7.03707C121.969 8.90449 124.566 9.3332 126.434 7.99627L126.43 7.99628Z" fill="url(#paint11_radial_1_22688)"/>
<path style="mix-blend-mode:color-dodge" fill-rule="evenodd" clip-rule="evenodd" d="M7.2738 62.0106C9.15705 60.6988 9.62355 58.1049 8.31175 56.2217C6.99994 54.3384 4.40614 53.872 2.52289 55.1838C0.639643 56.4956 0.173133 59.0863 1.48495 60.9727C2.79677 62.8591 5.38741 63.3224 7.2738 62.0106Z" fill="url(#paint12_radial_1_22688)"/>
<path style="mix-blend-mode:color-dodge" fill-rule="evenodd" clip-rule="evenodd" d="M26.3687 86.7572C27.3229 86.0934 27.5576 84.7808 26.8938 83.8297C26.23 82.8756 24.9173 82.6408 23.9663 83.3046C23.0121 83.9684 22.7774 85.2779 23.4443 86.2321C24.1081 87.1863 25.4177 87.421 26.3718 86.7572L26.3687 86.7572Z" fill="url(#paint13_radial_1_22688)"/>
<path style="mix-blend-mode:color-dodge" fill-rule="evenodd" clip-rule="evenodd" d="M45.997 98.2114C46.9512 97.5476 47.1859 96.235 46.5221 95.2839C45.8583 94.3297 44.5488 94.0981 43.5946 94.7588C42.6404 95.4226 42.4057 96.7321 43.0695 97.6863C43.7333 98.6405 45.046 98.8752 45.997 98.2114Z" fill="url(#paint14_radial_1_22688)"/>
<path style="mix-blend-mode:color-dodge" fill-rule="evenodd" clip-rule="evenodd" d="M130.73 18.8369C131.684 18.1731 131.919 16.8636 131.255 15.9094C130.592 14.9553 129.279 14.7205 128.328 15.3843C127.374 16.0481 127.139 17.3576 127.803 18.3118C128.467 19.266 129.779 19.5007 130.73 18.8369Z" fill="url(#paint15_radial_1_22688)"/>
<path style="mix-blend-mode:color-dodge" fill-rule="evenodd" clip-rule="evenodd" d="M40.0012 331.614C40.9553 330.95 41.1901 329.637 40.5263 328.683C39.8625 327.729 38.5529 327.494 37.5988 328.158C36.6446 328.822 36.4098 330.131 37.0736 331.086C37.7374 332.04 39.047 332.275 40.0011 331.611L40.0012 331.614Z" fill="url(#paint16_radial_1_22688)"/>
<path style="mix-blend-mode:color-dodge" fill-rule="evenodd" clip-rule="evenodd" d="M6.94915 210.464C7.90333 209.8 8.13807 208.488 7.47427 207.537C6.81046 206.582 5.49779 206.348 4.54676 207.012C3.59257 207.675 3.35783 208.985 4.02164 209.939C4.68545 210.893 5.99811 211.128 6.94915 210.464Z" fill="url(#paint17_radial_1_22688)"/>
<path style="mix-blend-mode:color-dodge" fill-rule="evenodd" clip-rule="evenodd" d="M63.652 319.496C64.7965 319.3 65.5669 318.216 65.3743 317.071C65.1818 315.927 64.0939 315.156 62.9494 315.349C61.8049 315.545 61.0346 316.629 61.2271 317.774C61.4228 318.918 62.5075 319.689 63.652 319.496Z" fill="url(#paint18_radial_1_22688)"/>
<path style="mix-blend-mode:color-dodge" fill-rule="evenodd" clip-rule="evenodd" d="M55.3365 353.639C56.2907 352.975 56.5254 351.663 55.8616 350.712C55.1978 349.757 53.8851 349.523 52.9341 350.186C51.9799 350.85 51.7452 352.16 52.409 353.114C53.0728 354.068 54.3823 354.303 55.3365 353.639Z" fill="url(#paint19_radial_1_22688)"/>
<path style="mix-blend-mode:color-dodge" fill-rule="evenodd" clip-rule="evenodd" d="M-0.318451 281.72C0.635731 281.056 0.87048 279.746 0.20667 278.792C-0.45714 277.838 -1.76658 277.603 -2.72076 278.267C-3.6718 278.931 -3.90977 280.24 -3.24596 281.195C-2.58215 282.149 -1.27263 282.383 -0.318451 281.72Z" fill="url(#paint20_radial_1_22688)"/>
<path style="mix-blend-mode:color-dodge" fill-rule="evenodd" clip-rule="evenodd" d="M7.31377 362.645C8.26795 361.981 8.50269 360.668 7.83889 359.717C7.17508 358.763 5.86242 358.528 4.91138 359.192C3.9572 359.856 3.72245 361.165 4.38626 362.12C5.05007 363.074 6.35959 363.309 7.31377 362.645Z" fill="url(#paint21_radial_1_22688)"/>
<path style="mix-blend-mode:color-dodge" fill-rule="evenodd" clip-rule="evenodd" d="M37.1334 342.574C38.0876 341.91 38.3224 340.601 37.6554 339.647C36.9916 338.692 35.6821 338.458 34.7279 339.121C33.7737 339.785 33.539 341.095 34.2028 342.049C34.8666 343.003 36.1793 343.238 37.1303 342.574L37.1334 342.574Z" fill="url(#paint22_radial_1_22688)"/>
<path style="mix-blend-mode:color-dodge" fill-rule="evenodd" clip-rule="evenodd" d="M101.864 71.0041C102.818 70.3402 103.053 69.0307 102.389 68.0766C101.725 67.1224 100.416 66.8876 99.4614 67.5514C98.5072 68.2152 98.2724 69.5247 98.9362 70.4789C99.6 71.4331 100.909 71.6679 101.864 71.0041Z" fill="url(#paint23_radial_1_22688)"/>
<path style="mix-blend-mode:color-dodge" fill-rule="evenodd" clip-rule="evenodd" d="M100.077 6.77821C101.032 6.1144 101.266 4.8049 100.599 3.85073C99.9356 2.89654 98.6261 2.66178 97.6719 3.32559C96.7177 3.9894 96.4829 5.2989 97.1467 6.25308C97.8105 7.20727 99.1201 7.44203 100.074 6.77822L100.077 6.77821Z" fill="url(#paint24_radial_1_22688)"/>
<path style="mix-blend-mode:color-dodge" fill-rule="evenodd" clip-rule="evenodd" d="M35.5618 58.7738C36.516 58.11 36.7507 56.8005 36.0869 55.8463C35.4231 54.8922 34.1136 54.6574 33.1594 55.3212C32.2084 55.985 31.9736 57.2945 32.6343 58.2487C33.2981 59.2029 34.6076 59.4376 35.5618 58.7738Z" fill="url(#paint25_radial_1_22688)"/>
<path style="mix-blend-mode:color-dodge" fill-rule="evenodd" clip-rule="evenodd" d="M202.314 62.1331C203.268 61.4693 203.502 60.1598 202.839 59.2056C202.175 58.2514 200.865 58.0166 199.911 58.6805C198.957 59.3443 198.722 60.6538 199.386 61.6079C200.05 62.5621 201.359 62.7969 202.314 62.1331Z" fill="url(#paint26_radial_1_22688)"/>
<path style="mix-blend-mode:color-dodge" fill-rule="evenodd" clip-rule="evenodd" d="M240.492 82.5249C241.446 81.8611 241.681 80.5485 241.017 79.5974C240.353 78.6432 239.043 78.4085 238.089 79.0723C237.135 79.7361 236.9 81.0456 237.564 81.9998C238.228 82.954 239.537 83.1887 240.492 82.5249Z" fill="url(#paint27_radial_1_22688)"/>
<path style="mix-blend-mode:color-dodge" fill-rule="evenodd" clip-rule="evenodd" d="M219.737 82.2288C220.691 81.565 220.926 80.2555 220.262 79.3013C219.598 78.3471 218.285 78.1124 217.334 78.7762C216.38 79.44 216.145 80.7495 216.809 81.7036C217.473 82.6578 218.783 82.8926 219.737 82.2288Z" fill="url(#paint28_radial_1_22688)"/>
<path style="mix-blend-mode:color-dodge" fill-rule="evenodd" clip-rule="evenodd" d="M76.9978 56.5314C77.952 55.8676 78.1868 54.558 77.523 53.6039C76.8592 52.6528 75.5496 52.4181 74.5955 53.0787C73.6413 53.7425 73.4065 55.052 74.0703 56.0062C74.7341 56.9604 76.0468 57.1952 76.9978 56.5314Z" fill="url(#paint29_radial_1_22688)"/>
<path style="mix-blend-mode:color-dodge" fill-rule="evenodd" clip-rule="evenodd" d="M46.8892 406.194C48.0337 406.002 48.804 404.914 48.6115 403.769C48.4158 402.625 47.3311 401.854 46.1866 402.047C45.0421 402.243 44.2717 403.327 44.4643 404.472C44.66 405.616 45.7447 406.39 46.8892 406.194Z" fill="url(#paint30_radial_1_22688)"/>
<path style="mix-blend-mode:color-dodge" fill-rule="evenodd" clip-rule="evenodd" d="M48.2891 386.232C49.4336 386.039 50.2039 384.952 50.0114 383.807C49.8157 382.663 48.7308 381.889 47.5863 382.085C46.4419 382.281 45.6715 383.365 45.8641 384.51C46.0598 385.654 47.1446 386.425 48.2891 386.232Z" fill="url(#paint31_radial_1_22688)"/>
<path style="mix-blend-mode:color-dodge" fill-rule="evenodd" clip-rule="evenodd" d="M87.1986 321.101C88.3431 320.906 89.1134 319.821 88.9208 318.673C88.7251 317.529 87.6404 316.758 86.4959 316.951C85.3514 317.147 84.5811 318.231 84.7736 319.376C84.9662 320.52 86.0541 321.291 87.1986 321.098L87.1986 321.101Z" fill="url(#paint32_radial_1_22688)"/>
<path style="mix-blend-mode:color-dodge" fill-rule="evenodd" clip-rule="evenodd" d="M33.2623 358.222C34.2164 357.558 34.4512 356.249 33.7874 355.295C33.1236 354.344 31.814 354.106 30.8599 354.769C29.9057 355.433 29.6709 356.743 30.3347 357.697C30.9986 358.651 32.3081 358.886 33.2623 358.222Z" fill="url(#paint33_radial_1_22688)"/>
<path style="mix-blend-mode:color-dodge" fill-rule="evenodd" clip-rule="evenodd" d="M10.5622 71.0417C11.4437 70.2837 11.5463 68.9558 10.7884 68.0743C10.0336 67.1927 8.70249 67.0902 7.82412 67.8481C6.94261 68.6061 6.84002 69.9308 7.59798 70.8155C8.35593 71.697 9.6807 71.7996 10.5622 71.0417Z" fill="url(#paint34_radial_1_22688)"/>
<path style="mix-blend-mode:color-dodge" fill-rule="evenodd" clip-rule="evenodd" d="M82.8721 8.77667C83.7537 8.02186 83.8531 6.69393 83.0983 5.81241C82.3403 4.9309 81.0124 4.82832 80.1341 5.58626C79.2525 6.34107 79.15 7.66901 79.9079 8.55052C80.6659 9.43203 81.9906 9.53462 82.8753 8.77666L82.8721 8.77667Z" fill="url(#paint35_radial_1_22688)"/>
<path style="mix-blend-mode:color-dodge" fill-rule="evenodd" clip-rule="evenodd" d="M16.6897 59.4851C17.5713 58.7272 17.6738 57.4024 16.9159 56.5177C16.1579 55.6362 14.8331 55.5336 13.9516 56.2916C13.07 57.0464 12.9675 58.3743 13.7254 59.2558C14.4802 60.1374 15.8082 60.2399 16.6897 59.4851Z" fill="url(#paint36_radial_1_22688)"/>
<path style="mix-blend-mode:color-dodge" fill-rule="evenodd" clip-rule="evenodd" d="M144.618 11.5587C145.499 10.8039 145.602 9.476 144.844 8.59134C144.086 7.70983 142.761 7.60724 141.879 8.36519C140.998 9.12 140.895 10.4479 141.653 11.3295C142.408 12.211 143.736 12.3135 144.618 11.5556L144.618 11.5587Z" fill="url(#paint37_radial_1_22688)"/>
<path style="mix-blend-mode:color-dodge" fill-rule="evenodd" clip-rule="evenodd" d="M180.886 46.8377C181.768 46.0829 181.871 44.7549 181.113 43.8703C180.358 42.9888 179.03 42.8862 178.148 43.6441C177.267 44.4021 177.167 45.7269 177.922 46.6115C178.677 47.4931 180.005 47.5956 180.886 46.8377Z" fill="url(#paint38_radial_1_22688)"/>
<path style="mix-blend-mode:color-dodge" fill-rule="evenodd" clip-rule="evenodd" d="M190.118 61.9244C191 61.1696 191.102 59.8416 190.344 58.9601C189.59 58.0786 188.262 57.976 187.38 58.734C186.499 59.4888 186.396 60.8167 187.154 61.6982C187.909 62.5797 189.24 62.6823 190.121 61.9244L190.118 61.9244Z" fill="url(#paint39_radial_1_22688)"/>
<path style="mix-blend-mode:color-dodge" fill-rule="evenodd" clip-rule="evenodd" d="M112.288 32.2454C113.17 31.4906 113.272 30.1626 112.514 29.278C111.76 28.3965 110.432 28.2939 109.55 29.0518C108.669 29.8066 108.566 31.1346 109.324 32.0161C110.079 32.8976 111.407 33.0002 112.288 32.2422L112.288 32.2454Z" fill="url(#paint40_radial_1_22688)"/>
<path style="mix-blend-mode:color-dodge" fill-rule="evenodd" clip-rule="evenodd" d="M170.555 57.8777C171.436 57.1198 171.539 55.795 170.781 54.9103C170.023 54.0288 168.698 53.9262 167.817 54.6842C166.935 55.4421 166.836 56.7669 167.591 57.6484C168.349 58.5299 169.676 58.6325 170.555 57.8777Z" fill="url(#paint41_radial_1_22688)"/>
<path style="mix-blend-mode:color-dodge" fill-rule="evenodd" clip-rule="evenodd" d="M40.9795 294.597C45.8634 291.196 47.0681 284.478 43.6669 279.591C40.2656 274.707 33.5482 273.506 28.6643 276.904C23.7804 280.305 22.5756 287.023 25.9737 291.903C29.3749 296.79 36.0924 297.995 40.9763 294.594L40.9795 294.597Z" fill="url(#paint42_radial_1_22688)"/>
<path style="mix-blend-mode:color-dodge" fill-rule="evenodd" clip-rule="evenodd" d="M72.0471 49.4135C76.931 46.0123 78.1357 39.2948 74.7345 34.4077C71.3333 29.5238 64.6157 28.3223 59.7318 31.7203C54.8479 35.1216 53.6432 41.8359 57.0445 46.7198C60.4457 51.6069 67.16 52.8116 72.0471 49.4104L72.0471 49.4135Z" fill="url(#paint43_radial_1_22688)"/>
<path style="mix-blend-mode:color-dodge" fill-rule="evenodd" clip-rule="evenodd" d="M82.8811 97.7975C87.765 94.3963 88.9697 87.6788 85.5685 82.7918C82.1672 77.9079 75.4498 76.7063 70.5659 80.1044C65.682 83.5056 64.4772 90.22 67.8784 95.1038C71.2796 99.9909 77.9972 101.192 82.8811 97.7944L82.8811 97.7975Z" fill="url(#paint44_radial_1_22688)"/>
<path style="mix-blend-mode:color-dodge" fill-rule="evenodd" clip-rule="evenodd" d="M57.0825 365.228C61.9695 361.827 63.1711 355.11 59.7698 350.223C56.3718 345.339 49.6543 344.137 44.7672 347.535C39.8833 350.936 38.6786 357.651 42.0799 362.538C45.4811 367.425 52.1954 368.626 57.0793 365.228L57.0825 365.228Z" fill="url(#paint45_radial_1_22688)"/>
<path style="mix-blend-mode:color-dodge" fill-rule="evenodd" clip-rule="evenodd" d="M26.0054 358.055C30.8924 354.653 32.094 347.936 28.6927 343.052C25.2947 338.168 18.5772 336.963 13.6901 340.365C8.80625 343.766 7.60146 350.48 11.0027 355.367C14.4039 360.254 21.1215 361.456 26.0054 358.058L26.0054 358.055Z" fill="url(#paint46_radial_1_22688)"/>
<path style="mix-blend-mode:color-dodge" fill-rule="evenodd" clip-rule="evenodd" d="M-1.16388 212.791C3.72001 209.39 4.92472 202.672 1.5235 197.788C-1.87458 192.904 -8.59204 191.703 -13.4791 195.101C-18.363 198.502 -19.5677 205.216 -16.1665 210.1C-12.7653 214.987 -6.04778 216.192 -1.16388 212.791Z" fill="url(#paint47_radial_1_22688)"/>
<path style="mix-blend-mode:color-dodge" fill-rule="evenodd" clip-rule="evenodd" d="M159.516 49.2691C164.403 45.8679 165.605 39.1504 162.204 34.2634C158.806 29.3795 152.088 28.1747 147.201 31.576C142.317 34.9772 141.112 41.6915 144.514 46.5754C147.915 51.4625 154.632 52.6641 159.516 49.266L159.516 49.2691Z" fill="url(#paint48_radial_1_22688)"/>
<path style="mix-blend-mode:color-dodge" fill-rule="evenodd" clip-rule="evenodd" d="M19.5914 90.953C24.4753 87.5518 25.68 80.8343 22.2788 75.9504C18.8775 71.0665 12.1632 69.8617 7.27616 73.263C2.39226 76.6642 1.18755 83.3786 4.58878 88.2656C7.99001 93.1526 14.7075 94.3542 19.5914 90.9561L19.5914 90.953Z" fill="url(#paint49_radial_1_22688)"/>
<path style="mix-blend-mode:color-dodge" fill-rule="evenodd" clip-rule="evenodd" d="M257.737 76.4084C262.621 73.0072 263.826 66.2897 260.425 61.4058C257.024 56.5219 250.309 55.3172 245.422 58.7184C240.538 62.1196 239.334 68.834 242.735 73.7179C246.136 78.6049 252.854 79.8097 257.737 76.4084Z" fill="url(#paint50_radial_1_22688)"/>
<defs>
<radialGradient id="paint0_radial_1_22688" cx="0" cy="0" r="1" gradientUnits="userSpaceOnUse" gradientTransform="translate(5.3643 40.4963) rotate(55.1605) scale(4.15896)">
<stop stop-color="white"/>
<stop offset="0.17" stop-color="#CCCCCC"/>
<stop offset="0.47" stop-color="#757575"/>
<stop offset="0.72" stop-color="#363636"/>
<stop offset="0.91" stop-color="#0E0E0E"/>
<stop offset="1"/>
</radialGradient>
<radialGradient id="paint1_radial_1_22688" cx="0" cy="0" r="1" gradientUnits="userSpaceOnUse" gradientTransform="translate(36.178 70.2167) rotate(55.1606) scale(4.15896 4.15895)">
<stop stop-color="white"/>
<stop offset="0.17" stop-color="#CCCCCC"/>
<stop offset="0.47" stop-color="#757575"/>
<stop offset="0.72" stop-color="#363636"/>
<stop offset="0.91" stop-color="#0E0E0E"/>
<stop offset="1"/>
</radialGradient>
<radialGradient id="paint2_radial_1_22688" cx="0" cy="0" r="1" gradientUnits="userSpaceOnUse" gradientTransform="translate(86.9755 22.8888) rotate(55.1605) scale(4.15896)">
<stop stop-color="white"/>
<stop offset="0.17" stop-color="#CCCCCC"/>
<stop offset="0.47" stop-color="#757575"/>
<stop offset="0.72" stop-color="#363636"/>
<stop offset="0.91" stop-color="#0E0E0E"/>
<stop offset="1"/>
</radialGradient>
<radialGradient id="paint3_radial_1_22688" cx="0" cy="0" r="1" gradientUnits="userSpaceOnUse" gradientTransform="translate(109.719 331.634) rotate(80.3606) scale(4.15897)">
<stop stop-color="white"/>
<stop offset="0.17" stop-color="#CCCCCC"/>
<stop offset="0.47" stop-color="#757575"/>
<stop offset="0.72" stop-color="#363636"/>
<stop offset="0.91" stop-color="#0E0E0E"/>
<stop offset="1"/>
</radialGradient>
<radialGradient id="paint4_radial_1_22688" cx="0" cy="0" r="1" gradientUnits="userSpaceOnUse" gradientTransform="translate(62.7308 297.338) rotate(80.3606) scale(4.15897)">
<stop stop-color="white"/>
<stop offset="0.17" stop-color="#CCCCCC"/>
<stop offset="0.47" stop-color="#757575"/>
<stop offset="0.72" stop-color="#363636"/>
<stop offset="0.91" stop-color="#0E0E0E"/>
<stop offset="1"/>
</radialGradient>
<radialGradient id="paint5_radial_1_22688" cx="0" cy="0" r="1" gradientUnits="userSpaceOnUse" gradientTransform="translate(201.246 72.4469) rotate(55.1606) scale(4.15896)">
<stop stop-color="white"/>
<stop offset="0.17" stop-color="#CCCCCC"/>
<stop offset="0.47" stop-color="#757575"/>
<stop offset="0.72" stop-color="#363636"/>
<stop offset="0.91" stop-color="#0E0E0E"/>
<stop offset="1"/>
</radialGradient>
<radialGradient id="paint6_radial_1_22688" cx="0" cy="0" r="1" gradientUnits="userSpaceOnUse" gradientTransform="translate(52.2015 367.499) rotate(54.3605) scale(4.15896 4.15897)">
<stop stop-color="white"/>
<stop offset="0.17" stop-color="#CCCCCC"/>
<stop offset="0.47" stop-color="#757575"/>
<stop offset="0.72" stop-color="#363636"/>
<stop offset="0.91" stop-color="#0E0E0E"/>
<stop offset="1"/>
</radialGradient>
<radialGradient id="paint7_radial_1_22688" cx="0" cy="0" r="1" gradientUnits="userSpaceOnUse" gradientTransform="translate(47.154 337.584) rotate(54.3606) scale(4.15896 4.15896)">
<stop stop-color="white"/>
<stop offset="0.17" stop-color="#CCCCCC"/>
<stop offset="0.47" stop-color="#757575"/>
<stop offset="0.72" stop-color="#363636"/>
<stop offset="0.91" stop-color="#0E0E0E"/>
<stop offset="1"/>
</radialGradient>
<radialGradient id="paint8_radial_1_22688" cx="0" cy="0" r="1" gradientUnits="userSpaceOnUse" gradientTransform="translate(47.457 318.515) rotate(54.3606) scale(4.15895 4.15894)">
<stop stop-color="white"/>
<stop offset="0.17" stop-color="#CCCCCC"/>
<stop offset="0.47" stop-color="#757575"/>
<stop offset="0.72" stop-color="#363636"/>
<stop offset="0.91" stop-color="#0E0E0E"/>
<stop offset="1"/>
</radialGradient>
<radialGradient id="paint9_radial_1_22688" cx="0" cy="0" r="1" gradientUnits="userSpaceOnUse" gradientTransform="translate(10.2097 369.058) rotate(54.3605) scale(4.15895 4.15895)">
<stop stop-color="white"/>
<stop offset="0.17" stop-color="#CCCCCC"/>
<stop offset="0.47" stop-color="#757575"/>
<stop offset="0.72" stop-color="#363636"/>
<stop offset="0.91" stop-color="#0E0E0E"/>
<stop offset="1"/>
</radialGradient>
<radialGradient id="paint10_radial_1_22688" cx="0" cy="0" r="1" gradientUnits="userSpaceOnUse" gradientTransform="translate(115.67 21.6559) rotate(54.3605) scale(4.15896 4.15897)">
<stop stop-color="white"/>
<stop offset="0.17" stop-color="#CCCCCC"/>
<stop offset="0.47" stop-color="#757575"/>
<stop offset="0.72" stop-color="#363636"/>
<stop offset="0.91" stop-color="#0E0E0E"/>
<stop offset="1"/>
</radialGradient>
<radialGradient id="paint11_radial_1_22688" cx="0" cy="0" r="1" gradientUnits="userSpaceOnUse" gradientTransform="translate(124.102 4.57697) rotate(54.3606) scale(4.15896 4.15896)">
<stop stop-color="white"/>
<stop offset="0.17" stop-color="#CCCCCC"/>
<stop offset="0.47" stop-color="#757575"/>
<stop offset="0.72" stop-color="#363636"/>
<stop offset="0.91" stop-color="#0E0E0E"/>
<stop offset="1"/>
</radialGradient>
<radialGradient id="paint12_radial_1_22688" cx="0" cy="0" r="1" gradientUnits="userSpaceOnUse" gradientTransform="translate(4.91503 58.6202) rotate(55.1606) scale(4.15896 4.15895)">
<stop stop-color="white"/>
<stop offset="0.17" stop-color="#CCCCCC"/>
<stop offset="0.47" stop-color="#757575"/>
<stop offset="0.72" stop-color="#363636"/>
<stop offset="0.91" stop-color="#0E0E0E"/>
<stop offset="1"/>
</radialGradient>
<radialGradient id="paint13_radial_1_22688" cx="0" cy="0" r="1" gradientUnits="userSpaceOnUse" gradientTransform="translate(25.1836 85.056) rotate(55.1605) scale(2.10465 2.10465)">
<stop stop-color="white"/>
<stop offset="0.17" stop-color="#CCCCCC"/>
<stop offset="0.47" stop-color="#757575"/>
<stop offset="0.72" stop-color="#363636"/>
<stop offset="0.91" stop-color="#0E0E0E"/>
<stop offset="1"/>
</radialGradient>
<radialGradient id="paint14_radial_1_22688" cx="0" cy="0" r="1" gradientUnits="userSpaceOnUse" gradientTransform="translate(44.8081 96.5131) rotate(55.1605) scale(2.10465 2.10465)">
<stop stop-color="white"/>
<stop offset="0.17" stop-color="#CCCCCC"/>
<stop offset="0.47" stop-color="#757575"/>
<stop offset="0.72" stop-color="#363636"/>
<stop offset="0.91" stop-color="#0E0E0E"/>
<stop offset="1"/>
</radialGradient>
<radialGradient id="paint15_radial_1_22688" cx="0" cy="0" r="1" gradientUnits="userSpaceOnUse" gradientTransform="translate(129.55 17.1403) rotate(55.1605) scale(2.10465 2.10465)">
<stop stop-color="white"/>
<stop offset="0.17" stop-color="#CCCCCC"/>
<stop offset="0.47" stop-color="#757575"/>
<stop offset="0.72" stop-color="#363636"/>
<stop offset="0.91" stop-color="#0E0E0E"/>
<stop offset="1"/>
</radialGradient>
<radialGradient id="paint16_radial_1_22688" cx="0" cy="0" r="1" gradientUnits="userSpaceOnUse" gradientTransform="translate(38.8031 329.915) rotate(55.1606) scale(2.10465)">
<stop stop-color="white"/>
<stop offset="0.17" stop-color="#CCCCCC"/>
<stop offset="0.47" stop-color="#757575"/>
<stop offset="0.72" stop-color="#363636"/>
<stop offset="0.91" stop-color="#0E0E0E"/>
<stop offset="1"/>
</radialGradient>
<radialGradient id="paint17_radial_1_22688" cx="0" cy="0" r="1" gradientUnits="userSpaceOnUse" gradientTransform="translate(5.75496 208.762) rotate(55.1605) scale(2.10465 2.10465)">
<stop stop-color="white"/>
<stop offset="0.17" stop-color="#CCCCCC"/>
<stop offset="0.47" stop-color="#757575"/>
<stop offset="0.72" stop-color="#363636"/>
<stop offset="0.91" stop-color="#0E0E0E"/>
<stop offset="1"/>
</radialGradient>
<radialGradient id="paint18_radial_1_22688" cx="0" cy="0" r="1" gradientUnits="userSpaceOnUse" gradientTransform="translate(63.2744 317.361) rotate(80.3606) scale(2.10464)">
<stop stop-color="white"/>
<stop offset="0.17" stop-color="#CCCCCC"/>
<stop offset="0.47" stop-color="#757575"/>
<stop offset="0.72" stop-color="#363636"/>
<stop offset="0.91" stop-color="#0E0E0E"/>
<stop offset="1"/>
</radialGradient>
<radialGradient id="paint19_radial_1_22688" cx="0" cy="0" r="1" gradientUnits="userSpaceOnUse" gradientTransform="translate(54.1347 351.941) rotate(55.1605) scale(2.10465 2.10465)">
<stop stop-color="white"/>
<stop offset="0.17" stop-color="#CCCCCC"/>
<stop offset="0.47" stop-color="#757575"/>
<stop offset="0.72" stop-color="#363636"/>
<stop offset="0.91" stop-color="#0E0E0E"/>
<stop offset="1"/>
</radialGradient>
<radialGradient id="paint20_radial_1_22688" cx="0" cy="0" r="1" gradientUnits="userSpaceOnUse" gradientTransform="translate(-1.51641 280.016) rotate(55.1607) scale(2.1015 2.1015)">
<stop stop-color="white"/>
<stop offset="0.17" stop-color="#CCCCCC"/>
<stop offset="0.47" stop-color="#757575"/>
<stop offset="0.72" stop-color="#363636"/>
<stop offset="0.91" stop-color="#0E0E0E"/>
<stop offset="1"/>
</radialGradient>
<radialGradient id="paint21_radial_1_22688" cx="0" cy="0" r="1" gradientUnits="userSpaceOnUse" gradientTransform="translate(6.10962 360.944) rotate(55.1605) scale(2.10465 2.10465)">
<stop stop-color="white"/>
<stop offset="0.17" stop-color="#CCCCCC"/>
<stop offset="0.47" stop-color="#757575"/>
<stop offset="0.72" stop-color="#363636"/>
<stop offset="0.91" stop-color="#0E0E0E"/>
<stop offset="1"/>
</radialGradient>
<radialGradient id="paint22_radial_1_22688" cx="0" cy="0" r="1" gradientUnits="userSpaceOnUse" gradientTransform="translate(35.9343 340.877) rotate(55.1605) scale(2.10465 2.10465)">
<stop stop-color="white"/>
<stop offset="0.17" stop-color="#CCCCCC"/>
<stop offset="0.47" stop-color="#757575"/>
<stop offset="0.72" stop-color="#363636"/>
<stop offset="0.91" stop-color="#0E0E0E"/>
<stop offset="1"/>
</radialGradient>
<radialGradient id="paint23_radial_1_22688" cx="0" cy="0" r="1" gradientUnits="userSpaceOnUse" gradientTransform="translate(100.678 69.3056) rotate(55.1607) scale(2.1015 2.1015)">
<stop stop-color="white"/>
<stop offset="0.17" stop-color="#CCCCCC"/>
<stop offset="0.47" stop-color="#757575"/>
<stop offset="0.72" stop-color="#363636"/>
<stop offset="0.91" stop-color="#0E0E0E"/>
<stop offset="1"/>
</radialGradient>
<radialGradient id="paint24_radial_1_22688" cx="0" cy="0" r="1" gradientUnits="userSpaceOnUse" gradientTransform="translate(98.8946 5.0801) rotate(55.1606) scale(2.1015 2.1015)">
<stop stop-color="white"/>
<stop offset="0.17" stop-color="#CCCCCC"/>
<stop offset="0.47" stop-color="#757575"/>
<stop offset="0.72" stop-color="#363636"/>
<stop offset="0.91" stop-color="#0E0E0E"/>
<stop offset="1"/>
</radialGradient>
<radialGradient id="paint25_radial_1_22688" cx="0" cy="0" r="1" gradientUnits="userSpaceOnUse" gradientTransform="translate(34.376 57.0722) rotate(55.1605) scale(2.10465 2.10465)">
<stop stop-color="white"/>
<stop offset="0.17" stop-color="#CCCCCC"/>
<stop offset="0.47" stop-color="#757575"/>
<stop offset="0.72" stop-color="#363636"/>
<stop offset="0.91" stop-color="#0E0E0E"/>
<stop offset="1"/>
</radialGradient>
<radialGradient id="paint26_radial_1_22688" cx="0" cy="0" r="1" gradientUnits="userSpaceOnUse" gradientTransform="translate(201.129 60.4388) rotate(55.1605) scale(2.10465 2.10465)">
<stop stop-color="white"/>
<stop offset="0.17" stop-color="#CCCCCC"/>
<stop offset="0.47" stop-color="#757575"/>
<stop offset="0.72" stop-color="#363636"/>
<stop offset="0.91" stop-color="#0E0E0E"/>
<stop offset="1"/>
</radialGradient>
<radialGradient id="paint27_radial_1_22688" cx="0" cy="0" r="1" gradientUnits="userSpaceOnUse" gradientTransform="translate(239.308 80.8343) rotate(55.1605) scale(2.10465 2.10465)">
<stop stop-color="white"/>
<stop offset="0.17" stop-color="#CCCCCC"/>
<stop offset="0.47" stop-color="#757575"/>
<stop offset="0.72" stop-color="#363636"/>
<stop offset="0.91" stop-color="#0E0E0E"/>
<stop offset="1"/>
</radialGradient>
<radialGradient id="paint28_radial_1_22688" cx="0" cy="0" r="1" gradientUnits="userSpaceOnUse" gradientTransform="translate(218.553 80.5379) rotate(55.1605) scale(2.10465 2.10465)">
<stop stop-color="white"/>
<stop offset="0.17" stop-color="#CCCCCC"/>
<stop offset="0.47" stop-color="#757575"/>
<stop offset="0.72" stop-color="#363636"/>
<stop offset="0.91" stop-color="#0E0E0E"/>
<stop offset="1"/>
</radialGradient>
<radialGradient id="paint29_radial_1_22688" cx="0" cy="0" r="1" gradientUnits="userSpaceOnUse" gradientTransform="translate(75.8132 54.8315) rotate(55.1605) scale(2.10465 2.10465)">
<stop stop-color="white"/>
<stop offset="0.17" stop-color="#CCCCCC"/>
<stop offset="0.47" stop-color="#757575"/>
<stop offset="0.72" stop-color="#363636"/>
<stop offset="0.91" stop-color="#0E0E0E"/>
<stop offset="1"/>
</radialGradient>
<radialGradient id="paint30_radial_1_22688" cx="0" cy="0" r="1" gradientUnits="userSpaceOnUse" gradientTransform="translate(46.5119 404.055) rotate(80.3606) scale(2.10466 2.10464)">
<stop stop-color="white"/>
<stop offset="0.17" stop-color="#CCCCCC"/>
<stop offset="0.47" stop-color="#757575"/>
<stop offset="0.72" stop-color="#363636"/>
<stop offset="0.91" stop-color="#0E0E0E"/>
<stop offset="1"/>
</radialGradient>
<radialGradient id="paint31_radial_1_22688" cx="0" cy="0" r="1" gradientUnits="userSpaceOnUse" gradientTransform="translate(47.9137 384.091) rotate(80.3604) scale(2.10464 2.10468)">
<stop stop-color="white"/>
<stop offset="0.17" stop-color="#CCCCCC"/>
<stop offset="0.47" stop-color="#757575"/>
<stop offset="0.72" stop-color="#363636"/>
<stop offset="0.91" stop-color="#0E0E0E"/>
<stop offset="1"/>
</radialGradient>
<radialGradient id="paint32_radial_1_22688" cx="0" cy="0" r="1" gradientUnits="userSpaceOnUse" gradientTransform="translate(86.8189 318.966) rotate(80.3606) scale(2.10464)">
<stop stop-color="white"/>
<stop offset="0.17" stop-color="#CCCCCC"/>
<stop offset="0.47" stop-color="#757575"/>
<stop offset="0.72" stop-color="#363636"/>
<stop offset="0.91" stop-color="#0E0E0E"/>
<stop offset="1"/>
</radialGradient>
<radialGradient id="paint33_radial_1_22688" cx="0" cy="0" r="1" gradientUnits="userSpaceOnUse" gradientTransform="translate(32.0624 356.521) rotate(55.1605) scale(2.1015 2.10151)">
<stop stop-color="white"/>
<stop offset="0.17" stop-color="#CCCCCC"/>
<stop offset="0.47" stop-color="#757575"/>
<stop offset="0.72" stop-color="#363636"/>
<stop offset="0.91" stop-color="#0E0E0E"/>
<stop offset="1"/>
</radialGradient>
<radialGradient id="paint34_radial_1_22688" cx="0" cy="0" r="1" gradientUnits="userSpaceOnUse" gradientTransform="translate(9.25171 69.4473) rotate(49.3807) scale(2.10464 2.10464)">
<stop stop-color="white"/>
<stop offset="0.17" stop-color="#CCCCCC"/>
<stop offset="0.47" stop-color="#757575"/>
<stop offset="0.72" stop-color="#363636"/>
<stop offset="0.91" stop-color="#0E0E0E"/>
<stop offset="1"/>
</radialGradient>
<radialGradient id="paint35_radial_1_22688" cx="0" cy="0" r="1" gradientUnits="userSpaceOnUse" gradientTransform="translate(81.5718 7.18374) rotate(49.3807) scale(2.10464 2.10464)">
<stop stop-color="white"/>
<stop offset="0.17" stop-color="#CCCCCC"/>
<stop offset="0.47" stop-color="#757575"/>
<stop offset="0.72" stop-color="#363636"/>
<stop offset="0.91" stop-color="#0E0E0E"/>
<stop offset="1"/>
</radialGradient>
<radialGradient id="paint36_radial_1_22688" cx="0" cy="0" r="1" gradientUnits="userSpaceOnUse" gradientTransform="translate(15.3826 57.8915) rotate(49.3802) scale(2.10466 2.10466)">
<stop stop-color="white"/>
<stop offset="0.17" stop-color="#CCCCCC"/>
<stop offset="0.47" stop-color="#757575"/>
<stop offset="0.72" stop-color="#363636"/>
<stop offset="0.91" stop-color="#0E0E0E"/>
<stop offset="1"/>
</radialGradient>
<radialGradient id="paint37_radial_1_22688" cx="0" cy="0" r="1" gradientUnits="userSpaceOnUse" gradientTransform="translate(143.322 9.96739) rotate(49.3807) scale(2.10464 2.10464)">
<stop stop-color="white"/>
<stop offset="0.17" stop-color="#CCCCCC"/>
<stop offset="0.47" stop-color="#757575"/>
<stop offset="0.72" stop-color="#363636"/>
<stop offset="0.91" stop-color="#0E0E0E"/>
<stop offset="1"/>
</radialGradient>
<radialGradient id="paint38_radial_1_22688" cx="0" cy="0" r="1" gradientUnits="userSpaceOnUse" gradientTransform="translate(179.593 45.2524) rotate(49.3807) scale(2.10464 2.10464)">
<stop stop-color="white"/>
<stop offset="0.17" stop-color="#CCCCCC"/>
<stop offset="0.47" stop-color="#757575"/>
<stop offset="0.72" stop-color="#363636"/>
<stop offset="0.91" stop-color="#0E0E0E"/>
<stop offset="1"/>
</radialGradient>
<radialGradient id="paint39_radial_1_22688" cx="0" cy="0" r="1" gradientUnits="userSpaceOnUse" gradientTransform="translate(188.824 60.3386) rotate(49.3802) scale(2.10466 2.10466)">
<stop stop-color="white"/>
<stop offset="0.17" stop-color="#CCCCCC"/>
<stop offset="0.47" stop-color="#757575"/>
<stop offset="0.72" stop-color="#363636"/>
<stop offset="0.91" stop-color="#0E0E0E"/>
<stop offset="1"/>
</radialGradient>
<radialGradient id="paint40_radial_1_22688" cx="0" cy="0" r="1" gradientUnits="userSpaceOnUse" gradientTransform="translate(110.989 30.6558) rotate(49.3807) scale(2.10464 2.10464)">
<stop stop-color="white"/>
<stop offset="0.17" stop-color="#CCCCCC"/>
<stop offset="0.47" stop-color="#757575"/>
<stop offset="0.72" stop-color="#363636"/>
<stop offset="0.91" stop-color="#0E0E0E"/>
<stop offset="1"/>
</radialGradient>
<radialGradient id="paint41_radial_1_22688" cx="0" cy="0" r="1" gradientUnits="userSpaceOnUse" gradientTransform="translate(169.262 56.2925) rotate(49.3807) scale(2.10464 2.10464)">
<stop stop-color="white"/>
<stop offset="0.17" stop-color="#CCCCCC"/>
<stop offset="0.47" stop-color="#757575"/>
<stop offset="0.72" stop-color="#363636"/>
<stop offset="0.91" stop-color="#0E0E0E"/>
<stop offset="1"/>
</radialGradient>
<radialGradient id="paint42_radial_1_22688" cx="0" cy="0" r="1" gradientUnits="userSpaceOnUse" gradientTransform="translate(34.8283 285.778) rotate(55.1605) scale(10.7781 10.7781)">
<stop stop-color="white"/>
<stop offset="0.17" stop-color="#CCCCCC"/>
<stop offset="0.47" stop-color="#757575"/>
<stop offset="0.72" stop-color="#363636"/>
<stop offset="0.91" stop-color="#0E0E0E"/>
<stop offset="1"/>
</radialGradient>
<radialGradient id="paint43_radial_1_22688" cx="0" cy="0" r="1" gradientUnits="userSpaceOnUse" gradientTransform="translate(65.9067 40.5905) rotate(55.1605) scale(10.7781 10.7781)">
<stop stop-color="white"/>
<stop offset="0.17" stop-color="#CCCCCC"/>
<stop offset="0.47" stop-color="#757575"/>
<stop offset="0.72" stop-color="#363636"/>
<stop offset="0.91" stop-color="#0E0E0E"/>
<stop offset="1"/>
</radialGradient>
<radialGradient id="paint44_radial_1_22688" cx="0" cy="0" r="1" gradientUnits="userSpaceOnUse" gradientTransform="translate(76.7379 88.9788) rotate(55.1605) scale(10.7781 10.7781)">
<stop stop-color="white"/>
<stop offset="0.17" stop-color="#CCCCCC"/>
<stop offset="0.47" stop-color="#757575"/>
<stop offset="0.72" stop-color="#363636"/>
<stop offset="0.91" stop-color="#0E0E0E"/>
<stop offset="1"/>
</radialGradient>
<radialGradient id="paint45_radial_1_22688" cx="0" cy="0" r="1" gradientUnits="userSpaceOnUse" gradientTransform="translate(50.9259 356.411) rotate(55.1606) scale(10.7781 10.7781)">
<stop stop-color="white"/>
<stop offset="0.17" stop-color="#CCCCCC"/>
<stop offset="0.47" stop-color="#757575"/>
<stop offset="0.72" stop-color="#363636"/>
<stop offset="0.91" stop-color="#0E0E0E"/>
<stop offset="1"/>
</radialGradient>
<radialGradient id="paint46_radial_1_22688" cx="0" cy="0" r="1" gradientUnits="userSpaceOnUse" gradientTransform="translate(19.8493 349.237) rotate(55.1605) scale(10.7781 10.7781)">
<stop stop-color="white"/>
<stop offset="0.17" stop-color="#CCCCCC"/>
<stop offset="0.47" stop-color="#757575"/>
<stop offset="0.72" stop-color="#363636"/>
<stop offset="0.91" stop-color="#0E0E0E"/>
<stop offset="1"/>
</radialGradient>
<radialGradient id="paint47_radial_1_22688" cx="0" cy="0" r="1" gradientUnits="userSpaceOnUse" gradientTransform="translate(-7.31239 203.966) rotate(55.1606) scale(10.7781 10.7781)">
<stop stop-color="white"/>
<stop offset="0.17" stop-color="#CCCCCC"/>
<stop offset="0.47" stop-color="#757575"/>
<stop offset="0.72" stop-color="#363636"/>
<stop offset="0.91" stop-color="#0E0E0E"/>
<stop offset="1"/>
</radialGradient>
<radialGradient id="paint48_radial_1_22688" cx="0" cy="0" r="1" gradientUnits="userSpaceOnUse" gradientTransform="translate(153.378 40.4519) rotate(55.1606) scale(10.7781 10.7781)">
<stop stop-color="white"/>
<stop offset="0.17" stop-color="#CCCCCC"/>
<stop offset="0.47" stop-color="#757575"/>
<stop offset="0.72" stop-color="#363636"/>
<stop offset="0.91" stop-color="#0E0E0E"/>
<stop offset="1"/>
</radialGradient>
<radialGradient id="paint49_radial_1_22688" cx="0" cy="0" r="1" gradientUnits="userSpaceOnUse" gradientTransform="translate(13.447 82.1301) rotate(55.1606) scale(10.7781 10.7781)">
<stop stop-color="white"/>
<stop offset="0.17" stop-color="#CCCCCC"/>
<stop offset="0.47" stop-color="#757575"/>
<stop offset="0.72" stop-color="#363636"/>
<stop offset="0.91" stop-color="#0E0E0E"/>
<stop offset="1"/>
</radialGradient>
<radialGradient id="paint50_radial_1_22688" cx="0" cy="0" r="1" gradientUnits="userSpaceOnUse" gradientTransform="translate(251.597 67.5988) rotate(55.1605) scale(10.7781 10.7781)">
<stop stop-color="white"/>
<stop offset="0.17" stop-color="#CCCCCC"/>
<stop offset="0.47" stop-color="#757575"/>
<stop offset="0.72" stop-color="#363636"/>
<stop offset="0.91" stop-color="#0E0E0E"/>
<stop offset="1"/>
</radialGradient>
</defs>
</svg>
