<svg width="35" height="35" viewBox="0 0 35 35" fill="none" xmlns="http://www.w3.org/2000/svg">
<g clip-path="url(#clip0_1_2540)">
<path d="M35 17.6072C35 7.88155 27.1644 -0.00219727 17.5 -0.00219727C7.83125 -9.76562e-06 -0.00437546 7.88155 -0.00437546 17.6094C-0.00437546 26.3966 6.39625 33.6809 14.7612 35.0022V22.6975H10.3206V17.6094H14.7656V13.7266C14.7656 9.31437 17.3797 6.87749 21.3762 6.87749C23.2925 6.87749 25.2941 7.22093 25.2941 7.22093V11.5522H23.0869C20.9147 11.5522 20.2366 12.9106 20.2366 14.3041V17.6072H25.0884L24.3141 22.6953H20.2344V35C28.5994 33.6787 35 26.3944 35 17.6072Z" fill="white"/>
</g>
<defs>
<clipPath id="clip0_1_2540">
<rect width="35" height="35" fill="white"/>
</clipPath>
</defs>
</svg>
