<svg width="16" height="47" viewBox="0 0 16 47" fill="none" xmlns="http://www.w3.org/2000/svg">
<g clip-path="url(#clip0_1_74)">
<path d="M6.14294 40.0001L1.40694 28.8001H5.47094L9.32694 38.2561H6.91094L10.8789 28.8001H14.5909L9.85494 40.0001H6.14294Z" fill="white"/>
<path d="M6.14294 40.0001L1.40694 28.8001H5.47094L9.32694 38.2561H6.91094L10.8789 28.8001H14.5909L9.85494 40.0001H6.14294Z" fill="#1B1D29"/>
<path d="M6.14294 40.0001L1.40694 28.8001H5.47094L9.32694 38.2561H6.91094L10.8789 28.8001H14.5909L9.85494 40.0001H6.14294Z" fill="#132941"/>
<path d="M6.14294 40.0001L1.40694 28.8001H5.47094L9.32694 38.2561H6.91094L10.8789 28.8001H14.5909L9.85494 40.0001H6.14294Z" fill="#153E6A"/>
<path d="M6.14294 40.0001L1.40694 28.8001H5.47094L9.32694 38.2561H6.91094L10.8789 28.8001H14.5909L9.85494 40.0001H6.14294Z" fill="#1B1D29"/>
<path d="M6.14294 40.0001L1.40694 28.8001H5.47094L9.32694 38.2561H6.91094L10.8789 28.8001H14.5909L9.85494 40.0001H6.14294Z" fill="#132941"/>
<path d="M6.14294 40.0001L1.40694 28.8001H5.47094L9.32694 38.2561H6.91094L10.8789 28.8001H14.5909L9.85494 40.0001H6.14294Z" fill="white"/>
</g>
<g opacity="0.22">
<circle cx="8" cy="2.00006" r="2" fill="#1B1D29"/>
<circle cx="8" cy="2.00006" r="2" fill="#D9D9D9"/>
</g>
<g opacity="0.5">
<circle cx="8" cy="11.0001" r="2" fill="#1B1D29"/>
<circle cx="8" cy="11.0001" r="2" fill="#D9D9D9"/>
</g>
<g opacity="0.8">
<circle cx="8" cy="20.0001" r="2" fill="#1B1D29"/>
<circle cx="8" cy="20.0001" r="2" fill="#D9D9D9"/>
</g>
<defs>
<clipPath id="clip0_1_74">
<rect width="16" height="25" fill="white" transform="translate(0 22.0001)"/>
</clipPath>
</defs>
</svg>
