  <svg width="28" height="28" viewBox="0 0 28 28" fill="none" xmlns="http://www.w3.org/2000/svg">
          
                <path fill-rule="evenodd" clip-rule="evenodd" d="M26.25 14C26.25 13.7679 26.1578 13.5454 25.9937 13.3813C25.8296 13.2172 25.6071 13.125 25.375 13.125H4.73725L10.2445 7.61951C10.4088 7.45521 10.5011 7.23236 10.5011 7.00001C10.5011 6.76765 10.4088 6.54481 10.2445 6.38051C10.0802 6.2162 9.85736 6.1239 9.625 6.1239C9.39264 6.1239 9.1698 6.2162 9.0055 6.38051L2.0055 13.3805C1.92402 13.4618 1.85937 13.5583 1.81525 13.6646C1.77114 13.771 1.74844 13.8849 1.74844 14C1.74844 14.1151 1.77114 14.2291 1.81525 14.3354C1.85937 14.4417 1.92402 14.5382 2.0055 14.6195L9.0055 21.6195C9.1698 21.7838 9.39264 21.8761 9.625 21.8761C9.85736 21.8761 10.0802 21.7838 10.2445 21.6195C10.4088 21.4552 10.5011 21.2324 10.5011 21C10.5011 20.7676 10.4088 20.5448 10.2445 20.3805L4.73725 14.875H25.375C25.6071 14.875 25.8296 14.7828 25.9937 14.6187C26.1578 14.4546 26.25 14.2321 26.25 14Z" fill="white"/>
                
              </svg>