<svg width="24" height="24" viewBox="0 0 24 24" fill="none" xmlns="http://www.w3.org/2000/svg">
<path fill-rule="evenodd" clip-rule="evenodd" d="M1.49994 12.0001C1.49994 11.8011 1.57896 11.6104 1.71961 11.4697C1.86026 11.3291 2.05103 11.2501 2.24994 11.2501H19.9394L15.2189 6.53106C15.0781 6.39023 14.999 6.19923 14.999 6.00006C14.999 5.8009 15.0781 5.60989 15.2189 5.46906C15.3598 5.32823 15.5508 5.24911 15.7499 5.24911C15.9491 5.24911 16.1401 5.32823 16.2809 5.46906L22.2809 11.4691C22.3508 11.5387 22.4062 11.6215 22.444 11.7126C22.4818 11.8037 22.5013 11.9014 22.5013 12.0001C22.5013 12.0987 22.4818 12.1964 22.444 12.2875C22.4062 12.3786 22.3508 12.4614 22.2809 12.5311L16.2809 18.5311C16.1401 18.6719 15.9491 18.751 15.7499 18.751C15.5508 18.751 15.3598 18.6719 15.2189 18.5311C15.0781 18.3902 14.999 18.1992 14.999 18.0001C14.999 17.8009 15.0781 17.6099 15.2189 17.4691L19.9394 12.7501H2.24994C2.05103 12.7501 1.86026 12.671 1.71961 12.5304C1.57896 12.3897 1.49994 12.199 1.49994 12.0001Z" fill="white"/>
</svg>
