<svg width="218" height="50" viewBox="0 0 218 50" fill="none" xmlns="http://www.w3.org/2000/svg">
<path d="M89.9399 18V32H86.0599L80.7399 25.64V32H76.1399V18H80.0199L85.3399 24.36V18H89.9399ZM106.554 29.56H101.234L100.294 32H95.4942L101.614 18H106.254L112.374 32H107.494L106.554 29.56ZM105.254 26.16L103.894 22.64L102.534 26.16H105.254ZM132.087 18L126.167 32H121.527L115.607 18H120.687L124.027 26.18L127.447 18H132.087ZM137.356 18H142.076V32H137.356V18ZM160.789 28.44V32H149.149V18H160.529V21.56H153.789V23.2H159.709V26.6H153.789V28.44H160.789ZM172.626 32.32C171.466 32.32 170.332 32.1933 169.226 31.94C168.132 31.6733 167.232 31.32 166.526 30.88L168.046 27.44C168.712 27.8267 169.459 28.14 170.286 28.38C171.112 28.6067 171.906 28.72 172.666 28.72C173.319 28.72 173.786 28.66 174.066 28.54C174.346 28.4067 174.486 28.2133 174.486 27.96C174.486 27.6667 174.299 27.4467 173.926 27.3C173.566 27.1533 172.966 26.9933 172.126 26.82C171.046 26.5933 170.146 26.3533 169.426 26.1C168.706 25.8333 168.079 25.4067 167.546 24.82C167.012 24.22 166.746 23.4133 166.746 22.4C166.746 21.52 166.992 20.72 167.486 20C167.979 19.28 168.712 18.7133 169.686 18.3C170.672 17.8867 171.866 17.68 173.266 17.68C174.226 17.68 175.166 17.7867 176.086 18C177.019 18.2 177.839 18.5 178.546 18.9L177.126 22.32C175.752 21.6267 174.452 21.28 173.226 21.28C172.012 21.28 171.406 21.5733 171.406 22.16C171.406 22.44 171.586 22.6533 171.946 22.8C172.306 22.9333 172.899 23.08 173.726 23.24C174.792 23.44 175.692 23.6733 176.426 23.94C177.159 24.1933 177.792 24.6133 178.326 25.2C178.872 25.7867 179.146 26.5867 179.146 27.6C179.146 28.48 178.899 29.28 178.406 30C177.912 30.7067 177.172 31.2733 176.186 31.7C175.212 32.1133 174.026 32.32 172.626 32.32ZM188.195 21.66H184.095V18H197.015V21.66H192.915V32H188.195V21.66ZM211.878 29.56H206.558L205.618 32H200.818L206.938 18H211.578L217.698 32H212.818L211.878 29.56ZM210.578 26.16L209.218 22.64L207.858 26.16H210.578Z" fill="white"/>
<path d="M89.9399 18V32H86.0599L80.7399 25.64V32H76.1399V18H80.0199L85.3399 24.36V18H89.9399ZM106.554 29.56H101.234L100.294 32H95.4942L101.614 18H106.254L112.374 32H107.494L106.554 29.56ZM105.254 26.16L103.894 22.64L102.534 26.16H105.254ZM132.087 18L126.167 32H121.527L115.607 18H120.687L124.027 26.18L127.447 18H132.087ZM137.356 18H142.076V32H137.356V18ZM160.789 28.44V32H149.149V18H160.529V21.56H153.789V23.2H159.709V26.6H153.789V28.44H160.789ZM172.626 32.32C171.466 32.32 170.332 32.1933 169.226 31.94C168.132 31.6733 167.232 31.32 166.526 30.88L168.046 27.44C168.712 27.8267 169.459 28.14 170.286 28.38C171.112 28.6067 171.906 28.72 172.666 28.72C173.319 28.72 173.786 28.66 174.066 28.54C174.346 28.4067 174.486 28.2133 174.486 27.96C174.486 27.6667 174.299 27.4467 173.926 27.3C173.566 27.1533 172.966 26.9933 172.126 26.82C171.046 26.5933 170.146 26.3533 169.426 26.1C168.706 25.8333 168.079 25.4067 167.546 24.82C167.012 24.22 166.746 23.4133 166.746 22.4C166.746 21.52 166.992 20.72 167.486 20C167.979 19.28 168.712 18.7133 169.686 18.3C170.672 17.8867 171.866 17.68 173.266 17.68C174.226 17.68 175.166 17.7867 176.086 18C177.019 18.2 177.839 18.5 178.546 18.9L177.126 22.32C175.752 21.6267 174.452 21.28 173.226 21.28C172.012 21.28 171.406 21.5733 171.406 22.16C171.406 22.44 171.586 22.6533 171.946 22.8C172.306 22.9333 172.899 23.08 173.726 23.24C174.792 23.44 175.692 23.6733 176.426 23.94C177.159 24.1933 177.792 24.6133 178.326 25.2C178.872 25.7867 179.146 26.5867 179.146 27.6C179.146 28.48 178.899 29.28 178.406 30C177.912 30.7067 177.172 31.2733 176.186 31.7C175.212 32.1133 174.026 32.32 172.626 32.32ZM188.195 21.66H184.095V18H197.015V21.66H192.915V32H188.195V21.66ZM211.878 29.56H206.558L205.618 32H200.818L206.938 18H211.578L217.698 32H212.818L211.878 29.56ZM210.578 26.16L209.218 22.64L207.858 26.16H210.578Z" fill="#1B1D29"/>
<path d="M89.9399 18V32H86.0599L80.7399 25.64V32H76.1399V18H80.0199L85.3399 24.36V18H89.9399ZM106.554 29.56H101.234L100.294 32H95.4942L101.614 18H106.254L112.374 32H107.494L106.554 29.56ZM105.254 26.16L103.894 22.64L102.534 26.16H105.254ZM132.087 18L126.167 32H121.527L115.607 18H120.687L124.027 26.18L127.447 18H132.087ZM137.356 18H142.076V32H137.356V18ZM160.789 28.44V32H149.149V18H160.529V21.56H153.789V23.2H159.709V26.6H153.789V28.44H160.789ZM172.626 32.32C171.466 32.32 170.332 32.1933 169.226 31.94C168.132 31.6733 167.232 31.32 166.526 30.88L168.046 27.44C168.712 27.8267 169.459 28.14 170.286 28.38C171.112 28.6067 171.906 28.72 172.666 28.72C173.319 28.72 173.786 28.66 174.066 28.54C174.346 28.4067 174.486 28.2133 174.486 27.96C174.486 27.6667 174.299 27.4467 173.926 27.3C173.566 27.1533 172.966 26.9933 172.126 26.82C171.046 26.5933 170.146 26.3533 169.426 26.1C168.706 25.8333 168.079 25.4067 167.546 24.82C167.012 24.22 166.746 23.4133 166.746 22.4C166.746 21.52 166.992 20.72 167.486 20C167.979 19.28 168.712 18.7133 169.686 18.3C170.672 17.8867 171.866 17.68 173.266 17.68C174.226 17.68 175.166 17.7867 176.086 18C177.019 18.2 177.839 18.5 178.546 18.9L177.126 22.32C175.752 21.6267 174.452 21.28 173.226 21.28C172.012 21.28 171.406 21.5733 171.406 22.16C171.406 22.44 171.586 22.6533 171.946 22.8C172.306 22.9333 172.899 23.08 173.726 23.24C174.792 23.44 175.692 23.6733 176.426 23.94C177.159 24.1933 177.792 24.6133 178.326 25.2C178.872 25.7867 179.146 26.5867 179.146 27.6C179.146 28.48 178.899 29.28 178.406 30C177.912 30.7067 177.172 31.2733 176.186 31.7C175.212 32.1133 174.026 32.32 172.626 32.32ZM188.195 21.66H184.095V18H197.015V21.66H192.915V32H188.195V21.66ZM211.878 29.56H206.558L205.618 32H200.818L206.938 18H211.578L217.698 32H212.818L211.878 29.56ZM210.578 26.16L209.218 22.64L207.858 26.16H210.578Z" fill="#132941"/>
<path d="M89.9399 18V32H86.0599L80.7399 25.64V32H76.1399V18H80.0199L85.3399 24.36V18H89.9399ZM106.554 29.56H101.234L100.294 32H95.4942L101.614 18H106.254L112.374 32H107.494L106.554 29.56ZM105.254 26.16L103.894 22.64L102.534 26.16H105.254ZM132.087 18L126.167 32H121.527L115.607 18H120.687L124.027 26.18L127.447 18H132.087ZM137.356 18H142.076V32H137.356V18ZM160.789 28.44V32H149.149V18H160.529V21.56H153.789V23.2H159.709V26.6H153.789V28.44H160.789ZM172.626 32.32C171.466 32.32 170.332 32.1933 169.226 31.94C168.132 31.6733 167.232 31.32 166.526 30.88L168.046 27.44C168.712 27.8267 169.459 28.14 170.286 28.38C171.112 28.6067 171.906 28.72 172.666 28.72C173.319 28.72 173.786 28.66 174.066 28.54C174.346 28.4067 174.486 28.2133 174.486 27.96C174.486 27.6667 174.299 27.4467 173.926 27.3C173.566 27.1533 172.966 26.9933 172.126 26.82C171.046 26.5933 170.146 26.3533 169.426 26.1C168.706 25.8333 168.079 25.4067 167.546 24.82C167.012 24.22 166.746 23.4133 166.746 22.4C166.746 21.52 166.992 20.72 167.486 20C167.979 19.28 168.712 18.7133 169.686 18.3C170.672 17.8867 171.866 17.68 173.266 17.68C174.226 17.68 175.166 17.7867 176.086 18C177.019 18.2 177.839 18.5 178.546 18.9L177.126 22.32C175.752 21.6267 174.452 21.28 173.226 21.28C172.012 21.28 171.406 21.5733 171.406 22.16C171.406 22.44 171.586 22.6533 171.946 22.8C172.306 22.9333 172.899 23.08 173.726 23.24C174.792 23.44 175.692 23.6733 176.426 23.94C177.159 24.1933 177.792 24.6133 178.326 25.2C178.872 25.7867 179.146 26.5867 179.146 27.6C179.146 28.48 178.899 29.28 178.406 30C177.912 30.7067 177.172 31.2733 176.186 31.7C175.212 32.1133 174.026 32.32 172.626 32.32ZM188.195 21.66H184.095V18H197.015V21.66H192.915V32H188.195V21.66ZM211.878 29.56H206.558L205.618 32H200.818L206.938 18H211.578L217.698 32H212.818L211.878 29.56ZM210.578 26.16L209.218 22.64L207.858 26.16H210.578Z" fill="#153E6A"/>
<path d="M89.9399 18V32H86.0599L80.7399 25.64V32H76.1399V18H80.0199L85.3399 24.36V18H89.9399ZM106.554 29.56H101.234L100.294 32H95.4942L101.614 18H106.254L112.374 32H107.494L106.554 29.56ZM105.254 26.16L103.894 22.64L102.534 26.16H105.254ZM132.087 18L126.167 32H121.527L115.607 18H120.687L124.027 26.18L127.447 18H132.087ZM137.356 18H142.076V32H137.356V18ZM160.789 28.44V32H149.149V18H160.529V21.56H153.789V23.2H159.709V26.6H153.789V28.44H160.789ZM172.626 32.32C171.466 32.32 170.332 32.1933 169.226 31.94C168.132 31.6733 167.232 31.32 166.526 30.88L168.046 27.44C168.712 27.8267 169.459 28.14 170.286 28.38C171.112 28.6067 171.906 28.72 172.666 28.72C173.319 28.72 173.786 28.66 174.066 28.54C174.346 28.4067 174.486 28.2133 174.486 27.96C174.486 27.6667 174.299 27.4467 173.926 27.3C173.566 27.1533 172.966 26.9933 172.126 26.82C171.046 26.5933 170.146 26.3533 169.426 26.1C168.706 25.8333 168.079 25.4067 167.546 24.82C167.012 24.22 166.746 23.4133 166.746 22.4C166.746 21.52 166.992 20.72 167.486 20C167.979 19.28 168.712 18.7133 169.686 18.3C170.672 17.8867 171.866 17.68 173.266 17.68C174.226 17.68 175.166 17.7867 176.086 18C177.019 18.2 177.839 18.5 178.546 18.9L177.126 22.32C175.752 21.6267 174.452 21.28 173.226 21.28C172.012 21.28 171.406 21.5733 171.406 22.16C171.406 22.44 171.586 22.6533 171.946 22.8C172.306 22.9333 172.899 23.08 173.726 23.24C174.792 23.44 175.692 23.6733 176.426 23.94C177.159 24.1933 177.792 24.6133 178.326 25.2C178.872 25.7867 179.146 26.5867 179.146 27.6C179.146 28.48 178.899 29.28 178.406 30C177.912 30.7067 177.172 31.2733 176.186 31.7C175.212 32.1133 174.026 32.32 172.626 32.32ZM188.195 21.66H184.095V18H197.015V21.66H192.915V32H188.195V21.66ZM211.878 29.56H206.558L205.618 32H200.818L206.938 18H211.578L217.698 32H212.818L211.878 29.56ZM210.578 26.16L209.218 22.64L207.858 26.16H210.578Z" fill="#1B1D29"/>
<path d="M89.9399 18V32H86.0599L80.7399 25.64V32H76.1399V18H80.0199L85.3399 24.36V18H89.9399ZM106.554 29.56H101.234L100.294 32H95.4942L101.614 18H106.254L112.374 32H107.494L106.554 29.56ZM105.254 26.16L103.894 22.64L102.534 26.16H105.254ZM132.087 18L126.167 32H121.527L115.607 18H120.687L124.027 26.18L127.447 18H132.087ZM137.356 18H142.076V32H137.356V18ZM160.789 28.44V32H149.149V18H160.529V21.56H153.789V23.2H159.709V26.6H153.789V28.44H160.789ZM172.626 32.32C171.466 32.32 170.332 32.1933 169.226 31.94C168.132 31.6733 167.232 31.32 166.526 30.88L168.046 27.44C168.712 27.8267 169.459 28.14 170.286 28.38C171.112 28.6067 171.906 28.72 172.666 28.72C173.319 28.72 173.786 28.66 174.066 28.54C174.346 28.4067 174.486 28.2133 174.486 27.96C174.486 27.6667 174.299 27.4467 173.926 27.3C173.566 27.1533 172.966 26.9933 172.126 26.82C171.046 26.5933 170.146 26.3533 169.426 26.1C168.706 25.8333 168.079 25.4067 167.546 24.82C167.012 24.22 166.746 23.4133 166.746 22.4C166.746 21.52 166.992 20.72 167.486 20C167.979 19.28 168.712 18.7133 169.686 18.3C170.672 17.8867 171.866 17.68 173.266 17.68C174.226 17.68 175.166 17.7867 176.086 18C177.019 18.2 177.839 18.5 178.546 18.9L177.126 22.32C175.752 21.6267 174.452 21.28 173.226 21.28C172.012 21.28 171.406 21.5733 171.406 22.16C171.406 22.44 171.586 22.6533 171.946 22.8C172.306 22.9333 172.899 23.08 173.726 23.24C174.792 23.44 175.692 23.6733 176.426 23.94C177.159 24.1933 177.792 24.6133 178.326 25.2C178.872 25.7867 179.146 26.5867 179.146 27.6C179.146 28.48 178.899 29.28 178.406 30C177.912 30.7067 177.172 31.2733 176.186 31.7C175.212 32.1133 174.026 32.32 172.626 32.32ZM188.195 21.66H184.095V18H197.015V21.66H192.915V32H188.195V21.66ZM211.878 29.56H206.558L205.618 32H200.818L206.938 18H211.578L217.698 32H212.818L211.878 29.56ZM210.578 26.16L209.218 22.64L207.858 26.16H210.578Z" fill="#132941"/>
<path d="M89.9399 18V32H86.0599L80.7399 25.64V32H76.1399V18H80.0199L85.3399 24.36V18H89.9399ZM106.554 29.56H101.234L100.294 32H95.4942L101.614 18H106.254L112.374 32H107.494L106.554 29.56ZM105.254 26.16L103.894 22.64L102.534 26.16H105.254ZM132.087 18L126.167 32H121.527L115.607 18H120.687L124.027 26.18L127.447 18H132.087ZM137.356 18H142.076V32H137.356V18ZM160.789 28.44V32H149.149V18H160.529V21.56H153.789V23.2H159.709V26.6H153.789V28.44H160.789ZM172.626 32.32C171.466 32.32 170.332 32.1933 169.226 31.94C168.132 31.6733 167.232 31.32 166.526 30.88L168.046 27.44C168.712 27.8267 169.459 28.14 170.286 28.38C171.112 28.6067 171.906 28.72 172.666 28.72C173.319 28.72 173.786 28.66 174.066 28.54C174.346 28.4067 174.486 28.2133 174.486 27.96C174.486 27.6667 174.299 27.4467 173.926 27.3C173.566 27.1533 172.966 26.9933 172.126 26.82C171.046 26.5933 170.146 26.3533 169.426 26.1C168.706 25.8333 168.079 25.4067 167.546 24.82C167.012 24.22 166.746 23.4133 166.746 22.4C166.746 21.52 166.992 20.72 167.486 20C167.979 19.28 168.712 18.7133 169.686 18.3C170.672 17.8867 171.866 17.68 173.266 17.68C174.226 17.68 175.166 17.7867 176.086 18C177.019 18.2 177.839 18.5 178.546 18.9L177.126 22.32C175.752 21.6267 174.452 21.28 173.226 21.28C172.012 21.28 171.406 21.5733 171.406 22.16C171.406 22.44 171.586 22.6533 171.946 22.8C172.306 22.9333 172.899 23.08 173.726 23.24C174.792 23.44 175.692 23.6733 176.426 23.94C177.159 24.1933 177.792 24.6133 178.326 25.2C178.872 25.7867 179.146 26.5867 179.146 27.6C179.146 28.48 178.899 29.28 178.406 30C177.912 30.7067 177.172 31.2733 176.186 31.7C175.212 32.1133 174.026 32.32 172.626 32.32ZM188.195 21.66H184.095V18H197.015V21.66H192.915V32H188.195V21.66ZM211.878 29.56H206.558L205.618 32H200.818L206.938 18H211.578L217.698 32H212.818L211.878 29.56ZM210.578 26.16L209.218 22.64L207.858 26.16H210.578Z" fill="white"/>
<path d="M24.0853 0L-6.10352e-05 38.4146H8.23164L24.0853 13.4146L30.7926 23.7805L35.3658 17.0732L24.0853 0Z" fill="white"/>
<path d="M24.0853 0L-6.10352e-05 38.4146H8.23164L24.0853 13.4146L30.7926 23.7805L35.3658 17.0732L24.0853 0Z" fill="#1B1D29"/>
<path d="M24.0853 0L-6.10352e-05 38.4146H8.23164L24.0853 13.4146L30.7926 23.7805L35.3658 17.0732L24.0853 0Z" fill="#1B1D29"/>
<path d="M24.0853 0L-6.10352e-05 38.4146H8.23164L24.0853 13.4146L30.7926 23.7805L35.3658 17.0732L24.0853 0Z" fill="#132941"/>
<path d="M24.0853 0L-6.10352e-05 38.4146H8.23164L24.0853 13.4146L30.7926 23.7805L35.3658 17.0732L24.0853 0Z" fill="#153E6A"/>
<path d="M24.0853 0L-6.10352e-05 38.4146H8.23164L24.0853 13.4146L30.7926 23.7805L35.3658 17.0732L24.0853 0Z" fill="#1B1D29"/>
<path d="M24.0853 0L-6.10352e-05 38.4146H8.23164L24.0853 13.4146L30.7926 23.7805L35.3658 17.0732L24.0853 0Z" fill="#132941"/>
<path d="M24.0853 0L-6.10352e-05 38.4146H8.23164L24.0853 13.4146L30.7926 23.7805L35.3658 17.0732L24.0853 0Z" fill="white"/>
<path d="M30.646 50L54.7314 11.5854H46.4997L30.646 36.5854L23.9387 26.2195L19.3655 32.9268L30.646 50Z" fill="white"/>
<path d="M30.646 50L54.7314 11.5854H46.4997L30.646 36.5854L23.9387 26.2195L19.3655 32.9268L30.646 50Z" fill="#1B1D29"/>
<path d="M30.646 50L54.7314 11.5854H46.4997L30.646 36.5854L23.9387 26.2195L19.3655 32.9268L30.646 50Z" fill="#1CDBD3"/>
<path d="M30.646 50L54.7314 11.5854H46.4997L30.646 36.5854L23.9387 26.2195L19.3655 32.9268L30.646 50Z" fill="#1B1D29"/>
<path d="M30.646 50L54.7314 11.5854H46.4997L30.646 36.5854L23.9387 26.2195L19.3655 32.9268L30.646 50Z" fill="#132941"/>
<path d="M30.646 50L54.7314 11.5854H46.4997L30.646 36.5854L23.9387 26.2195L19.3655 32.9268L30.646 50Z" fill="white"/>
</svg>
