<svg width="55" height="50" viewBox="0 0 55 50" fill="none" xmlns="http://www.w3.org/2000/svg">

<path d="M24.0853 0L-6.10352e-05 38.4146H8.23164L24.0853 13.4146L30.7926 23.7805L35.3658 17.0732L24.0853 0Z" fill="white"/>
<path d="M24.0853 0L-6.10352e-05 38.4146H8.23164L24.0853 13.4146L30.7926 23.7805L35.3658 17.0732L24.0853 0Z" fill="#1B1D29"/>
<path d="M24.0853 0L-6.10352e-05 38.4146H8.23164L24.0853 13.4146L30.7926 23.7805L35.3658 17.0732L24.0853 0Z" fill="#1B1D29"/>
<path d="M24.0853 0L-6.10352e-05 38.4146H8.23164L24.0853 13.4146L30.7926 23.7805L35.3658 17.0732L24.0853 0Z" fill="#132941"/>
<path d="M24.0853 0L-6.10352e-05 38.4146H8.23164L24.0853 13.4146L30.7926 23.7805L35.3658 17.0732L24.0853 0Z" fill="#153E6A"/>
<path d="M24.0853 0L-6.10352e-05 38.4146H8.23164L24.0853 13.4146L30.7926 23.7805L35.3658 17.0732L24.0853 0Z" fill="#1B1D29"/>
<path d="M24.0853 0L-6.10352e-05 38.4146H8.23164L24.0853 13.4146L30.7926 23.7805L35.3658 17.0732L24.0853 0Z" fill="#132941"/>
<path d="M24.0853 0L-6.10352e-05 38.4146H8.23164L24.0853 13.4146L30.7926 23.7805L35.3658 17.0732L24.0853 0Z" fill="white"/>
<path d="M30.646 50L54.7314 11.5854H46.4997L30.646 36.5854L23.9387 26.2195L19.3655 32.9268L30.646 50Z" fill="white"/>
<path d="M30.646 50L54.7314 11.5854H46.4997L30.646 36.5854L23.9387 26.2195L19.3655 32.9268L30.646 50Z" fill="#1B1D29"/>
<path d="M30.646 50L54.7314 11.5854H46.4997L30.646 36.5854L23.9387 26.2195L19.3655 32.9268L30.646 50Z" fill="#1CDBD3"/>
<path d="M30.646 50L54.7314 11.5854H46.4997L30.646 36.5854L23.9387 26.2195L19.3655 32.9268L30.646 50Z" fill="#1B1D29"/>
<path d="M30.646 50L54.7314 11.5854H46.4997L30.646 36.5854L23.9387 26.2195L19.3655 32.9268L30.646 50Z" fill="#132941"/>
<path d="M30.646 50L54.7314 11.5854H46.4997L30.646 36.5854L23.9387 26.2195L19.3655 32.9268L30.646 50Z" fill="white"/>
</svg>
