<svg width="39" height="35" viewBox="0 0 39 35" fill="none" xmlns="http://www.w3.org/2000/svg">
<path d="M16.8598 0L0 26.8902H5.76219L16.8598 9.39024L21.5549 16.6463L24.7561 11.9512L16.8598 0Z" fill="white"/>
<path d="M16.8598 0L0 26.8902H5.76219L16.8598 9.39024L21.5549 16.6463L24.7561 11.9512L16.8598 0Z" fill="#1B1D29"/>
<path d="M16.8598 0L0 26.8902H5.76219L16.8598 9.39024L21.5549 16.6463L24.7561 11.9512L16.8598 0Z" fill="#1B1D29"/>
<path d="M16.8598 0L0 26.8902H5.76219L16.8598 9.39024L21.5549 16.6463L24.7561 11.9512L16.8598 0Z" fill="#132941"/>
<path d="M16.8598 0L0 26.8902H5.76219L16.8598 9.39024L21.5549 16.6463L24.7561 11.9512L16.8598 0Z" fill="#153E6A"/>
<path d="M16.8598 0L0 26.8902H5.76219L16.8598 9.39024L21.5549 16.6463L24.7561 11.9512L16.8598 0Z" fill="#1B1D29"/>
<path d="M16.8598 0L0 26.8902H5.76219L16.8598 9.39024L21.5549 16.6463L24.7561 11.9512L16.8598 0Z" fill="#132941"/>
<path d="M16.8598 0L0 26.8902H5.76219L16.8598 9.39024L21.5549 16.6463L24.7561 11.9512L16.8598 0Z" fill="white"/>
<path d="M21.4527 35L38.3125 8.10976H32.5503L21.4527 25.6098L16.7576 18.3537L13.5564 23.0488L21.4527 35Z" fill="white"/>
<path d="M21.4527 35L38.3125 8.10976H32.5503L21.4527 25.6098L16.7576 18.3537L13.5564 23.0488L21.4527 35Z" fill="#1B1D29"/>
<path d="M21.4527 35L38.3125 8.10976H32.5503L21.4527 25.6098L16.7576 18.3537L13.5564 23.0488L21.4527 35Z" fill="#1CDBD3"/>
<path d="M21.4527 35L38.3125 8.10976H32.5503L21.4527 25.6098L16.7576 18.3537L13.5564 23.0488L21.4527 35Z" fill="#1B1D29"/>
<path d="M21.4527 35L38.3125 8.10976H32.5503L21.4527 25.6098L16.7576 18.3537L13.5564 23.0488L21.4527 35Z" fill="#132941"/>
<path d="M21.4527 35L38.3125 8.10976H32.5503L21.4527 25.6098L16.7576 18.3537L13.5564 23.0488L21.4527 35Z" fill="white"/>
</svg>
